<svg xmlns="http://www.w3.org/2000/svg" width="52" height="55" viewBox="0 0 52 55" fill="none">
  <path d="M43.7601 43.7101C43.554 43.4582 43.2613 43.5067 42.9936 43.5043C41.8716 43.496 40.7485 43.4889 39.6265 43.5043C38.969 43.5138 38.3316 43.4109 37.7037 43.2359C37.3933 43.1495 37.0983 43.0384 36.8163 42.9083V37.3134H33.2538C33.2443 36.197 33.5369 35.0664 34.1897 34.0553C35.4799 32.0555 37.3672 31.1318 39.7142 31.0893C40.816 31.0692 41.919 31.0928 43.022 31.081C43.3075 31.0774 43.6298 31.1342 43.8004 30.8007C43.952 30.0415 43.8644 29.274 43.8715 28.51C43.8845 26.9194 43.8869 25.3276 43.8703 23.7358C43.862 22.9139 43.5552 22.1972 42.9971 21.6035C42.5576 21.1352 41.9581 21.3221 41.425 21.3221C29.0266 21.3103 16.6294 21.3197 4.23103 21.3126C3.73462 21.3292 3.32825 21.5539 2.95031 21.8543C2.13758 22.4988 1.89233 23.3656 1.89233 24.3614C1.89826 33.0098 1.89352 41.6571 1.89826 50.3055C1.89826 52.2734 3.04035 53.398 5.02718 53.404C6.70478 53.4099 8.38238 53.43 10.0588 53.3957V54.2531H36.8175V53.4028C36.9893 53.3874 37.1694 53.3862 37.3542 53.391C38.8268 53.4264 40.3018 53.4028 41.7757 53.4004C42.0695 53.4004 42.3669 53.4205 42.6476 53.2999C43.5113 52.6684 43.8596 51.7873 43.8632 50.7514C43.8715 48.6345 43.8667 46.5176 43.8644 44.4007C43.8644 44.1666 43.8739 43.9289 43.7625 43.7089L43.7601 43.7101Z" fill="#F18E87"/>
  <path d="M43.6808 43.6805C42.2852 43.6758 40.8895 43.6734 39.4927 43.664C36.1209 43.6403 33.492 41.2503 33.1105 37.8668C32.761 34.7731 34.9196 31.8414 38.0947 31.107C38.6515 30.9781 39.2214 30.9438 39.7925 30.9426C41.0898 30.9379 42.3871 30.9284 43.6843 30.9214C44.0493 30.6387 44.4781 30.7534 44.8821 30.7369C45.5432 30.7097 45.6143 30.6671 45.6179 30.0391C45.6273 28.1138 45.6439 26.1874 45.6131 24.2632C45.5882 22.7128 44.8027 21.8685 43.2602 21.5633C42.6939 21.451 42.1335 21.4226 41.5636 21.4226C29.3406 21.4226 17.1188 21.4226 4.89572 21.4262C4.66233 21.4262 4.42301 21.3753 4.19672 21.4747C3.02027 21.6887 2.16843 22.6348 2.08668 23.8245C2.07484 24.0007 2.07958 24.1781 2.07958 24.3543C2.07958 33.0181 2.07958 41.6819 2.07958 50.3457C2.07958 52.18 3.12452 53.223 4.97036 53.2254C6.99746 53.2289 9.02456 53.2242 11.0517 53.2278C11.8431 53.2289 12.1096 53.4797 12.1677 54.2555C12.0315 54.8006 11.663 55.0017 11.1228 54.9993C8.95822 54.991 6.7925 55.0123 4.62797 54.9875C2.23122 54.9603 0.316672 53.0575 0.313118 50.665C0.298901 41.7446 0.298901 32.8254 0.315488 23.9049C0.317857 22.3876 1.02634 21.1896 2.28928 20.3512C2.58902 20.1525 2.69801 19.9621 2.69564 19.6061C2.67906 16.9346 2.68498 14.2619 2.68735 11.5904C2.68735 10.8087 2.85203 10.5982 3.60198 10.3794C4.10905 10.3415 4.39813 10.5367 4.54977 11.0251C4.63863 11.3113 4.62678 11.6081 4.62678 11.9026C4.62915 14.1235 4.6256 16.3445 4.62915 18.5642C4.63034 19.3649 4.67062 19.4098 5.45374 19.4063C7.0259 19.3992 6.85055 19.5647 6.85292 18.0297C6.86003 13.5488 6.85529 9.06788 6.85529 4.58696C6.85529 4.39065 6.85055 4.19433 6.84937 3.99802C6.84818 3.65506 6.67995 3.50014 6.33874 3.50132C4.32112 3.50487 4.65877 3.29555 4.62797 5.047C4.61257 5.93159 4.65996 6.81618 4.60783 7.69959C4.56518 8.42808 4.1517 8.76394 3.52023 8.64214C2.90771 8.53215 2.67906 8.13716 2.68143 7.5494C2.68735 6.05576 2.6755 4.56213 2.68617 3.06849C2.69328 2.08692 3.24418 1.54883 4.23937 1.54883C11.2081 1.54528 18.1756 1.54528 25.1442 1.54883C26.1359 1.54883 26.6607 2.0881 26.6666 3.08623C26.6737 4.1423 26.6678 5.19955 26.6678 6.2982C26.887 6.21305 26.9474 6.04039 27.041 5.90794C28.24 4.20616 29.433 2.50083 30.632 0.800239C31.28 -0.11865 31.9636 -0.240459 32.8889 0.405247C38.7037 4.46633 44.516 8.52979 50.3272 12.5944C51.2644 13.2496 51.3828 13.9497 50.7241 14.8946C49.8711 16.1186 49.0074 17.3355 48.1568 18.5619C47.8215 19.0456 47.4127 19.2442 46.8453 18.9853C46.2801 18.6908 46.1249 18.2331 46.4496 17.6903C46.8713 16.9843 47.3748 16.3315 47.8487 15.6609C48.1532 15.2293 48.4281 14.7763 48.7598 14.3636C48.9707 14.1023 48.9209 13.9119 48.6401 13.7451C48.2361 13.5039 47.8795 13.194 47.4803 12.9445C42.8811 9.73605 38.2807 6.52881 33.6922 3.30738C33.2894 3.02473 32.8641 2.77402 32.4837 2.46181C32.1651 2.20045 31.9518 2.26668 31.7172 2.59899C30.4922 4.33388 29.2778 6.07587 28.0587 7.81431C25.5743 11.3562 23.0946 14.9005 20.6078 18.4401C20.4064 18.7263 20.1766 18.9994 20.0451 19.3306C20.192 19.5044 20.3816 19.4382 20.5474 19.4394C21.8862 19.4453 23.2249 19.4276 24.5637 19.45C25.0637 19.4583 25.3243 19.2785 25.5494 18.815C26.8372 16.16 28.7518 14.1673 31.6509 13.2732C33.5559 12.6855 35.3307 12.9303 36.8495 14.2607C38.0461 15.3097 38.6338 16.6768 38.6326 18.284C38.6326 19.586 38.5023 19.4346 39.8114 19.4406C40.9144 19.4453 42.0162 19.4453 43.1192 19.437C43.868 19.4879 44.5942 19.6215 45.2648 19.9798C45.4745 20.0922 45.6747 20.2128 45.7813 20.4375C47.1154 21.5291 47.6284 22.9458 47.581 24.65C47.5265 26.6143 47.5822 28.5821 47.5573 30.5488C47.5525 30.9556 47.6852 31.1023 48.0561 31.2442C49.8557 31.9372 50.903 33.2594 51.0239 35.187C51.1115 36.5778 51.1068 37.9815 51.0298 39.3723C50.9208 41.3543 49.8438 42.6942 48.0016 43.3979C47.6639 43.5268 47.5597 43.664 47.562 44.0129C47.5786 46.1368 47.5739 48.2608 47.5691 50.3836C47.562 53.1166 45.7079 54.9804 42.9818 54.9899C40.8741 54.997 19.8105 54.9816 17.7028 54.9969C17.0808 55.0017 16.6816 54.7746 16.5584 54.1443C16.7231 53.4205 16.9529 53.2242 17.6756 53.2207C19.6695 53.2112 40.6206 53.2065 42.6145 53.1994C42.8112 53.1036 43.0185 53.0587 43.2389 53.0385C44.6689 52.9073 45.5989 51.9529 45.6226 50.5208C45.6558 48.4961 45.625 46.4703 45.6368 44.4445C45.6392 43.9833 45.4544 43.8248 45.003 43.8248C44.5599 43.8248 44.0931 43.9443 43.6772 43.6746L43.6808 43.6805Z" fill="black"/>
  <path d="M3.52368 8.64215C4.24638 8.52152 4.45608 8.28263 4.45845 7.54587C4.46319 6.28875 4.47266 5.03045 4.45252 3.77334C4.4466 3.41855 4.5319 3.28492 4.90747 3.30739C5.45719 3.33932 6.01165 3.34996 6.559 3.30502C7.01987 3.26718 7.05067 3.47768 7.04949 3.84902C7.03646 6.61988 7.04238 9.38956 7.04238 12.1604C7.04238 14.4594 7.02698 16.7584 7.05423 19.0562C7.06015 19.5328 6.91561 19.6582 6.46659 19.6251C5.95715 19.5872 5.44179 19.5896 4.93235 19.6251C4.52361 19.6534 4.45015 19.4891 4.45252 19.1213C4.46674 16.6059 4.44778 14.0916 4.46793 11.5762C4.47385 10.9293 4.25349 10.5178 3.60306 10.3794C3.56633 9.80111 3.69429 9.21453 3.52368 8.64215Z" fill="#8BB9F9"/>
  <path d="M45.786 20.4387C44.9638 19.9124 44.0598 19.6416 43.0884 19.5825C43.0362 19.016 43.4236 18.7014 43.785 18.3715C44.439 18.4815 44.8548 18.1503 45.1782 17.6335C45.3548 17.3532 45.5206 17.0611 45.7422 16.814C46.2007 16.3031 46.3997 15.7638 46.0028 15.1276C46.485 14.3411 47.0217 13.5937 47.5857 12.8652C48.0062 13.1491 48.415 13.453 48.851 13.7096C49.1673 13.8965 49.1768 14.049 48.9659 14.34C48.1958 15.4008 47.447 16.4769 46.7007 17.5543C46.2848 18.1539 46.3239 18.4472 46.8499 18.9852C46.4234 19.4181 46.1391 19.9538 45.7848 20.4387H45.786Z" fill="#7EAA38"/>
  <path d="M4.19662 21.4721C4.42883 21.3196 4.69303 21.3716 4.94301 21.3716C17.3663 21.368 29.7883 21.3692 42.2116 21.3692C42.3881 21.3692 42.5658 21.3775 42.7424 21.3811C44.8489 21.4307 45.799 22.3898 45.799 24.4736C45.799 26.4592 45.7872 28.4436 45.8085 30.4292C45.8132 30.8502 45.6817 30.9756 45.2754 30.9472C44.747 30.9117 44.2138 30.9271 43.6831 30.92C43.6831 28.5217 43.6783 26.1233 43.6878 23.7262C43.6914 22.9326 43.3182 22.3011 42.8762 21.6921C42.6962 21.4437 42.4296 21.4839 42.1761 21.4839C39.7544 21.4839 37.3328 21.4839 34.91 21.4839C24.7496 21.4863 14.5904 21.4875 4.43001 21.4887C4.35182 21.4887 4.27363 21.478 4.19543 21.4721H4.19662Z" fill="#CD675D"/>
  <path d="M43.6806 43.6805C44.2505 43.6757 44.8192 43.6805 45.389 43.6604C45.6769 43.6497 45.8096 43.7159 45.8073 44.0447C45.793 46.281 45.8274 48.5173 45.7859 50.7525C45.7611 52.0876 44.5787 53.4559 42.6179 53.2052C43.4401 52.3998 43.7316 51.4254 43.7043 50.2782C43.6522 48.0798 43.6842 45.8801 43.6818 43.6805H43.6806Z" fill="#CD675D"/>
  <path d="M47.5869 12.8653C47.2339 13.7156 46.6747 14.4275 46.0657 15.1039C45.6155 14.962 45.4437 14.5552 45.6013 14.0077C45.9259 12.8854 45.9141 12.8428 44.9106 12.1758C44.5019 11.9038 44.1287 11.5809 43.6974 11.3432C43.2508 11.0961 42.8847 11.1552 42.656 11.4946C42.444 11.8092 42.4914 12.3047 42.8859 12.5259C43.8123 13.045 44.3076 13.7309 44.0943 14.8284C44.0623 14.9951 44.1334 15.1879 44.2282 15.3334C44.5398 15.81 44.426 16.2286 44.0706 16.6094C43.5529 17.1629 43.3302 17.7494 43.7934 18.4448C43.5553 18.8221 43.2389 19.1508 43.0873 19.5813C41.6703 19.592 40.2522 19.5931 38.8352 19.618C38.4537 19.6251 38.4999 19.4122 38.5153 19.1639C38.5781 18.1716 38.4703 17.2007 38.103 16.27C37.0605 13.6269 34.2408 12.4715 31.3275 13.5287C28.599 14.5186 26.7733 16.4758 25.6075 19.074C25.4108 19.5115 25.1869 19.631 24.7332 19.6239C23.0662 19.5967 21.3981 19.6132 19.7181 19.6132C19.7229 19.3223 19.9077 19.1816 20.025 19.0137C23.9039 13.4743 27.7875 7.9385 31.6687 2.40034C31.8535 2.1378 31.9518 1.88945 32.3748 2.18747C37.4088 5.73175 42.4582 9.2512 47.504 12.7789C47.5348 12.8002 47.5573 12.8357 47.5846 12.8641L47.5869 12.8653Z" fill="#ADD459"/>
  <path d="M13.0657 11.4367C13.0657 8.90117 13.0752 6.36446 13.0562 3.82895C13.0539 3.42686 13.1427 3.3015 13.5669 3.30387C17.1709 3.3216 20.7737 3.32042 24.3777 3.30505C24.7722 3.30387 24.9191 3.37364 24.9108 3.80884C24.8824 5.40064 24.8954 6.99361 24.9037 8.58541C24.9049 8.85268 24.8374 9.06791 24.681 9.29024C22.3494 12.5992 20.0249 15.9117 17.7087 19.2325C17.5227 19.4997 17.3391 19.631 16.9955 19.6239C15.8534 19.6002 14.7113 19.5943 13.5692 19.6251C13.1475 19.6369 13.0515 19.5104 13.0539 19.1024C13.0728 16.5467 13.0634 13.9911 13.0634 11.4355L13.0657 11.4367Z" fill="#8BB9F9"/>
  <path d="M34.9338 37.882C34.4457 35.6966 36.2512 33.1906 38.6006 32.8098C38.9679 32.7507 39.3422 32.7187 39.7142 32.7164C41.8954 32.7081 44.0777 32.7069 46.2588 32.714C48.1331 32.7199 49.2763 33.8505 49.2858 35.7119C49.2917 36.7893 49.2645 37.8678 49.2527 38.9452C48.7716 39.8203 47.9518 40.2106 47.0301 40.265C45.3702 40.362 43.7045 40.3005 42.0411 40.2898C41.8835 40.2898 41.7283 40.2626 41.5956 40.168C41.4902 40.0628 41.5139 39.9327 41.6027 39.8558C42.1856 39.352 42.1382 38.782 41.8041 38.1741C41.8717 37.6218 41.8871 37.0684 41.8219 36.5137C42.2449 35.3299 41.9783 34.8037 40.7367 34.372C39.4856 33.9368 38.1089 34.2952 37.3033 35.2673C36.4147 36.3387 36.2974 37.6952 36.981 38.8932C37.1149 39.1273 37.3353 39.3236 37.3305 39.6252C37.1469 39.8215 36.9562 39.7009 36.7974 39.6086C36.0475 39.1746 35.3058 38.7252 34.9338 37.882Z" fill="#FED1BF"/>
  <path d="M11.2969 11.4874C11.2969 13.9851 11.2792 16.4816 11.3111 18.9793C11.3183 19.5185 11.1524 19.6687 10.6465 19.6167C10.2567 19.5765 9.85628 19.5765 9.4665 19.6167C8.96061 19.6687 8.79474 19.5197 8.80185 18.9805C8.83503 16.7004 8.81607 14.4191 8.81607 12.1379C8.81607 9.40486 8.83266 6.67184 8.80185 3.93883C8.79593 3.39837 8.96061 3.25055 9.46531 3.30495C9.83495 3.34516 10.2164 3.34752 10.5861 3.30495C11.1394 3.24109 11.3218 3.40429 11.3123 3.99677C11.2756 6.49327 11.2969 8.99094 11.2969 11.4886V11.4874Z" fill="#575B7A"/>
  <path d="M27.2531 19.6155C28.6155 17.1522 30.3014 15.312 33.1235 14.9265C34.9065 14.6829 36.4313 15.9542 36.7038 17.8286C36.9561 19.5611 36.9099 19.6155 35.1909 19.6155H27.2531Z" fill="#FEEA95"/>
  <path d="M41.5566 40.0227C41.7402 40.1954 41.9677 40.1209 42.1762 40.1221C43.3752 40.1292 44.5765 40.0712 45.7719 40.1398C47.1166 40.2167 48.2966 39.9364 49.2539 38.9466C49.3511 40.5585 48.1734 41.8759 46.5705 41.8889C44.1488 41.909 41.726 41.9161 39.3032 41.8865C37.0569 41.8593 35.0287 39.9731 34.9351 37.8822C35.4255 38.4037 35.9089 38.9335 36.5356 39.3025C36.7868 39.4503 37.025 39.6266 37.3306 39.6455C37.5913 39.6076 37.7678 39.7838 37.9597 39.9057C38.9407 40.523 39.9513 40.627 41.0093 40.1138C41.1775 40.0322 41.3505 39.9104 41.5566 40.0227Z" fill="#ECA99C"/>
  <path d="M43.7933 18.4458C43.2459 17.916 43.2068 17.6192 43.6061 17.0172C43.6926 16.886 43.7731 16.7488 43.8774 16.6329C44.2423 16.2284 44.4176 15.8464 44.0669 15.2989C43.8004 14.8814 43.8406 14.3445 43.9342 13.8608C43.9899 13.5735 43.9046 13.4327 43.6783 13.2908C43.3454 13.0827 43.022 12.858 42.7128 12.6156C42.2957 12.288 42.2187 11.7499 42.5078 11.3644C42.7969 10.98 43.266 10.8818 43.7103 11.1716C44.3679 11.6009 45.0135 12.0491 45.6426 12.5186C46.0822 12.8462 46.1687 13.279 45.8689 13.7615C45.5585 14.2617 45.5538 14.7194 46.0632 15.1014C46.4957 15.552 46.5028 16.012 46.1296 16.5111C45.7682 16.9936 45.4294 17.4915 45.0906 17.9905C44.7671 18.4671 44.3584 18.6729 43.7921 18.4446L43.7933 18.4458Z" fill="black"/>
  <path d="M36.8909 6.87403C36.8743 7.4878 36.2523 7.88989 35.6635 7.6581C35.5379 7.60843 35.4171 7.53038 35.314 7.44287C34.6944 6.92252 34.0759 6.52043 33.2596 7.11173C33.0926 7.23354 32.7893 7.25483 32.5749 7.20753C31.9173 7.06206 31.5595 7.3861 31.2764 7.90763C31.1745 8.09567 31.0418 8.27424 30.8972 8.43153C30.5584 8.79932 30.1449 8.87264 29.7315 8.59236C29.3132 8.30854 29.2149 7.86388 29.4696 7.44996C29.8902 6.76523 30.3641 6.11006 30.8522 5.47027C31.1413 5.09065 31.5619 5.06818 31.9706 5.28342C32.5298 5.57789 32.9729 5.48683 33.3627 4.97949C33.685 4.55966 34.1198 4.48042 34.564 4.77135C35.2216 5.203 35.8578 5.66658 36.5011 6.11834C36.7606 6.30165 36.8838 6.55827 36.8933 6.87285L36.8909 6.87403Z" fill="black"/>
  <path d="M41.5565 40.0227C40.0578 40.9097 38.6503 40.7571 37.3305 39.6466C36.2204 38.224 36.0794 36.8226 36.917 35.5359C37.9916 33.8861 40.2165 33.5349 41.7496 34.7743C42.4379 35.3313 42.4782 35.7831 41.8953 36.4477C41.6299 36.7623 41.316 36.7303 40.9902 36.5671C40.7437 36.4441 40.5305 36.2644 40.284 36.139C39.6881 35.8363 39.1289 35.9415 38.6858 36.4347C38.2439 36.9266 38.1942 37.5392 38.5555 38.0572C38.9216 38.5823 39.5685 38.7762 40.175 38.5504C40.4191 38.4593 40.6122 38.2866 40.8361 38.1648C41.2022 37.9673 41.5719 37.8503 41.8906 38.2547C42.4616 38.9702 42.4012 39.2848 41.5565 40.0227Z" fill="black"/>
  <path d="M41.8906 38.2547C41.4321 38.0394 41.0482 38.127 40.6478 38.4486C39.9452 39.0139 39.0886 38.93 38.5365 38.2996C38.0318 37.7237 38.0366 36.8864 38.5484 36.3152C39.1123 35.6849 39.9559 35.6127 40.6549 36.1863C41.0411 36.5032 41.4226 36.6369 41.8953 36.4477C42.1417 37.0508 42.0825 37.6527 41.8906 38.2547Z" fill="#CD665C"/>
</svg>