<svg xmlns="http://www.w3.org/2000/svg" width="76" height="47" viewBox="0 0 76 47" fill="none">
  <path d="M71.1866 12.9693C71.9766 12.8294 72.414 13.1919 72.6917 13.9188C73.5231 16.0898 74.3978 18.245 75.2409 20.412C75.7925 21.8304 75.2961 23.0144 73.8954 23.5817C72.0121 24.3422 70.1149 25.0671 68.2257 25.8177C67.3313 26.1723 66.4901 26.1309 65.7454 25.4927C65.5012 25.2838 65.3436 25.3311 65.1091 25.4828C63.9192 26.261 62.7254 27.0352 61.5158 27.7799C61.2045 27.9709 61.242 28.1483 61.3267 28.4359C62.2861 31.716 59.8827 34.5646 56.4647 34.1745C56.0825 34.1312 56.0549 34.2218 55.984 34.5469C55.46 36.9523 53.7953 38.2485 51.2875 38.1973C50.8679 38.1894 50.7674 38.2998 50.7142 38.7036C50.3872 41.2686 47.9463 42.951 45.405 42.3619C44.9519 42.2575 44.8041 42.3383 44.6859 42.7993C43.9275 45.7701 40.6277 47.0782 38.0371 45.445C37.4166 45.053 36.861 44.2985 36.2326 44.2453C35.5667 44.1901 35.2594 45.1929 34.7098 45.6538C32.3477 47.6357 28.7485 46.3906 28.1654 43.3548C28.0826 42.9195 27.9368 42.821 27.5133 42.8032C25.5314 42.7244 24.1426 41.5345 23.6993 39.5527C23.6166 39.1823 23.4944 39.0602 23.0906 39.0444C21.1107 38.9696 19.6352 37.7068 19.2234 35.7387C19.1427 35.3487 19.0225 35.258 18.6364 35.2462C15.707 35.1615 13.8788 32.2715 15.0588 29.5923C15.2223 29.2219 15.2617 29.021 14.8736 28.7806C13.2484 27.7739 11.6408 26.7397 10.0313 25.7054C9.81661 25.5675 9.66294 25.5715 9.4423 25.7074C8.74294 26.1428 8.01404 26.1231 7.25952 25.8217C5.37421 25.0671 3.48693 24.3146 1.58587 23.5975C0.788008 23.2961 0.360513 22.6854 0 21.9821V20.802C0.912119 18.9424 1.57011 16.9782 2.33841 15.0594C4.10355 10.6505 5.82338 6.22785 7.56487 1.81106C8.22877 0.132606 9.32607 -0.348078 11.0065 0.303998C12.8071 1.00335 14.6057 1.71453 16.4043 2.41783C17.5312 2.85911 18.1655 3.64121 18.0611 4.89217C18.0355 5.20147 18.1892 5.25466 18.398 5.35316C19.8322 6.02493 21.292 6.37954 22.9192 6.40909C25.9983 6.46425 29.1169 6.39727 32.0975 7.40986C32.4836 7.54185 32.6353 7.31727 32.8323 7.11435C33.8134 6.1057 34.828 5.17389 36.2621 4.8114C37.5013 4.49817 38.6971 4.74639 39.9067 4.92172C40.7321 5.04189 41.5516 5.19162 42.3751 5.3177C43.2754 5.4556 43.5256 5.70776 43.6556 6.63564C43.5591 7.32909 43.2537 7.64232 42.6036 7.70339C42.0323 7.75855 41.4807 7.60686 40.9252 7.51427C40.0544 7.36849 39.1758 7.26605 38.307 7.11435C37.0561 6.89371 36.0789 7.32515 35.1865 8.19392C32.7279 10.5934 30.1905 12.9082 27.4187 14.9491C26.7076 15.4731 25.9806 15.9755 25.2556 16.4818C24.5189 16.9979 24.5366 17.3545 25.2813 17.8726C25.6063 18.0992 25.9491 18.2863 26.3313 18.3927C27.5507 18.7453 28.7189 18.5089 29.8478 18.0381C31.4277 17.3801 32.8067 16.3991 34.0774 15.2663C35.5785 13.9267 36.9694 13.9503 38.4095 15.3806C40.9685 17.9219 44.0319 19.2536 47.6508 19.2851C48.1945 19.2891 48.7304 19.1925 49.2584 19.1137C50.0345 18.9955 50.6413 19.2595 51.2343 19.6969C53.3658 21.2709 55.4994 22.843 57.627 24.4249C58.1983 24.8485 58.7854 25.2504 59.3527 25.6798C59.664 25.9142 59.9634 25.9458 60.2983 25.7251C61.4882 24.945 62.6801 24.1668 63.8917 23.4202C64.3388 23.1444 64.201 22.8213 64.0571 22.4687C63.2179 20.4258 62.4516 18.3533 61.6202 16.3084C60.6963 14.035 59.8551 11.7281 58.9055 9.46459C58.7598 9.12574 58.6297 8.78296 58.4918 8.44018C58.1353 7.5517 58.1333 7.54973 57.1956 7.8669C56.3366 8.15846 55.5053 8.53671 54.6385 8.79872C53.4052 9.17105 52.1523 9.32078 50.86 9.09816C49.7725 8.90904 48.6733 8.7869 47.5898 8.58202C46.6619 8.40472 46.2895 7.7684 46.5693 6.9469C46.8904 6.25149 47.4538 6.09585 48.1571 6.22194C48.8801 6.35196 49.613 6.43864 50.332 6.58836C51.8391 6.90553 53.2989 6.80703 54.7291 6.21012C55.4954 5.89097 56.2815 5.61517 57.0695 5.34528C57.3473 5.25072 57.4241 5.14434 57.4083 4.82519C57.3532 3.6747 57.8516 2.93397 58.9351 2.49466C60.8618 1.7165 62.7924 0.942284 64.7309 0.191707C66.0469 -0.318528 67.2663 0.211407 67.7943 1.52344C68.7438 3.88352 69.6599 6.2574 70.6015 8.61945C70.8675 9.28532 70.7611 9.81328 70.1366 10.2053C69.5239 10.6781 68.8719 10.489 68.4582 9.65174C68.0011 8.7278 67.6544 7.75264 67.2919 6.78733C66.8349 5.56789 66.3167 4.37209 65.8676 3.15265C65.6509 2.56361 65.3514 2.4789 64.8097 2.73303C64.1655 3.03444 63.4917 3.27085 62.8318 3.53877C62.0753 3.82245 61.3444 4.18494 60.5682 4.40755C59.9634 4.58091 59.8807 4.8705 60.1033 5.42605C61.502 8.90313 62.8692 12.394 64.2403 15.8829C65.1367 18.1622 66.0547 20.4337 66.9314 22.7208C67.2663 23.5955 67.2919 23.5955 68.1607 23.2488C68.866 22.9691 69.589 22.7307 70.2745 22.4017C70.9739 22.1791 71.6358 21.856 72.3292 21.6216C72.8671 21.4403 72.9931 21.1685 72.7666 20.6326C71.9845 18.7887 71.3029 16.9053 70.5543 15.0457C70.3986 14.6595 70.2351 14.2655 70.312 13.84C70.3986 13.3593 70.572 12.9338 71.1847 12.9653L71.1866 12.9693Z" fill="black"/>
  <path d="M26.2465 18.5543C25.7284 18.4439 25.3029 18.1603 24.901 17.8352C24.2627 17.3191 24.2686 16.9113 24.9562 16.4483C26.4435 15.4475 27.8895 14.3916 29.2804 13.2628C31.2268 11.6828 33.1101 10.028 34.8437 8.21955C35.9548 7.06117 37.2136 6.65338 38.768 6.96858C39.8239 7.18331 40.8956 7.33304 41.9594 7.50246C42.9365 7.65809 43.2183 7.50837 43.6556 6.63565C44.6426 6.59231 45.5823 7.00404 46.5712 6.94691C46.5791 7.98905 46.8234 8.26289 47.8714 8.42246C48.8131 8.56627 49.7568 8.70417 50.6945 8.87162C52.3079 9.15727 53.8544 8.91102 55.3654 8.32987C56.1849 8.01466 57.0123 7.7231 57.8319 7.4079C58.1333 7.29364 58.3086 7.31137 58.4229 7.67188C58.612 8.27471 58.8622 8.85586 59.0868 9.44687C58.941 9.70691 58.6632 9.76207 58.4209 9.87436C56.0155 10.9914 53.5609 11.3341 50.9092 10.7944C47.4774 10.095 43.9885 9.67736 40.5312 9.09423C38.6892 8.78297 37.1683 9.27351 35.8661 10.6249C33.4962 13.0835 30.9017 15.2919 28.1535 17.3151C27.5428 17.7643 26.9479 18.241 26.2446 18.5523L26.2465 18.5543Z" fill="#FECDBD"/>
  <path d="M71.1866 12.9692C70.4183 13.4677 70.2844 13.8341 70.6173 14.6891C71.4073 16.7182 72.1835 18.7532 73.0266 20.7587C73.2749 21.3497 73.1508 21.5546 72.5834 21.7299C71.8151 21.9663 71.0724 22.2815 70.3179 22.5632C69.9534 22.4037 69.8982 22.0353 69.7781 21.726C67.5224 15.9282 65.1958 10.158 62.95 4.35435C62.8338 4.05097 62.5757 3.75153 62.7944 3.38707C63.5824 3.05808 64.3783 2.74682 65.1564 2.39221C65.5603 2.209 65.7356 2.27795 65.9011 2.70938C66.76 4.95127 67.6485 7.18133 68.5409 9.40942C68.8797 10.2565 69.2875 10.4437 70.1406 10.2073C70.377 11.1706 70.7966 12.063 71.1866 12.9673V12.9692Z" fill="#B06E3D"/>
  <path d="M39.8259 37.0607C39.3334 37.9511 39.3984 38.3156 40.1825 38.9401C40.6789 39.3361 41.1872 39.7202 41.6896 40.1103C42.7297 40.916 42.9011 41.7434 42.2687 42.9097C42.0067 43.1008 41.794 42.9235 41.6029 42.7934C40.7321 42.2005 39.8771 41.5878 39.0458 40.9396C38.8764 40.8077 38.6873 40.6658 38.7661 40.3979C38.8389 39.6907 38.9099 38.9834 38.703 38.2821C38.2046 36.5859 36.7448 35.4295 34.9639 35.3803C34.564 35.3684 34.3966 35.3133 34.3079 34.8543C33.9336 32.9158 32.4147 31.653 30.423 31.5801C30.0645 31.5663 29.9522 31.4816 29.8694 31.1191C29.3966 29.0545 28.0826 27.9592 25.9353 27.8036C25.6615 27.7839 25.5177 27.7642 25.4231 27.449C24.3022 23.6705 20.9748 22.8628 18.1321 25.6661C17.9233 25.7528 17.7459 25.6621 17.5864 25.5459C15.705 24.1866 13.8079 22.847 11.9462 21.4601C11.8674 21.401 11.8063 21.3261 11.763 21.2355C12.484 19.364 13.1972 17.4885 13.9281 15.621C14.9446 13.0225 15.9788 10.43 16.9875 7.82954C17.149 7.41583 17.2909 7.23853 17.7617 7.47888C19.4776 8.35553 21.2959 8.61952 23.2325 8.62149C25.626 8.62346 28.0393 8.68847 30.3994 9.19082C30.4585 9.47648 30.228 9.54937 30.096 9.66757C28.1319 11.415 26.085 13.0521 23.8885 14.502C21.6781 15.9618 21.6387 18.2234 23.7959 19.7757C25.8329 21.2414 28.0393 21.267 30.3107 20.4495C32.3241 19.7225 34.0439 18.5031 35.6258 17.0926C36.0652 16.7005 36.3232 16.6848 36.7645 17.1123C40.212 20.4515 44.3038 22.0432 49.1323 21.5527C49.4672 21.5192 49.7391 21.5822 50.0188 21.7891C52.7965 23.8497 55.592 25.8848 58.3618 27.9553C59.6423 28.9127 59.6995 30.4513 58.551 31.4836C56.4549 30.0021 54.475 28.369 52.4262 26.8245C52.1149 26.5881 51.8233 26.3221 51.4786 26.133C50.4463 25.5696 49.4633 26.1645 49.4869 27.3426C49.4908 27.5415 49.4967 27.7307 49.4042 27.9119C48.9491 28.8142 49.022 29.1432 49.8395 29.7775C50.862 30.5714 51.8391 31.4402 52.9285 32.1278C53.9805 32.7916 54.1224 34.6888 53.1019 35.4137C52.7749 35.5122 52.6133 35.2443 52.4084 35.0926C50.6177 33.7609 48.8762 32.3622 47.0854 31.0285C46.849 30.8531 46.6146 30.6739 46.329 30.5793C45.5449 30.3153 44.8022 30.7665 44.7214 31.5821C44.6899 31.9012 44.6584 32.2125 44.55 32.5158C44.1462 33.3984 44.225 33.751 44.9874 34.3421C45.8956 35.0473 46.8136 35.7408 47.7218 36.446C48.8368 37.3128 48.8604 38.749 47.7828 39.7222C47.0973 39.5173 46.6383 38.9755 46.1004 38.5638C44.8514 37.6103 43.5926 36.6686 42.3732 35.6797C42.1624 35.5103 41.9437 35.3487 41.6896 35.2483C40.7341 34.872 39.8673 35.4689 39.8811 36.4933C39.8831 36.6864 39.954 36.8834 39.8279 37.0646L39.8259 37.0607Z" fill="#F0AEA1"/>
  <path d="M26.2466 18.5543C26.9932 17.7289 28.0039 17.2462 28.8588 16.5567C30.3029 15.3905 31.741 14.2242 33.1259 12.9851C34.2035 12.0178 35.1964 10.9678 36.2563 9.98671C37.5013 8.83819 38.9985 8.63527 40.6179 8.90123C43.3306 9.34645 46.0512 9.76015 48.7659 10.1896C50.0169 10.3866 51.2777 10.5324 52.5129 10.7964C54.1027 11.1352 55.5625 10.7353 57.0203 10.1995C57.7078 9.94534 58.3973 9.69908 59.0868 9.45086C60.6687 13.4323 62.2507 17.4137 63.8287 21.3951C64.0631 21.9841 64.5536 22.6598 64.4177 23.1583C64.266 23.7118 63.411 23.9285 62.8633 24.293C62.0694 24.8249 61.2341 25.2997 60.456 25.8532C59.995 26.1822 59.6857 26.2059 59.1991 25.8375C56.4588 23.767 53.6771 21.7477 50.9211 19.6969C50.4601 19.3522 50.009 19.2123 49.4239 19.295C45.0268 19.9077 41.3074 18.5228 38.179 15.4279C36.9182 14.1789 35.6554 14.1592 34.2843 15.3353C32.5625 16.8128 30.7717 18.1899 28.4786 18.6587C27.7399 18.8104 26.9755 18.8853 26.2446 18.5563L26.2466 18.5543Z" fill="#FEDDCE"/>
  <path d="M62.7924 3.38904C64.1084 6.7558 65.4204 10.1265 66.7423 13.4913C67.9302 16.5172 69.126 19.5393 70.3179 22.5632C69.4156 22.9375 68.5114 23.304 67.615 23.6921C67.1009 23.9127 67.0477 23.5207 66.9236 23.2114C65.6489 19.9805 64.3724 16.7497 63.0997 13.5189C62.0064 10.7431 60.9347 7.95751 59.8098 5.19358C59.601 4.68137 59.7271 4.51786 60.1841 4.36026C61.0608 4.05687 61.9236 3.71606 62.7924 3.39101V3.38904Z" fill="#AD5E2E"/>
  <path d="M12.6869 3.39294C13.6483 3.75149 14.6097 4.10806 15.571 4.4666C16.0399 4.64194 15.7602 4.92365 15.6636 5.16596C14.3575 8.49332 13.0494 11.8207 11.7393 15.1461C10.6716 17.8568 9.594 20.5636 8.54003 23.2803C8.37652 23.7019 8.23074 23.8693 7.75597 23.6428C7.00539 23.2862 6.21935 23.0065 5.44907 22.6952C5.05507 22.4805 5.18903 22.1633 5.30132 21.8638C5.60274 21.062 5.914 20.2622 6.2292 19.4663C8.29772 14.2537 10.3406 9.02917 12.417 3.82044C12.4801 3.66087 12.5313 3.49538 12.6869 3.39491V3.39294Z" fill="#DAECFE"/>
  <path d="M12.6869 3.39297C12.3855 4.78578 11.7216 6.04659 11.2074 7.36256C9.2906 12.2738 7.34816 17.1752 5.40375 22.0747C5.30919 22.313 5.3348 22.4962 5.44906 22.6952C4.55862 22.3564 3.67802 21.9919 2.77772 21.6866C2.299 21.525 2.23202 21.328 2.41917 20.8592C4.01095 16.8817 5.57515 12.8924 7.14722 8.90706C7.9569 6.85824 8.77446 4.81139 9.56837 2.75666C9.72598 2.35083 9.86388 2.16171 10.3347 2.39023C11.101 2.7606 11.9009 3.06201 12.6869 3.39494V3.39297Z" fill="#B4DBFE"/>
  <path d="M49.4022 27.908C49.4376 27.5652 49.1874 27.2716 49.282 26.9033C49.5716 25.7666 50.7812 25.3312 51.7622 26.0719C53.9017 27.6893 56.0195 29.3303 58.1431 30.9674C58.3145 31.0994 58.482 31.255 58.549 31.4776C57.6014 32.1987 56.7287 32.2282 55.7338 31.4875C54.2031 30.3488 52.6882 29.1885 51.187 28.0104C50.5921 27.5435 50.0286 27.4115 49.4022 27.906V27.908Z" fill="#E89B8B"/>
  <path d="M11.763 21.2335C12.9076 21.7832 13.8217 22.6657 14.8638 23.3631C15.971 24.1038 17.0446 24.8938 18.1321 25.6641C18.1242 25.6877 18.1222 25.7153 18.1084 25.733C17.6593 26.2492 17.2948 27.0273 16.7373 27.2086C16.1896 27.3859 15.6518 26.6077 15.0963 26.2748C13.8571 25.5321 12.6692 24.7027 11.4123 23.9935C10.8371 23.6685 10.8135 23.3552 11.0676 22.8411C11.3257 22.319 11.5325 21.7713 11.761 21.2355L11.763 21.2335Z" fill="#E89B8B"/>
  <path d="M44.55 32.5099C44.5401 32.3149 44.5323 32.1179 44.5204 31.9229C44.485 31.3279 44.5756 30.8079 45.1804 30.4926C45.8561 30.14 46.4392 30.2917 47.0066 30.7291C49.0357 32.2932 51.0688 33.8496 53.0999 35.4098C52.2075 36.1959 51.1909 36.253 50.1724 35.5044C48.8722 34.5489 47.5917 33.5698 46.327 32.5671C45.7222 32.0884 45.1587 32.0017 44.55 32.5099Z" fill="#E89B8B"/>
  <path d="M39.8259 37.0606C39.5935 36.2391 39.755 35.4787 40.3046 35.1615C40.9606 34.7852 41.6108 34.8542 42.2136 35.3349C44.0595 36.8084 46.0059 38.154 47.7828 39.7162C46.8963 40.4412 45.9409 40.4943 44.9598 39.7871C43.8054 38.9558 42.6765 38.0889 41.5654 37.2024C40.9922 36.7434 40.4425 36.6489 39.8239 37.0586L39.8259 37.0606Z" fill="#E89B8B"/>
  <path d="M26.9577 30.3861C27.8423 31.1052 28.0097 32.0666 27.3163 32.9353C26.4199 34.0582 25.4664 35.1398 24.5248 36.2253C24.2864 36.4991 24.0007 36.7414 23.5949 36.7335C22.9074 36.1327 23.0551 35.3703 23.2383 34.6374C23.4472 33.8041 24.0421 33.1954 24.5799 32.5571C25.1 31.9385 25.6122 31.314 26.1638 30.723C26.3648 30.5063 26.5696 30.2029 26.9597 30.3881L26.9577 30.3861Z" fill="#FEDDCE"/>
  <path d="M31.2544 34.0662C32.2512 34.7202 32.5112 35.788 31.7981 36.6863C30.8879 37.8348 29.9108 38.9302 28.9494 40.0353C28.7091 40.3112 28.4096 40.5318 28.0117 40.5357C27.4128 39.8994 27.4502 39.1607 27.6788 38.4002C27.927 37.5768 28.4944 36.9621 29.0479 36.3297C29.5976 35.7033 30.1334 35.063 30.6752 34.4287C30.8269 34.2514 30.9431 33.9953 31.2544 34.0662Z" fill="#FEDDCE"/>
  <path d="M22.4109 26.5467C23.2718 27.1712 23.5792 28.0912 23.0217 28.8871C22.0642 30.2503 20.9472 31.4934 19.7908 32.6951C19.6805 32.8094 19.5249 32.9197 19.3338 32.8961C18.9004 33.0478 18.8216 32.7069 18.7684 32.4371C18.6009 31.6037 18.6049 30.7822 19.119 30.0454C19.9169 28.9028 20.896 27.9099 21.7865 26.8422C21.9381 26.659 22.1253 26.4797 22.4109 26.5467Z" fill="#FEDDCE"/>
  <path d="M35.8091 37.9037C36.6739 38.5479 36.9379 39.5763 36.3114 40.3781C35.3658 41.5896 34.3315 42.7342 33.3249 43.8965C33.1495 44.0975 32.9249 44.259 32.6334 44.2649C32.2197 44.2925 32.1941 43.9615 32.1212 43.6917C31.8395 42.6613 32.1369 41.7472 32.787 40.9632C33.579 40.0077 34.3631 39.0424 35.2043 38.1283C35.3619 37.9569 35.5116 37.7205 35.8091 37.9037Z" fill="#FEDDCE"/>
  <path d="M22.4109 26.5467C21.1895 27.707 20.0942 28.9836 19.1427 30.3685C18.6186 31.1289 18.7802 32.4528 19.3337 32.8941C18.4827 33.1758 17.74 32.9689 17.2613 32.3149C16.8082 31.6963 16.7609 30.8137 17.2613 30.1952C18.2148 29.0151 19.1939 27.8567 20.2163 26.7378C20.8034 26.0955 21.5993 26.0758 22.4089 26.5467H22.4109Z" fill="#FECDBD"/>
  <path d="M26.9578 30.3861C26.0713 30.7191 25.7442 31.6253 25.102 32.2124C24.6922 32.5867 24.4046 33.089 24.0481 33.5224C23.2364 34.5035 23.0473 35.5653 23.5949 36.7336C22.8069 37.0231 22.214 36.6764 21.7352 36.1051C21.2546 35.5318 21.1935 34.6591 21.6683 34.0602C22.6415 32.8388 23.6501 31.643 24.706 30.4945C25.3049 29.8424 26.154 29.8602 26.9578 30.3881V30.3861Z" fill="#FECDBD"/>
  <path d="M35.809 37.9037C35.3343 37.9451 35.2397 38.412 34.9915 38.6839C34.1877 39.5664 33.3997 40.4726 32.6944 41.432C32.0049 42.3678 32.0345 43.5084 32.6334 44.2649C31.7882 44.4994 31.0967 44.2846 30.6318 43.6424C30.1649 42.9962 30.1255 42.1747 30.6495 41.5246C31.5873 40.3603 32.5526 39.2177 33.5573 38.1106C34.17 37.4349 34.9816 37.4053 35.811 37.9037H35.809Z" fill="#FECDBD"/>
  <path d="M31.2544 34.0662C30.3304 35.128 29.3829 36.1682 28.4924 37.2576C27.6946 38.2348 27.466 39.3399 28.0117 40.5357C27.0976 40.6618 26.4692 40.3939 26.0693 39.7083C25.6674 39.0169 25.7206 38.2801 26.288 37.5925C27.1607 36.5346 28.0511 35.4866 28.9613 34.4602C29.635 33.6998 30.3482 33.5993 31.2524 34.0662H31.2544Z" fill="#FECDBD"/>
  <path d="M38.766 40.3959C39.82 41.3927 40.9784 42.2398 42.2668 42.9076C41.4807 43.9872 40.3243 44.2414 39.2093 43.5794C39.1265 43.5302 39.0438 43.477 38.967 43.4179C38.5552 43.1145 37.9997 42.8919 37.7731 42.4841C37.4875 41.9739 38.2735 41.7335 38.3937 41.2568C38.4686 40.9573 38.6399 40.6815 38.768 40.3959H38.766Z" fill="#E79B8B"/>
</svg>