<svg xmlns="http://www.w3.org/2000/svg" width="55" height="55" viewBox="0 0 55 55" fill="none">
  <path d="M48.0138 9.79212C48.1301 9.23215 48.4661 8.97514 49.0447 9.00529C49.4553 9.02683 49.8673 9.00529 50.2794 9.0096C51.8185 9.02396 52.8609 10.0649 52.8623 11.617C52.868 16.6826 52.8652 21.7481 52.8652 26.8122C52.8652 28.0829 52.8723 29.3536 52.8623 30.6243C52.8508 32.1347 51.8099 33.1872 50.2952 33.1929C47.1093 33.2044 43.9234 33.203 40.7375 33.1872C40.3714 33.1858 40.1546 33.2934 39.9651 33.6007C39.6851 34.0573 39.3693 34.4923 39.0448 34.9188C38.9084 35.0983 38.9113 35.2002 39.0749 35.3581C39.642 35.9052 40.1962 36.4637 40.7447 37.028C40.9069 37.196 41.0046 37.2304 41.2041 37.0481C42.7432 35.6395 43.1826 35.6553 44.6585 37.1328C45.2529 37.7272 45.8487 38.3216 46.4417 38.9175C46.9715 39.4502 47.1567 40.0776 46.8509 40.7769C46.7159 41.0856 46.9011 41.1976 47.0576 41.3555C49.1452 43.4446 51.2169 45.5495 53.3318 47.6113C54.1142 48.3752 54.6914 49.2295 55.0001 50.2719V51.7766C54.7862 53.3302 53.4452 54.8808 51.563 55H50.166C48.6312 54.5563 47.6678 53.3589 46.6025 52.2978C44.8538 50.5547 43.1079 48.8088 41.3664 47.0571C41.1625 46.8518 41.0132 46.757 40.6873 46.8862C40.1015 47.1188 39.51 47.0011 39.0462 46.5531C38.1848 45.7189 37.332 44.8761 36.5035 44.0103C35.846 43.3226 35.8977 42.3678 36.5825 41.657C37.0266 41.1966 37.0266 40.7439 36.5825 40.2988C36.2035 39.9197 35.8101 39.5521 35.4483 39.1558C35.243 38.9304 35.1109 38.8945 34.8453 39.097C31.9752 41.2737 28.7592 42.6506 25.2014 43.2264C21.9524 43.7519 18.7536 43.5265 15.5949 42.6262C15.0824 42.4797 14.7952 42.1739 14.8541 41.6125C14.9603 41.0827 15.1628 40.9061 15.6768 40.8975C15.8577 40.8946 16.0328 40.9205 16.2066 40.9707C18.2697 41.5666 20.3774 41.8351 22.5195 41.7432C25.0277 41.6355 27.444 41.0928 29.7455 40.0733C33.9709 38.2025 37.1812 35.2117 39.3879 31.1742C40.6873 28.7965 41.4209 26.2278 41.6679 23.5113C41.9608 20.2864 41.4654 17.198 40.2709 14.2101C39.3563 11.9257 38.0268 9.90985 36.3427 8.10935C33.0133 4.55285 28.9214 2.50539 24.116 1.89086C20.4635 1.42422 16.9431 1.99568 13.5892 3.50902C9.30499 5.44162 6.09325 8.53722 3.93104 12.6881C2.74655 14.9596 2.07032 17.4005 1.84491 19.9706C1.50608 23.8372 2.21103 27.4928 3.98129 30.933C5.77882 34.4292 8.41196 37.1471 11.8233 39.107C12.1492 39.2937 12.4923 39.4574 12.7694 39.7158C13.1398 40.0604 13.1743 40.349 12.9116 40.7266C12.4406 41.255 12.1851 41.311 11.5648 40.9664C5.08249 37.3654 1.21319 31.9208 0.200998 24.5652C-1.32806 13.4506 6.02003 2.86003 17.0264 0.556995C25.9078 -1.30094 33.2616 1.52186 39.0031 8.53579C39.2759 8.86889 39.5214 9.03114 39.968 9.02252C41.6147 8.99094 43.2615 9.01965 44.9098 9.00386C45.4496 8.99955 45.8085 9.1819 45.9248 9.73469C46.0009 10.2846 45.7468 10.6349 45.1768 10.7527C44.894 10.8101 44.6054 10.79 44.3197 10.7914C43.2989 10.7929 42.2795 10.7843 41.2587 10.7957C40.8064 10.8015 40.8136 10.8403 40.9773 11.261C41.217 11.874 41.6033 12.1311 42.2881 12.0937C43.3592 12.0363 44.4345 12.0722 45.5085 12.0808C46.4876 12.0894 47.0016 12.4297 47.3476 13.3414C47.5745 13.9387 47.9636 14.3221 48.5637 14.5332C49.3835 14.8218 49.7884 15.4176 49.7884 16.292C49.7884 19.4968 49.7884 22.7 49.7884 25.9048C49.7884 26.7777 49.3936 27.3808 48.5737 27.6694C47.9535 27.8876 47.5486 28.2825 47.3318 28.9056C47.0447 29.7283 46.4446 30.1275 45.5731 30.1289C44.5882 30.1289 43.6047 30.1232 42.6198 30.1318C42.0828 30.1361 41.5315 30.6918 41.5171 31.2187C41.5142 31.3307 41.5631 31.3853 41.6607 31.4025C41.7842 31.4255 41.9105 31.4168 42.0354 31.4168C44.6485 31.4168 47.2615 31.4197 49.8745 31.4168C50.8781 31.4168 51.0734 31.2216 51.0734 30.2251C51.0762 24.1215 51.0762 18.0179 51.0734 11.9128C51.0734 11.0097 50.8652 10.8072 49.9678 10.7929C49.5745 10.7857 49.1782 10.8216 48.7877 10.7656C48.1976 10.6823 47.942 10.3535 48.0081 9.79355L48.0138 9.79212Z" fill="black"/>
  <path d="M12.9073 40.7281C13.025 40.072 12.9159 39.8839 12.2425 39.512C7.46872 36.8816 4.18089 32.9992 2.53985 27.7929C-0.95473 16.7114 5.67549 4.95639 16.946 2.18384C28.1088 -0.561427 39.3348 6.63198 41.5358 17.939C43.6822 28.9631 36.3054 39.6326 25.1886 41.5882C22.1405 42.1252 19.1355 41.9414 16.1607 41.1101C15.4213 40.9033 15.1614 41.0024 14.8513 41.6126C14.2511 41.2091 13.5203 41.0943 12.9058 40.7267L12.9073 40.7281Z" fill="#61A1F8"/>
  <path d="M48.0138 9.79227C48.2018 10.4556 48.4 10.615 49.0633 10.6207C49.4394 10.625 49.8156 10.6179 50.1903 10.6222C50.9498 10.6308 51.2499 10.9323 51.2513 11.7076C51.2542 14.0336 51.2528 16.3611 51.2528 18.6871C51.2528 22.5882 51.2528 26.4907 51.2528 30.3918C51.2528 31.305 50.9785 31.5835 50.0798 31.585C47.27 31.5864 44.4603 31.585 41.6506 31.585C41.5127 31.585 41.3735 31.5735 41.1883 31.5634C41.4051 31.0738 41.6147 30.623 41.8042 30.165C41.909 29.9123 42.1143 29.9697 42.3024 29.9697C43.4122 29.9668 44.522 29.9711 45.6319 29.9668C46.4603 29.964 46.937 29.6308 47.181 28.8368C47.3949 28.1433 47.8285 27.7169 48.5206 27.5044C49.2872 27.2689 49.639 26.7908 49.6404 26.0026C49.6462 22.7275 49.6462 19.4524 49.6404 16.1773C49.639 15.4178 49.2829 14.9238 48.5507 14.707C47.8357 14.4945 47.3921 14.0595 47.1738 13.3445C46.9413 12.5806 46.4589 12.2389 45.6649 12.2346C44.3584 12.226 43.0519 12.2231 41.7453 12.2374C41.4438 12.2403 41.2543 12.1728 41.1251 11.8742C40.9485 11.4707 40.7145 11.0917 40.4618 10.6193C41.4697 10.6193 42.4058 10.6193 43.3433 10.6193C43.8616 10.6193 44.3813 10.6222 44.8996 10.6193C45.5902 10.6135 45.8228 10.4097 45.9276 9.7334C46.6211 9.86549 47.3203 9.76355 48.0166 9.79083L48.0138 9.79227Z" fill="#B6E345"/>
  <path d="M45.7611 27.9264C45.7597 28.2595 45.6046 28.3786 45.2615 28.3672C44.4575 28.3427 43.652 28.3471 42.848 28.3657C42.5307 28.3729 42.4962 28.281 42.5809 27.9967C43.4912 24.9758 43.731 21.9017 43.2974 18.7745C43.0964 17.32 42.7561 15.9015 42.2637 14.5188C42.1919 14.3192 42.1258 14.1167 42.0339 13.8454C43.2112 13.8454 44.3455 13.8396 45.4783 13.8483C45.7582 13.8497 45.7195 14.101 45.7597 14.2819C45.8228 14.6882 45.8286 15.0974 45.8286 15.508C45.8257 19.2555 45.8257 23.0044 45.8286 26.7519C45.8286 27.1453 45.8185 27.5358 45.7597 27.9249L45.7611 27.9264Z" fill="#E3F5FE"/>
  <path d="M50.0584 53.1751C49.7225 53.1148 49.4885 52.8923 49.2616 52.664C47.0133 50.4184 44.7692 48.1656 42.5122 45.9286C42.2653 45.6845 42.2509 45.5481 42.5108 45.3069C43.2143 44.6507 43.8905 43.963 44.5783 43.2896C44.8166 43.2293 44.9386 43.4116 45.0707 43.5437C46.752 45.2193 48.4332 46.8949 50.1058 48.5777C51.2515 49.7306 51.3721 51.5656 50.5236 52.8119C50.4116 52.977 50.3413 53.2196 50.057 53.1751H50.0584Z" fill="#3D6B73"/>
  <path d="M45.7611 27.9265C45.5874 27.7671 45.6578 27.5575 45.6578 27.3708C45.6535 23.1941 45.6535 19.0159 45.6578 14.8391C45.6578 14.651 45.5874 14.4414 45.7611 14.2834C46.2177 15.1449 46.8293 15.8413 47.7941 16.1414C48.0167 16.2103 48.0325 16.3539 48.0325 16.5463C48.0282 19.5859 48.0282 22.6241 48.0325 25.6637C48.0325 25.8589 48.0124 25.9982 47.7913 26.0657C46.825 26.3658 46.2148 27.0636 45.7611 27.9265Z" fill="#D2EEFA"/>
  <path d="M50.0583 53.1752C51.2069 52.0079 51.3347 50.1069 50.1602 48.8577C48.3613 46.9438 46.4446 45.139 44.5767 43.2882C45.2199 42.5234 45.8846 42.4842 46.5709 43.1705C48.6197 45.2208 50.6742 47.2654 52.7158 49.3229C53.5155 50.1284 53.616 51.4235 52.9814 52.3266C52.298 53.2987 51.1509 53.6318 50.0583 53.1738V53.1752Z" fill="#2E5459"/>
  <path d="M43.9391 41.5752C42.7475 42.7813 41.5529 43.983 40.3685 45.1948C40.1976 45.37 40.0957 45.3399 39.9392 45.1819C39.2514 44.4812 38.5566 43.7863 37.8545 43.0986C37.6951 42.9421 37.6678 42.8401 37.8416 42.6693C39.0519 41.4833 40.255 40.2887 41.4596 39.097C41.6261 39.0352 41.7324 39.1458 41.8315 39.242C42.4933 39.8881 43.1466 40.5414 43.7927 41.2033C43.8889 41.3024 43.9994 41.4086 43.9377 41.5752H43.9391Z" fill="#FEDF7C"/>
  <path d="M43.9393 41.5753C43.1582 40.7038 42.3327 39.8768 41.4612 39.0971C41.8704 38.675 42.2853 38.2572 42.6873 37.8264C42.8352 37.6685 42.9342 37.6843 43.0778 37.8322C43.7813 38.5472 44.4906 39.2551 45.2041 39.9586C45.3506 40.1022 45.3678 40.2027 45.2099 40.3491C44.7806 40.7512 44.3614 41.1661 43.9393 41.5753Z" fill="#FECF64"/>
  <path d="M38.3928 39.8134C38.3096 39.7388 38.2406 39.6828 38.1775 39.6196C37.6592 39.1013 37.1452 38.5786 36.6197 38.0675C36.4618 37.9139 36.4201 37.809 36.6025 37.6382C36.9557 37.3094 37.2945 36.9662 37.6262 36.6144C37.7798 36.4522 37.886 36.4278 38.0554 36.603C38.5766 37.1443 39.1107 37.6712 39.6477 38.1967C39.7869 38.3331 39.8257 38.4307 39.662 38.5844C39.2973 38.9275 38.9513 39.2894 38.5967 39.6426C38.5364 39.7014 38.4661 39.7502 38.3928 39.8106V39.8134Z" fill="#3D6A72"/>
  <path d="M40.2824 21.7798C40.2694 31.9942 31.9278 40.3032 21.7068 40.2816C11.4959 40.2601 3.18729 31.9051 3.22031 21.6922C3.25333 11.4951 11.5748 3.20618 21.7686 3.21766C31.9881 3.22915 40.2967 11.5583 40.2824 21.7812V21.7798Z" fill="black"/>
  <path d="M37.3277 15.1692C32.5855 11.4534 27.2446 13.3443 24.8914 16.3279C22.2396 19.6935 22.386 24.4618 25.2632 27.5962C28.0773 30.6616 33.1828 31.6236 37.3191 28.304C36.8625 29.49 36.2567 30.485 35.602 31.457C35.4857 31.6293 35.3234 31.5863 35.1698 31.5863C28.5812 31.5877 21.9926 31.5863 15.4041 31.5934C15.1198 31.5934 15.0092 31.5016 14.926 31.2331C14.4967 29.8303 13.5577 28.9114 12.1636 28.4806C11.8765 28.3916 11.8133 28.2638 11.8147 27.9953C11.8205 23.8415 11.8219 19.6877 11.8147 15.5339C11.8147 15.2396 11.8836 15.1075 12.1894 15.0127C13.5433 14.592 14.4723 13.6961 14.9015 12.345C15.0236 11.9616 15.2002 11.9114 15.5405 11.9114C21.2159 11.92 26.8914 11.9171 32.5668 11.9171C33.4268 11.9171 34.2854 11.9157 35.1454 11.9186C35.3163 11.9186 35.4928 11.8755 35.6221 12.0664C36.2696 13.0256 36.8467 14.0206 37.3277 15.1707V15.1692Z" fill="#E3F5FE"/>
  <path d="M34.1863 10.3048C33.8016 10.3048 33.5359 10.3048 33.2689 10.3048C27.325 10.3048 21.3825 10.3048 15.4385 10.3048C14.2325 10.3048 13.7759 10.6394 13.4012 11.7866C13.127 12.6251 12.58 13.1879 11.7358 13.4693C10.524 13.8728 10.2096 14.3165 10.2096 15.5915C10.2096 19.7266 10.2096 23.8617 10.2096 27.9983C10.2096 29.1527 10.5685 29.6509 11.6697 30.0041C12.5742 30.2941 13.1543 30.8857 13.4271 31.7989C13.7242 32.7953 14.2713 33.1974 15.315 33.1974C21.3839 33.2002 27.4527 33.1988 33.5216 33.1988C33.6996 33.1988 33.8776 33.1988 34.2251 33.1988C33.3493 33.9138 32.9057 34.8442 31.6034 34.8313C24.9086 34.7681 18.2138 34.7997 11.5175 34.8098C11.1514 34.8098 10.8844 34.7121 10.6087 34.4752C8.61304 32.7566 8.59006 32.7221 8.59006 30.1276C8.59006 23.9694 8.59294 17.8112 8.58289 11.6516C8.58289 11.2898 8.63601 10.9883 8.91454 10.7413C9.03371 10.6351 9.12272 10.4972 9.23327 10.378C10.2737 9.25524 11.5544 8.69384 13.0753 8.69384C19.3236 8.69384 25.5705 8.70102 31.8188 8.68092C32.3486 8.67948 32.7434 8.82019 33.0909 9.19638C33.4168 9.54671 33.7642 9.87838 34.1849 10.3034L34.1863 10.3048Z" fill="#B6E345"/>
  <path d="M31.7999 28.7679C27.9435 28.9603 24.5911 25.678 24.5983 21.7223C24.6069 17.7954 27.9608 14.5404 31.7999 14.7314C32.8078 14.8692 33.5113 15.5369 34.156 16.2117C35.2643 17.3718 36.0095 18.756 36.2564 20.3641C36.7575 23.6363 35.5027 26.5869 32.7934 28.4204C32.4948 28.6214 32.1617 28.7434 31.7985 28.7693L31.7999 28.7679Z" fill="#FEDF7D"/>
  <path d="M31.8 28.7679C33.019 28.2683 33.968 27.4398 34.7246 26.373C36.5164 23.846 36.6902 21.1438 35.4784 18.3598C34.8137 16.8335 33.6435 15.7021 32.1977 14.8679C32.0728 14.7961 31.9049 14.8607 31.8029 14.73C34.917 14.6755 37.8273 17.0891 38.5308 20.3096C39.4367 24.4634 36.2609 28.5928 32.0154 28.7794C31.9451 28.7823 31.8733 28.7708 31.8015 28.7665L31.8 28.7679Z" fill="#FECF64"/>
  <path d="M30.0686 7.06846H13.4858C17.9424 4.22556 24.9889 3.97142 30.0686 7.06846Z" fill="#E3F5FE"/>
  <path d="M13.4742 36.4379H29.9837C26.9601 39.3267 17.368 39.3454 13.4742 36.4379Z" fill="#E3F5FE"/>
  <path d="M6.93752 29.7916C4.14215 24.436 4.14071 19.0661 6.93752 13.6947V29.7916Z" fill="#E3F5FE"/>
  <path d="M20.511 21.7454C20.4966 22.1574 20.343 22.5106 20.0559 22.8007C19.5534 23.3104 19.0566 23.8244 18.5383 24.3169C17.8606 24.9587 17.0695 24.9515 16.3962 24.304C15.8937 23.8201 15.3998 23.3276 14.9174 22.8251C14.2742 22.1546 14.2713 21.3491 14.9102 20.6814C15.3926 20.1775 15.8865 19.685 16.389 19.2025C17.0667 18.5521 17.8578 18.5392 18.5325 19.1767C19.0523 19.6677 19.549 20.1832 20.0516 20.6929C20.3387 20.9829 20.4966 21.3347 20.5124 21.7454H20.511Z" fill="black"/>
  <path d="M34.617 20.4472C34.6313 20.6569 34.5007 20.8478 34.3614 21.0374C33.6651 21.9893 32.9731 22.9441 32.2724 23.8932C31.8388 24.4804 31.4426 24.5364 30.8755 24.087C30.1332 23.4983 29.3952 22.9025 28.6659 22.2994C28.2021 21.9161 28.1318 21.4767 28.4448 21.0905C28.7491 20.7157 29.2215 20.6956 29.6781 21.0532C30.1289 21.4064 30.5797 21.7596 31.0104 22.1357C31.2602 22.354 31.4038 22.3971 31.6206 22.0726C32.1073 21.3461 32.6414 20.6511 33.164 19.9476C33.4052 19.6216 33.7369 19.5197 34.1145 19.6604C34.449 19.7839 34.6184 20.0438 34.617 20.4487V20.4472Z" fill="black"/>
  <path d="M18.808 21.7439C18.7477 21.8143 18.6975 21.8832 18.6372 21.942C18.2538 22.3154 17.8762 22.9744 17.4829 22.983C17.0392 22.9945 16.7033 22.2924 16.2912 21.9306C16.1232 21.7841 16.1605 21.6908 16.3027 21.5558C16.6918 21.1882 17.0636 20.5149 17.4527 20.5077C17.9007 20.4976 18.2424 21.1969 18.6487 21.5687C18.7004 21.6161 18.7449 21.6736 18.808 21.7439Z" fill="#FEDF7C"/>
</svg>