<svg xmlns="http://www.w3.org/2000/svg" width="52" height="55" viewBox="0 0 52 55" fill="none">
  <path d="M46.5831 47.6158C45.4319 46.8377 44.1787 46.2951 42.825 45.9836C42.67 45.9477 42.4719 45.9664 42.3986 45.8013C41.935 44.7505 40.9488 44.6156 39.9985 44.3299C37.9314 43.7097 35.6719 43.6911 33.8244 42.3963C33.4554 42.1364 32.7851 42.3604 32.6803 41.7517C32.5999 41.2823 32.676 40.7885 32.6587 40.3062C32.6501 40.0607 32.7865 40.0162 32.976 39.9688C33.7138 39.7822 34.2579 39.3329 34.5751 38.6525C34.7029 38.3797 34.8579 38.3438 35.1091 38.3481C35.824 38.3596 36.5404 38.3553 37.2567 38.351C39.3855 38.341 40.9301 36.7978 40.9488 34.6589C40.956 33.8536 40.9631 33.0483 40.943 32.2444C40.9359 31.9443 41.0134 31.8367 41.3263 31.7563C43.0231 31.3256 44.1744 30.061 44.2993 28.3125C44.404 26.854 44.3696 25.3798 44.315 23.9156C44.2705 22.7471 43.7006 21.7953 42.7604 21.1034C42.4862 20.901 42.4288 20.6957 42.4302 20.3914C42.4403 18.3343 42.4345 16.2758 42.4345 14.2187C42.4345 13.3761 42.3355 12.5435 42.1647 11.7181C41.5718 8.87291 39.9899 6.61199 37.9084 4.68123C34.3426 1.37383 30.0863 -0.117663 25.2343 0.00722566C20.7799 0.122066 16.9098 1.65949 13.6268 4.67836C13.2349 5.03867 13.0756 5.41334 13.3498 5.90428C13.7503 6.50432 14.2326 6.51437 14.8613 5.94017C18.9339 2.2179 23.75 1.11974 29.0657 2.07292C32.6358 2.71315 35.6044 4.50179 37.9629 7.2838C39.4099 8.99062 40.3818 10.8955 40.6157 13.155C40.7191 14.157 40.6717 15.1561 40.6861 16.1567C40.7033 17.3194 40.6904 18.4822 40.689 19.6464C40.689 19.9206 40.6473 20.1531 40.2928 20.1517C39.9296 20.1502 39.9124 19.9019 39.9095 19.6363C39.9052 19.3148 39.9267 18.9918 39.8937 18.6702C39.8363 18.1075 39.5808 17.8362 38.9979 17.6984C38.2802 17.7788 38.0433 18.0171 38.0089 18.7076C37.9916 19.0478 38.0117 19.388 37.9974 19.7282C37.9902 19.9134 37.9601 20.0756 37.7376 20.1416C37.1734 20.3096 36.7054 20.0612 36.5418 19.4827C36.269 18.5181 36.015 17.5477 35.7896 16.5715C35.646 15.9499 35.4149 15.3786 35.0044 14.8848C33.9622 13.8527 32.7592 13.5469 31.3697 14.0766C31.0194 14.2101 30.672 14.3551 30.3232 14.4929C27.9991 15.4131 25.6176 15.6341 23.1715 15.0858C22.2068 14.869 21.2953 14.5015 20.3809 14.1369C18.3439 13.3258 16.4433 14.2848 15.8834 16.4093C15.6423 17.3252 15.4198 18.2482 15.1886 19.1669C15.1456 19.3406 15.1111 19.5172 15.0379 19.6808C14.8628 20.0756 14.3905 20.2636 13.8967 20.1445C13.4775 20.044 13.6038 19.7024 13.601 19.4425C13.5909 17.7974 13.6024 16.1524 13.5938 14.5058C13.5866 13.3373 13.8321 12.2191 14.3661 11.1927C15.8518 8.34177 18.14 6.36651 21.1417 5.254C23.9108 4.22761 26.7373 4.20177 29.5781 4.9712C30.8959 5.34013 32.1204 5.9172 33.2315 6.71104C35.9862 8.67768 37.884 11.1625 38.0261 14.7054C38.0476 15.2422 38.362 15.5078 38.9678 15.604C39.6511 15.4389 39.9238 15.1389 39.8966 14.4427C39.8621 13.5483 39.72 12.6641 39.463 11.8013C38.7711 9.49161 37.3715 7.64555 35.5671 6.12535C31.4314 2.64281 26.6827 1.77146 21.5192 3.13519C18.72 3.87448 16.3744 5.41334 14.4738 7.62402C12.721 9.66243 11.6401 11.9463 11.6831 14.691C11.7061 16.1581 11.6874 17.6266 11.686 19.0937C11.686 19.3435 11.6989 19.5947 11.6731 19.8445C11.6501 20.0655 11.5066 20.1445 11.3013 20.1445C11.1003 20.1445 10.951 20.0785 10.9238 19.8531C10.9037 19.6923 10.9094 19.5315 10.9094 19.3708C10.9094 17.5448 10.9151 15.7203 10.908 13.8943C10.9008 12.2607 11.353 10.7534 12.1382 9.33514C12.2774 9.08536 12.4454 8.84707 12.4856 8.55566C12.5401 8.15802 12.5028 7.79628 12.0478 7.6355C11.4219 7.43309 11.1735 7.51635 10.8405 8.06185C9.77822 9.80455 9.16957 11.6894 9.14086 13.7364C9.11071 15.9543 9.11933 18.1721 9.12794 20.39C9.12794 20.7216 9.05042 20.9398 8.7705 21.1508C7.95083 21.7652 7.41108 22.5906 7.31059 23.6155C7.15268 25.2362 7.1211 26.8741 7.30772 28.4862C7.53884 30.4873 9.14086 31.8309 11.1649 31.8841C11.9875 31.9056 12.8114 31.9042 13.6326 31.8797C13.9555 31.8697 14.0948 31.9788 14.1938 32.2803C14.5958 33.4889 15.2733 34.5311 16.2122 35.3924C17.016 36.1288 17.84 36.8452 18.6654 37.5572C18.8406 37.7079 18.9353 37.8529 18.9324 38.0955C18.9195 39.2941 18.9181 40.4928 18.9324 41.69C18.9353 41.9599 18.8449 42.0604 18.5865 42.1135C18.0568 42.2226 17.5601 42.4408 17.1381 42.7752C16.7892 43.0523 16.3988 43.1844 15.9782 43.2848C14.2082 43.7083 12.4425 44.1404 10.674 44.5682C10.0682 44.7146 9.60166 45.0563 9.30594 45.6003C9.18249 45.8286 9.03463 45.9276 8.78342 45.9865C6.2598 46.5736 4.17832 47.8741 2.55907 49.9011C1.66331 51.0222 1.02738 52.3084 0.273743 53.52C-0.159779 54.2162 -0.0880041 54.5292 0.557973 54.9971H1.09485C1.57 54.9067 1.69202 54.4689 1.93319 54.1459C2.31647 53.4784 2.72128 52.8238 3.11461 52.162C4.37642 50.0418 6.18515 48.6106 8.5279 47.8397C8.96716 47.6947 9.22412 47.788 9.43083 48.2115C9.76674 48.9034 10.239 49.5279 10.539 50.2341C10.9568 51.2232 11.6358 51.8333 12.7124 51.9768C12.8 51.9883 12.8832 52.0299 12.9679 52.0586C13.6326 52.2768 13.6239 52.2725 13.3383 52.8884C13.1215 53.3549 12.843 53.8085 12.8976 54.3583C12.9249 54.7057 13.1574 54.8765 13.4474 54.9957H13.9843C14.4738 54.8966 14.6503 54.489 14.8542 54.11C15.1484 53.5372 15.3781 52.93 15.6896 52.3702C16.1562 51.5304 15.7485 50.916 14.9518 50.6877C14.3159 50.5054 13.6914 50.2829 13.054 50.1078C12.7512 50.0245 12.5071 49.8724 12.3478 49.5795C11.9128 48.7785 11.4506 47.9919 11.0113 47.1937C10.7027 46.6353 10.8046 46.3669 11.4133 46.2075C12.7799 45.8501 14.1536 45.5214 15.5231 45.174C15.9566 45.0634 16.1303 45.2041 16.215 45.6348C16.772 48.4584 17.3807 51.272 17.9448 54.0956C18.0266 54.4976 18.2118 54.822 18.6051 54.9943H19.2497C19.7004 54.8737 19.8253 54.5234 19.8698 54.1157C19.5784 52.5654 19.2468 51.0236 18.9382 49.4661C19.1593 49.6614 19.3502 49.8738 19.554 50.0719C20.734 51.2261 20.8862 51.249 22.3418 50.4853C22.9289 50.1767 23.0811 50.2485 23.249 50.8959C23.3093 51.1313 23.2605 51.3567 23.2059 51.5835C23.0007 52.4347 22.7193 53.2659 22.5657 54.1286C22.5614 54.5866 22.7882 54.8694 23.2232 54.9943H23.76C24.2395 54.888 24.4333 54.5363 24.5295 54.0999C24.6558 53.487 24.8295 52.8855 24.973 52.2783C25.0951 51.7601 25.4683 51.8132 25.8473 51.806C26.2176 51.7974 26.5205 51.8476 26.6124 52.2869C26.7402 52.8984 26.9411 53.4927 27.0746 54.1042C27.1679 54.5406 27.3646 54.888 27.8426 54.9957H28.3795C28.8288 54.8794 29.0054 54.565 29.014 54.1272C28.8374 53.2673 28.6006 52.4233 28.3895 51.572C28.3034 51.2275 28.3178 50.9088 28.4771 50.5829C28.6135 50.3045 28.7542 50.1997 29.0542 50.3748C29.393 50.5729 29.7518 50.7394 30.1122 50.8973C30.5529 51.0897 30.9347 51.0294 31.3022 50.7078C31.7544 50.3102 32.2252 49.9327 32.6602 49.4389C32.3731 51.0509 31.9941 52.5769 31.7214 54.1229C31.7501 54.5449 31.9223 54.8636 32.3544 54.9928H32.8913C33.3708 54.8866 33.5631 54.5349 33.6593 54.0985C34.2206 51.272 34.8063 48.4512 35.3948 45.6305C35.5154 45.0548 35.5211 45.0606 36.1068 45.1941C37.4505 45.4984 38.784 45.8487 40.1205 46.186C40.8067 46.3583 40.9186 46.6195 40.5712 47.2224C40.1693 47.9201 39.7659 48.6177 39.3913 49.3298C39.1458 49.7977 38.797 50.0676 38.296 50.1882C37.6873 50.3346 37.0916 50.537 36.503 50.7452C35.7594 51.0079 35.557 51.4916 35.8413 52.2223C36.0953 52.874 36.447 53.4798 36.7499 54.1085C36.9423 54.4559 37.0744 54.8564 37.5122 54.9943H38.1567C38.4539 54.8737 38.6836 54.6971 38.7108 54.3454C38.7855 53.7683 38.4108 53.3319 38.2299 52.8367C38.0204 52.2639 38.0017 52.2697 38.6003 52.073C38.8716 51.984 39.1372 51.8677 39.4171 51.8189C40.0731 51.7041 40.4708 51.3136 40.7751 50.7337C41.2316 49.8666 41.7082 49.0082 42.2049 48.1613C42.3053 47.9904 42.3886 47.811 42.6011 47.7507C43.1394 47.8038 43.6246 48.022 44.1083 48.2445C44.6725 48.5043 45.2079 48.8216 45.7477 49.1288C46.3032 49.4446 46.7109 49.2967 46.9535 48.7584C47.1904 48.2632 47.0152 47.8986 46.5903 47.6115L46.5831 47.6158ZM34.7531 36.004C36.0236 34.9632 36.9839 33.7043 37.4993 32.131C37.5409 32.0046 37.5753 31.8841 37.7304 31.8826C38.2127 31.8783 38.695 31.8769 39.1774 31.8841C39.4114 31.8884 39.3353 32.0807 39.3367 32.2042C39.3453 32.6678 39.3396 33.1329 39.3396 33.5966H39.3382C39.3382 33.9899 39.3468 34.3833 39.3367 34.7752C39.308 35.8661 38.484 36.7088 37.4017 36.7346C36.6164 36.7533 35.8298 36.726 35.0446 36.7447C34.7833 36.7504 34.6857 36.6442 34.5737 36.4274C34.4416 36.169 34.6326 36.1016 34.7531 36.0025V36.004Z" fill="black"/>
  <path d="M50.5005 55C50.1704 54.7818 50.0168 54.4115 49.7526 54.1358C49.0622 53.2645 48.5282 52.2927 48.0013 51.3208C47.7429 50.8442 47.9554 50.4767 48.4664 50.283C48.9617 50.0604 49.3306 50.2327 49.5962 50.6662C50.2163 51.6783 50.8364 52.6903 51.4379 53.7138C51.7437 54.2335 51.6202 54.5751 51.0374 54.9986H50.5005V55Z" fill="black"/>
  <path d="M13.3498 5.90432C13.8536 6.32492 14.1881 6.35937 14.6173 5.95886C18.3296 2.48781 22.7552 1.16571 27.7407 1.73274C33.0478 2.33565 37.0773 4.98416 39.7315 9.63807C40.4493 10.8956 40.7766 12.3024 40.8053 13.7479C40.8469 15.8036 40.8067 17.8621 40.8368 19.9177C40.844 20.4115 40.5541 20.3053 40.287 20.3053C40.0186 20.3053 39.6899 20.4087 39.7387 19.9163C39.776 19.5445 39.7401 19.1655 39.7473 18.7908C39.7559 18.2525 39.5305 17.9008 38.9793 17.7989C38.9362 17.7688 38.8731 17.7487 38.8616 17.6984C38.6865 16.962 38.6132 16.227 38.9133 15.5021C39.5592 15.3499 39.7573 15.1116 39.7387 14.4642C39.664 11.8042 38.6219 9.54189 36.8533 7.59965C33.4598 3.87308 29.215 2.31555 24.2324 2.78783C19.4521 3.24145 15.7815 5.56267 13.2163 9.60935C12.3076 11.0406 11.854 12.6368 11.831 14.335C11.8066 16.1596 11.798 17.9855 11.831 19.8101C11.8411 20.3383 11.5827 20.2938 11.2195 20.3225C10.7888 20.3555 10.7228 20.1919 10.7271 19.8115C10.7458 17.9511 10.7458 16.0892 10.7343 14.2288C10.7228 12.3397 11.208 10.5927 12.1698 8.97199C12.5244 8.37482 12.4957 8.13222 12.0492 7.63697C12.4842 7.06133 13.067 6.59623 13.3498 5.90575V5.90432Z" fill="#9B9B9B"/>
  <path d="M48.4679 50.2829C47.9654 50.7107 47.9166 50.9978 48.2583 51.5648C48.7693 52.4146 49.3392 53.2286 49.7541 54.1344C48.2827 54.2061 46.8113 54.1817 45.3385 54.1588C45.1117 53.8272 45.2136 53.431 45.1303 53.0692C44.7198 51.2791 43.8427 49.7159 42.8378 48.2072C42.7144 48.022 42.5077 47.867 42.555 47.5985C43.6891 47.811 44.6968 48.3163 45.6557 48.9364C46.2113 49.2953 46.4897 49.2508 46.9462 48.7627C47.4027 49.3211 47.8807 49.8566 48.4679 50.2829Z" fill="#777777"/>
  <path d="M14.7407 24.6262C15.19 24.4913 15.3393 24.1525 15.3422 23.7218C15.3451 23.185 15.3537 22.6481 15.3393 22.1112C15.3336 21.8686 15.4068 21.7265 15.6307 21.6088C16.2523 21.28 16.6026 20.7374 16.7734 20.0642C17.0505 18.9746 17.3304 17.8851 17.616 16.7984C17.8874 15.7677 18.5994 15.3729 19.6014 15.7347C20.7426 16.1467 21.8608 16.6175 23.0566 16.8644C26.1099 17.4975 29.0254 17.0209 31.8433 15.7749C32.2137 15.6112 32.5855 15.5007 32.9831 15.6198C33.497 15.7749 33.843 16.1079 33.9794 16.6419C34.2622 17.7487 34.5564 18.8526 34.8306 19.9608C35.0101 20.69 35.3689 21.2786 36.0451 21.6418C36.1915 21.7207 36.3121 21.7896 36.3078 21.9949C36.2518 24.8731 36.4714 27.7599 36.1958 30.6295C36.012 32.5416 34.8335 33.924 33.3621 35.0695C33.2458 35.1599 33.1353 35.1485 33.0104 35.1226C32.0716 34.9216 31.117 34.9934 30.1767 35.0422C28.3924 35.1327 27.3229 37.0361 28.1239 38.6568C28.3005 39.0128 28.2546 39.1262 27.8871 39.1521C26.4243 39.2526 24.9587 39.3416 23.5045 39.0918C22.8614 38.9813 22.3173 38.6181 21.825 38.1874C20.3995 36.9371 18.9669 35.6954 17.5457 34.4393C16.1002 33.1632 15.3523 31.5611 15.3422 29.6246C15.3393 28.9988 15.3422 28.3714 15.3379 27.7456C15.335 27.3149 15.1814 26.9776 14.7321 26.8441C14.0574 26.4981 14.4421 25.8765 14.3704 25.3813C14.3287 25.0913 14.2814 24.7123 14.7364 24.6233L14.7407 24.6262Z" fill="#FECDBE"/>
  <path d="M34.9182 14.971C33.7626 13.8714 32.4836 13.702 31.0294 14.3609C27.5053 15.9557 23.9811 15.8868 20.4469 14.3307C18.3697 13.4149 16.571 14.348 16.014 16.5443C15.7513 17.5822 15.4858 18.62 15.2073 19.6536C15.0609 20.1962 13.9771 20.5924 13.5148 20.2895C13.4258 20.2307 13.4273 20.1402 13.4301 20.0527C13.4789 17.8377 13.2794 15.6141 13.5378 13.4063C13.7847 11.3061 14.9073 9.63234 16.3614 8.17386C19.3444 5.1837 22.9791 4.01233 27.1507 4.37695C28.0077 4.4516 28.8518 4.58366 29.6671 4.86359C31.0352 5.58565 31.9869 6.73836 32.8497 7.97289C34.1043 9.76727 34.8034 11.7741 35.0417 13.9417C35.079 14.2834 35.1723 14.6537 34.9168 14.9695L34.9182 14.971Z" fill="#D68778"/>
  <path d="M12.9938 54.3698C12.8474 54.1186 12.6033 54.1731 12.3779 54.1731C9.07916 54.1731 5.78036 54.1731 2.48014 54.1717C2.26768 54.1717 2.05523 54.1473 1.84277 54.1344C3.31273 51.1456 5.23057 48.6335 8.63702 47.6732C9.04757 47.5569 9.27008 47.5942 9.47966 48.0048C9.98352 48.9895 10.5549 49.9398 11.0802 50.9131C11.2712 51.2662 11.5181 51.4945 11.9157 51.595C12.4167 51.7213 12.8976 51.9237 13.3986 52.0457C13.756 52.1333 13.8393 52.261 13.6484 52.5898C13.4704 52.897 13.3469 53.2372 13.1775 53.5501C13.0368 53.8099 12.9751 54.0784 12.9923 54.3698H12.9938Z" fill="#828282"/>
  <path d="M34.9183 14.9709C34.9327 12.1042 33.945 9.59208 32.221 7.33977C31.4918 6.38803 30.5903 5.61573 29.6672 4.86353C33.6407 6.17127 36.5821 8.56426 37.874 12.6813C38.0606 13.277 38.1267 13.9058 38.1281 14.5317C38.131 15.0815 38.365 15.4102 38.9148 15.4992C38.942 16.2643 38.8258 17.0352 38.9808 17.7974C38.3061 17.9309 38.1453 18.1219 38.1382 18.8008C38.1353 19.0147 38.1812 19.2401 38.1267 19.4396C38.0477 19.7311 38.4238 20.2134 37.8525 20.2966C36.895 20.4373 36.5921 20.2608 36.4041 19.5545C36.1615 18.6444 35.9059 17.7371 35.6949 16.8184C35.5413 16.1523 35.3246 15.5236 34.9183 14.9695V14.9709Z" fill="#C96E59"/>
  <path d="M36.8591 54.1416C35.7523 54.1416 34.6441 54.1416 33.5374 54.1431C33.6967 52.8482 34.0283 51.5864 34.2838 50.3088C34.6154 48.6451 34.9729 46.9856 35.2973 45.3204C35.3691 44.953 35.4796 44.8783 35.8586 44.9788C37.3257 45.3678 38.8042 45.7095 40.2785 46.0726C40.9776 46.2449 41.1111 46.5263 40.7737 47.1364C40.2914 48.0134 39.7933 48.8819 39.3138 49.759C39.1832 49.9973 39.0081 50.1208 38.7468 50.1954C38.009 50.405 37.2768 50.639 36.5476 50.8773C35.8428 51.107 35.6791 51.5132 35.9763 52.1965C36.2605 52.8497 36.6438 53.4569 36.8605 54.1402L36.8591 54.1416Z" fill="#9B9B9B"/>
  <path d="M18.0568 54.1458C16.9486 54.1429 15.8418 54.1415 14.7336 54.1386C14.9518 53.4553 15.3336 52.8481 15.6178 52.1949C15.9136 51.5145 15.747 51.1068 15.0393 50.8757C14.3101 50.6374 13.578 50.4034 12.8401 50.1938C12.5774 50.1192 12.4052 49.9943 12.2745 49.756C11.7951 48.8775 11.297 48.0104 10.8132 47.1333C10.4873 46.5419 10.6165 46.2404 11.264 46.0825C12.7899 45.7093 14.3187 45.3447 15.8432 44.9686C16.0542 44.9169 16.1935 44.8566 16.2552 45.1681C16.8495 48.1267 17.461 51.0824 18.0668 54.0395C18.074 54.0726 18.0596 54.1099 18.0553 54.1458H18.0568Z" fill="#9B9B9B"/>
  <path d="M42.5536 47.5985C43.7853 49.2723 44.8159 51.0409 45.2724 53.0994C45.3514 53.4583 45.327 53.8057 45.337 54.1588C43.2986 54.1631 41.2588 54.1674 39.2203 54.1732C38.9935 54.1732 38.7481 54.1172 38.5973 54.3655C38.6332 53.6966 38.2069 53.1956 37.9571 52.6329C37.8136 52.3099 37.7647 52.1032 38.2011 52.0486C39.7515 51.8577 40.7205 50.9749 41.2817 49.5422C41.5071 48.9651 41.8746 48.4412 42.1875 47.9C42.2679 47.7622 42.2895 47.5253 42.5522 47.5971L42.5536 47.5985Z" fill="#828282"/>
  <path d="M17.7467 44.4518C17.7568 44.4174 17.7625 44.3427 17.7969 44.2868C18.0869 43.8173 19.3516 43.4728 19.844 43.737C21.3068 44.5207 22.7624 45.3146 24.228 46.0941C24.485 46.2304 24.5654 46.328 24.3472 46.5936C23.5433 47.5741 22.5958 48.3722 21.4805 48.9794C21.2407 49.1101 21.0814 49.1 20.8775 48.9033C20.0521 48.1095 19.208 47.3358 18.374 46.552C18.285 46.4687 18.1702 46.374 18.1443 46.2663C18.0022 45.6763 17.8831 45.082 17.7481 44.4504L17.7467 44.4518Z" fill="#EDF4F5"/>
  <path d="M32.1492 43.5849C32.7966 43.6725 33.2603 43.8863 33.6866 44.1964C33.8459 44.3127 33.8503 44.4405 33.8115 44.6156C33.7024 45.1037 33.6062 45.5932 33.5115 46.0841C33.4713 46.2894 33.355 46.4344 33.2057 46.5722C32.3789 47.3373 31.5477 48.0996 30.7381 48.8833C30.5184 49.0972 30.3505 49.1173 30.0907 48.9738C28.9796 48.3623 28.0293 47.5656 27.2311 46.5794C27.0402 46.3425 27.0747 46.2478 27.3316 46.1114C28.8289 45.3175 30.3189 44.5108 31.809 43.7026C31.9583 43.6222 32.1018 43.5763 32.1477 43.5849H32.1492Z" fill="#EDF4F5"/>
  <path d="M30.9576 42.3059C29.314 43.2031 27.6703 44.0974 26.031 45.0018C25.8487 45.1022 25.708 45.0778 25.54 44.986C23.9567 44.1261 22.3719 43.2691 20.7842 42.4178C20.6062 42.3231 20.5229 42.2126 20.5358 42.003C20.5574 41.647 20.5531 41.2881 20.5588 40.9321C20.754 40.8072 20.8962 40.9508 21.044 41.0369C22.1178 41.657 23.2647 41.9858 24.5122 41.9599C25.3678 41.9427 26.2248 41.9441 27.0803 41.9599C28.2302 41.98 29.3039 41.7116 30.3203 41.1804C30.9748 40.8388 31.0122 40.8632 31.005 41.6211C31.0021 41.8494 31.0595 42.0834 30.9591 42.3059H30.9576Z" fill="#FECDBE"/>
  <path d="M14.7408 24.6261C14.6532 24.7252 14.5125 24.7711 14.5183 24.9563C14.5341 25.4731 14.5326 25.9913 14.5183 26.5081C14.514 26.6875 14.6374 26.7507 14.7351 26.8454C13.9742 26.8454 13.7446 27.065 13.7402 27.823C13.7359 28.5192 13.7331 29.2169 13.7532 29.9131C13.7618 30.1944 13.6699 30.2748 13.39 30.2863C12.2416 30.3308 12.2416 30.3409 12.2416 29.1924C12.2416 26.9244 12.2502 24.6548 12.233 22.3867C12.2301 22.0106 12.3363 21.9044 12.711 21.9087C13.7359 21.9202 13.7374 21.903 13.7374 22.9064C13.7374 23.1561 13.7345 23.4059 13.7374 23.6571C13.7474 24.4194 13.9656 24.6304 14.7365 24.6275L14.7408 24.6261Z" fill="#828282"/>
  <path d="M31.8175 54.1402C30.8514 54.1402 29.8853 54.1402 28.9192 54.1402C28.668 53.1755 28.4096 52.2108 28.167 51.2433C28.0479 50.7682 28.4068 50.4466 28.5948 50.0762C28.6809 49.9068 28.8015 50.0949 28.8948 50.1394C29.3269 50.3504 29.7518 50.5758 30.1839 50.7868C30.5859 50.9835 30.9376 50.9017 31.2591 50.5945C31.773 50.105 32.2984 49.6269 32.9042 49.0642C32.5267 50.8299 32.1735 52.4836 31.8204 54.1373L31.8175 54.1402Z" fill="#DDEBF0"/>
  <path d="M22.6762 54.1416C21.7087 54.1416 20.7412 54.1402 19.7737 54.1388C19.4205 52.4879 19.0688 50.8371 18.6913 49.0657C19.287 49.6169 19.8052 50.0763 20.3005 50.56C20.6522 50.9031 21.0211 50.9907 21.4618 50.7639C21.8724 50.5514 22.2858 50.3433 22.7007 50.1394C22.7954 50.0935 22.9203 49.9126 23.0035 50.0791C23.1887 50.4495 23.5476 50.7711 23.4285 51.2462C23.1859 52.2123 22.9275 53.1755 22.6762 54.1402V54.1416Z" fill="#DDEBF0"/>
  <path d="M30.9576 42.3059C30.9576 41.9843 30.9562 41.6642 30.9562 41.3427C30.9562 41.0986 30.9031 41.0139 30.6461 41.169C29.4374 41.8996 28.1196 42.1867 26.7143 42.1121C25.3864 42.0417 24.0457 42.2628 22.7279 41.9068C21.9484 41.6958 21.2436 41.3427 20.5588 40.9307V39.3229C20.7368 39.2683 20.8029 39.4349 20.9005 39.5153C21.9441 40.3694 23.1284 40.8445 24.4849 40.8302C25.6951 40.8173 26.9095 40.9278 28.1168 40.7469C28.668 40.6637 29.1834 40.4713 29.6786 40.2201C29.8035 40.1569 29.9341 40.0837 30.0691 40.0636C30.9634 39.9272 31.0667 40.0033 31.0481 40.9106C31.0395 41.3742 31.1873 41.8537 30.9562 42.3044L30.9576 42.3059Z" fill="#FEAF9D"/>
  <path d="M10.6352 26.165C10.6352 27.3794 10.6252 28.5939 10.641 29.8069C10.6453 30.1557 10.5362 30.2117 10.2448 30.0696C9.38346 29.6504 8.88103 28.9642 8.85232 28.0096C8.81356 26.7435 8.82074 25.4745 8.84945 24.207C8.86955 23.3227 9.28441 22.6408 10.0725 22.2088C10.5807 21.9288 10.6324 21.959 10.6338 22.5217C10.6352 23.7361 10.6338 24.9506 10.6338 26.1636L10.6352 26.165Z" fill="#767676"/>
  <path d="M40.9158 26.109C40.9158 24.9104 40.9144 23.7132 40.9158 22.5145C40.9158 21.969 41.0005 21.9159 41.4886 22.1858C42.2709 22.6179 42.7088 23.2983 42.7346 24.1811C42.7705 25.4501 42.7705 26.7205 42.7346 27.9895C42.7102 28.8953 42.2623 29.5858 41.4513 30.015C40.9704 30.2691 40.9173 30.2347 40.9158 29.7035C40.913 28.5049 40.9158 27.3077 40.9158 26.109Z" fill="#767676"/>
  <path d="M37.92 26.0602C37.92 24.8457 37.9372 23.6299 37.9099 22.4169C37.9013 22.0192 38.0061 21.8972 38.4124 21.9087C39.3009 21.9331 39.3024 21.9087 39.3024 22.7743C39.3024 25.0783 39.2895 27.3837 39.3139 29.6877C39.3196 30.1628 39.189 30.3509 38.7153 30.2777C38.576 30.2562 38.4282 30.2619 38.2875 30.2777C37.9674 30.3121 37.9042 30.1557 37.9071 29.8657C37.92 28.5981 37.9128 27.3292 37.9128 26.0616C37.9157 26.0616 37.9186 26.0616 37.92 26.0616V26.0602Z" fill="#828282"/>
  <path d="M31.3395 38.4544C30.9992 38.4544 30.6576 38.4745 30.3202 38.4501C29.8149 38.4128 29.4446 37.9993 29.4561 37.5271C29.4676 37.0749 29.825 36.6686 30.3088 36.6485C31.005 36.6184 31.7055 36.6169 32.4017 36.6514C32.8998 36.6758 33.2214 37.0663 33.2243 37.5428C33.2271 38.0424 32.8869 38.4156 32.3615 38.4515C32.0228 38.4745 31.6811 38.4558 31.3423 38.4558L31.3395 38.4544Z" fill="#9B9B9B"/>
  <path d="M27.188 54.1473C26.2607 54.1875 25.3348 54.1932 24.4075 54.1444C24.4836 53.3779 24.7577 52.6573 24.9257 51.9122C24.9673 51.7299 25.075 51.6883 25.2329 51.694C25.286 51.6955 25.3405 51.694 25.3937 51.694C26.6009 51.6682 26.6052 51.6668 26.8995 52.8511C27.0072 53.2803 27.1895 53.6951 27.188 54.1487V54.1473Z" fill="#828282"/>
  <path d="M25.7727 50.0992C25.4167 49.9657 24.9344 50.3288 24.6587 49.7589C24.3013 49.0197 24.2654 49.024 24.8525 48.4541C25.1927 48.1225 25.4325 47.4722 25.8301 47.4923C26.1545 47.5081 26.4388 48.1268 26.7589 48.4612C27.2785 49.0039 27.3159 49.4403 26.8077 49.9556C26.5235 50.2441 26.1244 50.013 25.7727 50.0992Z" fill="#9B9B9B"/>
  <path d="M25.8128 34.9417C24.93 34.9633 24.1204 34.7121 23.3667 34.2671C22.8959 33.9886 22.7451 33.5522 22.9576 33.1402C23.1787 32.7124 23.6495 32.5861 24.1548 32.8703C25.2659 33.4919 26.3554 33.4861 27.4637 32.8588C27.9431 32.5875 28.3939 32.711 28.6221 33.1158C28.8518 33.5235 28.7154 33.9742 28.2532 34.2527C27.5038 34.7049 26.6942 34.9561 25.8114 34.9417H25.8128Z" fill="black"/>
</svg>