<svg xmlns="http://www.w3.org/2000/svg" width="51" height="55" viewBox="0 0 51 55" fill="none">
  <path d="M29.4402 0.00290054C29.8336 0.147906 30.247 0.252711 30.6146 0.44653C32.0402 1.20027 32.8485 2.39046 32.8729 4.01279C32.9102 6.49798 32.9031 8.9846 32.8787 11.4698C32.8571 13.6607 31.1329 15.4352 28.942 15.4754C26.4209 15.5213 23.8984 15.5227 21.3773 15.4768C19.1261 15.4366 17.4205 13.6563 17.4033 11.3951C17.3847 8.98173 17.3904 6.56689 17.4019 4.15205C17.4105 2.27273 18.4887 0.812632 20.279 0.190976C20.401 0.149341 20.5762 0.179491 20.6308 0.00146484C23.5667 0.00290054 26.5042 0.00290054 29.4402 0.00290054Z" fill="black"/>
  <path d="M12.0367 0.00280762C12.1846 0.202369 12.4243 0.116227 12.6167 0.177962C14.2218 0.689069 15.4206 2.07451 15.4881 3.75284C15.5943 6.39882 15.6015 9.05055 15.4881 11.6951C15.3977 13.8185 13.6849 15.4394 11.5615 15.4767C9.05763 15.5212 6.55091 15.5227 4.04563 15.4796C1.80881 15.4408 0.0730608 13.7137 0.0328613 11.4797C-0.0130809 8.99312 -0.00877379 6.50506 0.0328613 4.01844C0.0658823 2.07308 1.414 0.509607 3.30624 0.0961277C3.38951 0.0774637 3.46848 0.0343929 3.55031 0.00280762H6.12882C6.50066 0.119099 6.78349 0.315789 6.80216 0.750804C6.73181 1.40692 6.43462 1.71128 5.78425 1.7601C5.28463 1.79742 4.78357 1.7644 4.28251 1.77589C2.84539 1.80891 1.84614 2.69043 1.80307 4.12755C1.73129 6.53952 1.72985 8.95579 1.80307 11.3663C1.84901 12.8609 2.8138 13.6921 4.32846 13.6965C6.49205 13.7036 8.65564 13.6965 10.8192 13.6965C11.0504 13.7166 11.283 13.7065 11.5141 13.6979C12.5909 13.6591 13.4509 12.9456 13.6849 11.8875C13.7696 11.5041 13.8184 11.1151 13.817 10.7188C13.8126 8.7548 13.8155 6.7922 13.8155 4.82817C13.8155 4.75639 13.8155 4.68604 13.8141 4.61425C13.7739 2.59423 12.5966 1.62801 10.8652 1.76584C10.5307 1.76871 10.1976 1.75723 9.86449 1.76297C9.28016 1.77445 8.88966 1.52464 8.73316 0.947494C8.70876 0.485201 8.88966 0.15212 9.35051 0.00280762H12.0367Z" fill="black"/>
  <path d="M46.736 0.00287139C47.105 0.124905 47.4941 0.20674 47.8415 0.376152C49.3748 1.12271 50.219 2.36889 50.252 4.06876C50.2994 6.51661 50.2922 8.96734 50.2578 11.4152C50.2262 13.6994 48.4904 15.415 46.2034 15.4897C45.632 15.5084 45.0591 15.4969 44.4877 15.4969C43.9924 15.4969 43.6694 15.2844 43.5962 14.7675C43.4612 14.2134 43.7512 13.8157 44.3815 13.731C44.8021 13.6735 45.2285 13.7023 45.6521 13.708C46.6743 13.7597 47.5745 13.5472 48.1444 12.5867C48.41 12.1402 48.5077 11.6535 48.5091 11.1482C48.5206 8.87833 48.5263 6.60706 48.5091 4.33723C48.4976 2.93312 47.675 1.60941 45.5358 1.77308C43.4239 1.77308 41.312 1.81185 39.2029 1.75872C37.9209 1.72714 36.6 2.55553 36.5254 4.10465C36.5139 4.33579 36.4766 4.56694 36.4766 4.79952C36.4766 6.7492 36.4679 8.69887 36.4809 10.6485C36.4852 11.2731 36.5268 11.9019 36.8297 12.4747C37.2432 13.2572 37.9036 13.6506 38.7765 13.6922C39.3121 13.7166 39.8504 13.6922 40.386 13.7037C40.7621 13.7123 41.0952 13.8257 41.3321 14.1272C41.4584 14.288 41.6264 14.4603 41.4426 14.69C41.2531 15.3705 41.0937 15.5026 40.3544 15.4911C39.5174 15.4782 38.6746 15.5758 37.8462 15.3648C36.1765 14.9413 34.8743 13.4984 34.7997 11.777C34.6862 9.13532 34.6877 6.48646 34.7954 3.84622C34.87 2.02146 35.9152 0.822652 37.6237 0.195254C37.7629 0.143569 37.9539 0.180897 38.0343 0C40.9344 0.00287139 43.8359 0.00287139 46.736 0.00287139Z" fill="black"/>
  <path d="M14.2936 39.6467C14.2936 39.1026 14.2864 38.5585 14.2965 38.0158C14.3008 37.8119 14.2793 37.6353 14.0969 37.5118C14.8277 37.229 14.9325 36.649 14.8894 35.9541C14.8478 35.2765 14.8794 34.5945 14.8822 33.914C14.8822 33.5522 14.9354 33.2005 15.0617 32.8602C15.2943 32.24 15.8255 31.8595 16.45 31.8624C17.099 31.8653 17.656 32.2673 17.88 32.8903C17.9848 33.1818 18.0006 33.4847 18.0006 33.7905C18.0006 35.1329 17.9963 36.4753 18.0049 37.8191C18.0078 38.2455 17.923 38.6259 17.6531 38.9719C17.4162 39.2763 17.3043 39.6324 17.6488 39.931C17.9862 40.2224 18.3193 40.0602 18.6194 39.8233C19.0343 39.496 19.287 39.0839 19.2826 38.5369C19.2812 38.3216 19.2855 38.1077 19.2855 37.8923C19.2855 32.2701 19.2855 26.6494 19.2855 21.0272C19.2855 20.7228 19.2683 20.417 19.3228 20.1155C19.4607 19.3431 20.1182 18.8205 20.8906 18.8622C21.6157 18.9009 22.2215 19.5039 22.2861 20.2505C22.3062 20.4831 22.2976 20.7157 22.2976 20.9482C22.2976 25.9071 22.2976 30.866 22.2976 35.8249C22.2976 36.0934 22.2761 36.3647 22.3407 36.6275C22.4283 36.9778 22.6336 37.206 23.0226 37.1788C23.3973 37.1529 23.5366 36.9002 23.5668 36.5614C23.584 36.3647 23.5797 36.168 23.5797 35.9713C23.5797 33.4115 23.5797 30.8517 23.5797 28.2904C23.5797 27.9128 23.5854 27.5366 23.7477 27.1849C24.0176 26.6006 24.4684 26.2488 25.1144 26.2072C25.683 26.1699 26.2788 26.6063 26.5329 27.1892C26.688 27.5438 26.7009 27.9185 26.7009 28.2961C26.7009 30.8746 26.7009 33.4517 26.7009 36.0302C26.7009 36.2628 26.6894 36.4968 26.7439 36.7251C26.81 36.9993 26.9837 37.1572 27.268 37.1831C27.5551 37.2089 27.7475 37.0711 27.8624 36.8184C27.993 36.5327 27.9815 36.224 27.9815 35.9211C27.9844 33.97 27.9815 32.0189 27.9815 30.0663C27.9815 29.5222 28.105 29.0326 28.5745 28.6967C29.4603 28.0635 30.7093 28.5474 30.9448 29.6112C31.0037 29.8754 30.995 30.1453 30.995 30.4138C30.995 32.2759 30.995 34.138 30.9965 36.0001C30.9965 36.2685 30.9778 36.5413 31.0941 36.7926C31.2075 37.0381 31.3884 37.2017 31.6784 37.1802C31.9598 37.1601 32.1364 36.9936 32.2254 36.7351C32.2972 36.5284 32.2785 36.3102 32.28 36.0962C32.2829 34.8429 32.2742 33.5895 32.2843 32.3362C32.29 31.6757 32.547 31.1417 33.1457 30.8359C34.0703 30.3621 35.048 30.9033 35.2734 31.9902C35.2619 33.2234 35.2389 34.4596 35.2806 35.6928C35.3064 36.4537 35.1284 37.1357 34.8054 37.809C33.4903 40.5455 31.799 43.0206 29.5838 45.1009C26.6119 47.8919 23.1016 49.6478 19.0773 50.3556C18.8304 50.3986 18.5835 50.4474 18.3365 50.3484C18.1757 50.2622 18.137 50.1029 18.1068 49.9449C17.9719 49.2228 17.6101 48.6169 17.1664 48.047C16.6941 47.4425 16.2634 46.8051 15.7796 46.2121C15.1378 45.4254 14.8866 44.5252 14.8937 43.5303C14.8995 42.7995 14.8722 42.0673 14.9009 41.3365C14.9268 40.679 14.9239 40.0545 14.2893 39.6453L14.2936 39.6467Z" fill="#FDD1A3"/>
  <path d="M35.1456 32.1007C35.0595 31.2982 34.5326 30.8014 33.7846 30.8186C33.0308 30.8359 32.4695 31.403 32.4594 32.217C32.4422 33.6125 32.4565 35.0094 32.4537 36.4049C32.4522 37.061 32.1852 37.397 31.6727 37.407C31.14 37.4171 30.8457 37.0625 30.8443 36.3906C30.8414 34.2787 30.8457 32.1667 30.8414 30.0548C30.84 29.2824 30.4179 28.7053 29.7833 28.5703C28.8831 28.3779 28.138 28.9967 28.1322 29.9759C28.1208 32.0691 28.1294 34.1638 28.1251 36.257C28.1251 36.4523 28.1222 36.6547 28.0676 36.8399C27.9456 37.2591 27.6384 37.4472 27.2105 37.397C26.8042 37.3496 26.5544 37.1027 26.53 36.6949C26.5027 36.2312 26.5156 35.7646 26.5156 35.2994C26.5156 32.9549 26.5156 30.6105 26.5156 28.266C26.5156 28.1411 26.5185 28.0147 26.5156 27.8898C26.4855 26.9868 25.9098 26.3479 25.1302 26.3522C24.3434 26.3565 23.7749 26.9882 23.772 27.8999C23.7649 30.6564 23.7692 33.4115 23.7692 36.168C23.7692 36.3475 23.7778 36.5269 23.7562 36.7035C23.7074 37.1113 23.4691 37.3539 23.0628 37.397C22.6321 37.4429 22.3277 37.2477 22.2129 36.8284C22.1569 36.626 22.1597 36.4049 22.1597 36.191C22.1569 31.0727 22.1583 25.9545 22.1569 20.8363C22.1569 20.6223 22.1626 20.4055 22.1382 20.1931C22.0549 19.4738 21.4577 18.9684 20.737 18.9928C20.0421 19.0158 19.5008 19.5441 19.4506 20.2548C19.4362 20.4515 19.4434 20.6482 19.4434 20.8449C19.4434 26.7154 19.4262 32.5845 19.4621 38.4551C19.4678 39.3194 18.984 39.7616 18.4068 40.1822C18.0795 40.4205 17.7077 40.3215 17.4421 40.0186C17.1391 39.674 17.1291 39.2576 17.4579 38.959C17.8096 38.6389 17.8426 38.2814 17.8383 37.8578C17.824 36.3719 17.8426 34.8874 17.8268 33.4014C17.8196 32.6836 17.3487 32.1323 16.707 32.0217C16.0839 31.9141 15.4651 32.2457 15.2167 32.8214C15.1004 33.0913 15.0961 33.3785 15.0961 33.6642C15.0961 34.6132 15.1019 35.5607 15.0933 36.5097C15.0861 37.2649 14.8521 37.4932 14.0983 37.5118C13.6375 37.3582 13.481 37.0136 13.4839 36.5557C13.4882 35.5535 13.4767 34.5514 13.4867 33.5479C13.5111 31.202 15.3962 29.8754 17.6316 30.6234C17.6804 30.6392 17.7335 30.6449 17.8326 30.665C17.8326 30.4583 17.8326 30.2688 17.8326 30.0792C17.8326 26.8389 17.8268 23.6 17.8369 20.3596C17.8412 18.8248 18.9596 17.55 20.3996 17.3978C21.9846 17.2298 23.3542 18.1903 23.7017 19.7379C23.7706 20.0481 23.7677 20.3783 23.7692 20.6984C23.7763 22.1284 23.772 23.5598 23.772 25.0514C24.7038 24.6667 25.6069 24.6078 26.4855 25.0759C27.3412 25.531 27.848 26.2603 28.0806 27.2193C28.461 27.1246 28.8142 26.9609 29.2047 26.9322C30.6634 26.8217 31.9497 27.6759 32.3273 29.0857C32.4321 29.4734 32.5269 29.4777 32.8786 29.3571C34.6704 28.7441 36.5554 29.9701 36.7665 31.8581C36.7923 32.0892 36.8024 32.3218 36.8024 32.5544C36.8038 36.3317 36.7966 40.109 36.8081 43.8849C36.8124 45.1138 36.6272 46.3112 36.2798 47.4784C35.8362 48.9687 35.6452 50.4804 35.7055 52.0324C35.7299 52.6584 35.7127 53.2858 35.7084 53.9118C35.7041 54.7545 35.46 55 34.6244 55C30.794 55 26.9621 55 23.1317 55C21.3601 55 19.587 55 17.8153 55C17.0114 55 16.7544 54.7445 16.7515 53.9491C16.7486 52.947 16.7429 51.9449 16.7529 50.9413C16.7601 50.2522 16.5605 49.6463 16.1413 49.0993C15.5527 48.3341 14.9899 47.5488 14.3998 46.785C13.7868 45.991 13.4839 45.098 13.4853 44.0988C13.4867 42.9718 13.4996 41.8433 13.4795 40.7163C13.4695 40.1234 13.7136 39.7687 14.295 39.6481C14.9899 39.885 15.0918 40.0243 15.0947 40.778C15.099 41.8318 15.1033 42.8871 15.0947 43.9409C15.0875 44.6846 15.29 45.3392 15.7652 45.9236C16.2145 46.4777 16.6122 47.0735 17.0602 47.6306C17.6947 48.4202 18.1972 49.2673 18.3638 50.2838C18.5648 50.4819 18.5432 50.7403 18.5475 50.9887C18.5547 51.5615 18.5576 52.1344 18.5475 52.7058C18.5418 53.0704 18.6997 53.2341 19.0601 53.2183C19.1678 53.214 19.274 53.2198 19.3817 53.2198C23.9257 53.2198 28.4711 53.2198 33.015 53.2198C33.0681 53.2198 33.1227 53.2198 33.1758 53.2198C33.8348 53.2097 33.8779 53.1666 33.8922 52.522C33.9095 51.7367 33.8994 50.9514 33.9583 50.1632C34.0301 49.1898 34.2311 48.2508 34.4967 47.3219C34.9389 45.7757 35.0867 44.2007 35.0767 42.6014C35.0681 41.0982 35.0121 39.5922 35.091 38.0933C35.1858 36.2714 35.1887 34.4509 35.1915 32.629C35.1915 32.4524 35.2303 32.2716 35.1499 32.1007H35.1456Z" fill="black"/>
  <path d="M41.4427 14.6929C41.3508 14.1171 40.999 13.8745 40.4334 13.8817C39.8792 13.8889 39.325 13.8932 38.7708 13.8745C37.5218 13.8329 36.5025 12.9198 36.4063 11.6779C36.2785 10.0197 36.3675 8.35427 36.3603 6.69318C36.356 5.72839 36.2971 4.76217 36.4034 3.80025C36.5369 2.60719 37.5491 1.63666 38.7464 1.62518C41.0163 1.60364 43.2861 1.62805 45.5559 1.63379C46.5178 2.18366 46.7418 3.12691 46.7734 4.10893C46.8251 5.66378 46.7878 7.22295 46.7878 8.77924C46.7878 9.65645 46.8093 10.5337 46.7806 11.4094C46.749 12.3742 46.459 13.2371 45.6607 13.8602C45.2889 13.8688 44.9171 13.8745 44.5452 13.8846C43.9106 13.9018 43.6608 14.1344 43.5948 14.769C42.8812 14.6268 42.1576 14.7603 41.4427 14.6943V14.6929Z" fill="#4172C9"/>
  <path d="M28.2586 13.8603C25.9357 13.8646 23.6113 13.8947 21.2883 13.8603C20.0823 13.843 19.04 12.7734 19.0271 11.5603C18.9984 9.02198 18.9998 6.48367 19.0271 3.94537C19.04 2.72503 20.1111 1.64395 21.34 1.62672C23.6457 1.59657 25.9515 1.62672 28.2572 1.63246C29.0023 2.15793 29.3584 2.91454 29.3698 3.78601C29.4072 6.42768 29.4057 9.06936 29.3698 11.7096C29.3584 12.5839 29.0109 13.3405 28.2572 13.8588L28.2586 13.8603Z" fill="#4172C9"/>
  <path d="M28.2587 13.8602C28.5616 13.3046 29.0741 12.8681 29.1646 12.1862C29.1933 11.9737 29.2249 11.7641 29.2249 11.5516C29.2263 9.08362 29.2148 6.6171 29.2321 4.14915C29.2378 3.28342 29.0024 2.5383 28.4008 1.90946C28.3319 1.83768 28.3046 1.72569 28.2587 1.63237C29.8336 1.5491 30.8573 2.20952 31.209 3.52605C31.2851 3.80889 31.2736 4.09315 31.2736 4.37742C31.2765 6.60992 31.2779 8.84243 31.2736 11.0735C31.2708 12.9945 30.1954 13.9865 28.2587 13.8602Z" fill="#3A67C0"/>
  <path d="M6.69171 0.666109C6.83815 0.868541 7.05063 0.854184 7.26598 0.851313C7.78283 0.84557 8.29825 0.851313 8.8151 0.851313C8.97589 1.43564 9.36497 1.66392 9.95934 1.61797C10.2551 1.595 10.5566 1.62515 10.8538 1.63089C11.7855 2.22958 12.0181 3.18575 12.0712 4.18069C12.133 5.34073 12.0856 6.50651 12.087 7.66942C12.087 8.83233 12.0913 9.99525 12.0856 11.1596C12.0813 11.8688 11.942 12.545 11.5731 13.1624C11.395 13.461 11.1811 13.7151 10.8538 13.8573C8.52939 13.8601 6.20357 13.8975 3.87918 13.853C2.66171 13.83 1.6596 12.7389 1.64237 11.4611C1.60935 8.99313 1.60792 6.52374 1.64237 4.05578C1.66104 2.65454 2.7737 1.62946 4.18499 1.61367C4.68604 1.60792 5.1871 1.6151 5.68816 1.61223C6.4017 1.60792 6.64433 1.37678 6.69171 0.664673V0.666109Z" fill="#A1F4C2"/>
  <path d="M10.8552 13.8587C11.7095 12.9858 11.9607 11.922 11.9392 10.7275C11.9033 8.69165 11.9033 6.65296 11.9392 4.61715C11.9593 3.46429 11.5932 2.48945 10.8552 1.63091C12.8595 1.52467 13.9176 2.51386 13.9219 4.50517C13.9262 6.68742 13.9262 8.86967 13.9219 11.0519C13.9176 12.9915 12.8006 14.0095 10.8552 13.8573V13.8587Z" fill="#87F1A8"/>
  <path d="M45.6622 13.8587C45.7598 13.4667 46.1173 13.2428 46.2766 12.8767C46.4949 12.3771 46.6284 11.876 46.6284 11.3347C46.6284 9.08788 46.6011 6.83959 46.6399 4.59272C46.6585 3.44561 46.3628 2.45498 45.5559 1.63089C47.6161 1.52465 48.6556 2.51528 48.6556 4.58555C48.6556 6.75057 48.6584 8.9156 48.6556 11.0792C48.6527 12.9571 47.5472 13.9807 45.6622 13.8587Z" fill="#3A67C0"/>
  <path d="M35.1457 32.1007C35.2462 32.3046 35.196 32.5228 35.196 32.7338C35.1974 36.1321 35.173 39.5304 35.2031 42.9273C35.2161 44.4592 35.0897 45.9595 34.6274 47.4239C34.0646 49.2099 34.0532 51.0504 34.1048 52.8939C34.1163 53.2858 34.0259 53.4021 33.6124 53.4007C28.6937 53.3849 23.775 53.3849 18.8563 53.3992C18.4701 53.3992 18.3309 53.3289 18.3495 52.9097C18.3869 52.0353 18.3596 51.1581 18.3596 50.2823C20.081 50.1388 21.7105 49.6348 23.2998 48.9902C25.3844 48.1446 27.2494 46.9544 28.9464 45.4699C30.9176 43.7471 32.4782 41.7127 33.7775 39.4572C34.2068 38.7135 34.5915 37.9512 34.9332 37.163C35.0653 36.8572 35.1299 36.5628 35.1299 36.2341C35.1285 34.8572 35.14 33.479 35.1457 32.1021V32.1007Z" fill="#FEBC85"/>
  <path d="M10.9658 6.16352C10.9715 6.43774 10.8308 6.63586 10.6485 6.8182C9.64923 7.816 8.65717 8.81955 7.65218 9.81162C7.1942 10.2639 6.7721 10.2538 6.3055 9.80013C5.83172 9.33784 5.36369 8.87267 4.90283 8.39746C4.52237 8.00551 4.49509 7.54179 4.80951 7.20727C5.13685 6.8584 5.62785 6.88137 6.04133 7.26326C6.05426 7.27475 6.06431 7.29054 6.07866 7.30202C6.406 7.56906 6.63715 8.13186 7.01617 8.09309C7.33633 8.06151 7.61198 7.57624 7.90343 7.28623C8.46048 6.73205 9.01322 6.17213 9.57171 5.61939C9.83874 5.35522 10.1589 5.28057 10.5049 5.43993C10.8064 5.57776 10.9571 5.83044 10.9658 6.16352Z" fill="black"/>
</svg>