<svg xmlns="http://www.w3.org/2000/svg" width="42" height="59" viewBox="0 0 42 59" fill="none">
  <path d="M24.6814 0C25.7421 0.247854 26.832 0.40334 27.8558 0.757417C33.09 2.56013 36.6369 7.46025 36.7554 13.0039C36.7924 14.7311 36.7924 16.46 36.76 18.1888C36.7139 20.7227 37.3804 23.0366 38.766 25.1549C40.4363 27.7104 41.1922 30.523 41.0367 33.5665C40.8843 36.5484 39.8621 39.2163 37.9993 41.5548C37.5837 42.0782 37.1603 42.1767 36.583 41.838C34.6171 40.685 32.5034 40.0969 30.225 40.0938C30.0741 40.0938 29.9202 40.0615 29.7709 40.0276C29.3106 39.9214 28.9457 39.6843 28.8395 39.1979C28.7317 38.7022 28.9827 38.3635 29.3737 38.0817C30.9486 36.9456 32.2602 35.557 33.2978 33.9144C34.7741 31.5744 35.587 29.022 35.627 26.251C35.6624 23.8325 35.6516 21.4124 35.6378 18.9924C35.627 17.1789 34.3061 15.9396 32.4957 16.0043C31.0994 16.0535 30.5329 15.6025 30.2927 14.2293C30.2358 13.9091 30.2389 13.5765 30.1696 13.261C29.7216 11.2058 27.3878 10.339 25.5789 11.4859C23.9963 12.4897 22.4199 13.5427 20.725 14.3232C17.0918 15.992 13.2339 16.5108 9.25903 16.0535C7.30853 15.8288 5.94302 16.5877 5.52121 18.198C5.45347 18.4536 5.4273 18.7276 5.4273 18.9939C5.42268 21.414 5.3688 23.834 5.44424 26.2525C5.59202 31.0094 7.61796 34.8443 11.3235 37.8077C11.3989 37.8678 11.4728 37.9278 11.5544 37.9801C12.0178 38.2803 12.3657 38.6452 12.2179 39.2564C12.1024 39.7321 11.5959 40.0861 10.9001 40.0892C8.60168 40.1015 6.46798 40.6773 4.48515 41.8427C3.87398 42.2014 3.4845 42.0767 2.99802 41.4686C-0.625877 36.9379 -1.02306 30.3921 2.12669 25.4597C3.63536 23.0981 4.38508 20.5903 4.31581 17.7916C4.26808 15.8365 4.26193 13.8706 4.4051 11.9216C4.82383 6.2256 9.49919 1.18847 15.1459 0.227841C15.5601 0.157025 15.9711 0.0769733 16.3837 0C19.1486 0 21.915 0 24.6799 0H24.6814Z" fill="#3F48CC"/>
  <path d="M20.5033 59C14.3393 59 8.17524 59 2.01122 59C0.912045 59 0.604152 58.7013 0.614929 57.5975C0.636481 55.39 0.55335 53.1747 0.728849 50.9794C1.07985 46.5596 4.91312 42.7217 9.30059 42.1521C10.1535 42.0412 10.7923 42.2183 11.462 42.7479C14.1853 44.9062 16.9471 47.0137 19.6951 49.1397C20.3832 49.6724 20.6803 49.6785 21.3777 49.1397C24.218 46.946 27.0629 44.7553 29.8879 42.5416C30.3836 42.1536 30.8685 42.0412 31.4843 42.1275C36.0904 42.771 39.4864 45.9638 40.29 50.5268C40.4609 51.5013 40.4332 52.5142 40.4501 53.5103C40.4748 54.9112 40.4594 56.3136 40.4548 57.7161C40.4517 58.6629 40.1145 58.9985 39.1693 59C32.9483 59 26.7258 59 20.5048 59H20.5033Z" fill="#3F48CC"/>
  <path d="M33.7843 22.9288C33.6704 24.7254 33.7012 26.545 33.4148 28.3139C32.5404 33.722 27.7696 38.1911 22.3353 38.8453C15.1106 39.7167 8.87731 35.1368 7.56568 27.969C7.42867 27.2193 7.40404 26.4419 7.3948 25.6767C7.37171 23.6031 7.38711 21.531 7.38711 19.4573C7.38711 18.1426 7.71039 17.847 9.00662 18.0025C11.5821 18.3104 14.1392 18.1826 16.6793 17.6685C20.1524 16.9649 23.316 15.5594 26.184 13.4842C26.3703 13.3487 26.5488 13.2009 26.7459 13.0824C27.4325 12.6667 28.1514 13.0393 28.2715 13.8398C28.3562 14.4063 28.4285 14.9867 28.6133 15.5224C29.169 17.1327 30.4791 18.0071 32.1817 17.9779C32.2772 17.9763 32.3742 17.9702 32.4696 17.9686C33.3163 17.9502 33.6735 18.2827 33.6781 19.1217C33.6843 20.3887 33.6796 21.6557 33.6796 22.9226C33.715 22.9242 33.7504 22.9273 33.7859 22.9288H33.7843Z" fill="#3F48CC"/>
  <path d="M15.0644 39.9645C15.1198 39.9799 15.343 40.0307 15.5585 40.1031C18.8715 41.2222 22.1829 41.2269 25.4942 40.1046C26.3979 39.7982 27.3862 40.3017 27.5648 41.2299C27.6141 41.487 27.4632 41.9073 27.2585 42.069C25.2479 43.67 23.2066 45.2356 21.1714 46.8043C20.7558 47.1246 20.317 47.1276 19.8998 46.8074C17.8631 45.2372 15.8279 43.6685 13.802 42.0843C13.3325 41.7164 13.3001 41.2838 13.7004 40.8451C14.036 40.4771 14.2515 39.9245 15.0628 39.963L15.0644 39.9645Z" fill="#3F48CC"/>
</svg>