<svg xmlns="http://www.w3.org/2000/svg" width="39" height="59" viewBox="0 0 39 59" fill="none">
  <path d="M8.65503 59C8.25004 58.8649 7.82818 58.7703 7.44457 58.5879C5.5254 57.6793 4.43306 56.1463 4.38919 53.961C4.31832 50.3742 5.10129 46.9652 6.58285 43.7201C6.6436 43.5874 6.72122 43.4627 6.7786 43.3576C7.28033 44.2835 7.72356 45.237 8.28379 46.1121C9.74848 48.399 11.734 50.074 14.1864 51.1523C14.5228 51.3 14.5993 51.449 14.5498 51.8299C14.4306 52.7592 14.4542 53.7093 14.3102 54.634C13.9626 56.8701 12.4709 58.4228 10.3076 58.9019C10.239 58.9169 10.1782 58.9654 10.1141 58.9988H8.6539L8.65503 59Z" fill="#3F48CC"/>
  <path d="M28.8717 59C28.1461 58.671 27.3575 58.4389 26.7073 57.9945C25.3832 57.0894 24.7375 55.7307 24.6171 54.1087C24.5563 53.2879 24.5226 52.4625 24.4213 51.6463C24.373 51.255 24.6362 51.2515 24.8365 51.1615C27.5577 49.9297 29.6794 48.0042 31.1801 45.3721C31.5536 44.7175 31.8517 44.0191 32.206 43.2953C33.0329 44.9357 33.673 46.62 33.9947 48.3897C34.3052 50.0983 34.5246 51.8391 34.5966 53.5731C34.7113 56.346 33.1263 58.305 30.4725 58.9157C30.4219 58.9273 30.378 58.9711 30.3307 58.9988H28.8706L28.8717 59Z" fill="#3F48CC"/>
  <path d="M29.6241 34.2135H9.3884C9.3884 33.1226 9.36253 32.0547 9.39853 30.988C9.41765 30.4351 9.28041 30.1188 8.76293 29.8244C6.0979 28.3086 3.70287 26.405 1.54183 24.2058C-0.478592 22.1498 -0.510091 18.9232 1.42821 16.843C3.36313 14.7662 6.51639 14.6449 8.59981 16.6375C10.1106 18.0828 11.6304 19.5108 13.4911 20.4621C18.4241 22.9856 23.1185 22.4303 27.5317 19.1506C28.588 18.3656 29.5206 17.4075 30.5083 16.5255C33.3612 13.9812 37.7868 15.3214 38.7891 19.056C39.3201 21.0358 38.8431 22.7951 37.4279 24.2359C35.2388 26.4616 32.8055 28.3721 30.1101 29.9133C29.7546 30.1165 29.6027 30.3266 29.614 30.7537C29.6444 31.8827 29.6241 33.014 29.6241 34.2123V34.2135Z" fill="#3F48CC"/>
  <path d="M28.9054 9.69942C28.8615 15.0501 24.598 19.3885 19.4468 19.3273C14.2056 19.2638 10.0534 14.9128 10.0973 9.53088C10.1411 4.21709 14.4171 -0.0531016 19.6392 1.68325e-06C24.769 0.0531049 28.9493 4.42835 28.9054 9.69827V9.69942Z" fill="#3F48CC"/>
  <path d="M9.38615 37.7656H29.6185C29.6871 41.5971 28.3608 44.7314 25.2953 46.8913C21.7393 49.3975 17.9527 49.5338 14.2583 47.2572C10.8497 45.1574 9.32315 41.8996 9.38615 37.7656Z" fill="#3F48CC"/>
</svg>