<svg xmlns="http://www.w3.org/2000/svg" width="28" height="26" viewBox="0 0 28 26" fill="none">
  <path d="M0.906006 0.895631C1.15152 0.217097 1.64893 -0.0199303 2.34939 0.00129602C3.30175 0.0303053 4.25622 0.00837146 5.20999 0.00837146C5.98829 0.00837146 6.32437 0.254597 6.57201 0.99964C6.88333 1.93572 7.19607 2.8718 7.50951 3.80788C7.70267 4.38594 7.91139 4.53665 8.51705 4.53665C14.4413 4.53665 20.3656 4.53665 26.2891 4.53806C26.4646 4.53806 26.6471 4.53382 26.8148 4.57627C27.4665 4.74113 27.7948 5.39702 27.5712 6.08051C27.1927 7.23593 26.8071 8.38852 26.4229 9.54181C25.8299 11.322 25.2349 13.1015 24.6406 14.8809C24.4078 15.5793 24.0625 15.8312 23.3323 15.8312C19.4387 15.8312 15.5451 15.8312 11.6522 15.8312C10.9701 15.8312 10.8031 15.9599 10.6361 16.6151C10.5774 16.8458 10.5123 17.075 10.4614 17.3071C10.3694 17.7246 10.6022 18.0429 11.0288 18.0889C11.1335 18.1003 11.2404 18.0953 11.3465 18.0953C15.7078 18.0953 20.0691 18.0953 24.4304 18.0981C24.6306 18.0981 24.8422 18.1073 25.029 18.1696C25.5434 18.3394 25.8314 18.858 25.7514 19.4106C25.6778 19.9144 25.2363 20.3106 24.7127 20.3425C24.642 20.3467 24.5712 20.3467 24.5012 20.3467C20.0606 20.3467 15.6194 20.3481 11.1788 20.3467C9.70926 20.346 8.55455 19.422 8.24606 18.0104C8.14842 17.5618 8.1746 17.1154 8.28922 16.6739C8.82059 14.6319 8.7845 14.7798 8.13003 12.8269C7.02767 9.53544 5.93381 6.24112 4.8357 2.94821C4.66448 2.43454 4.44089 2.27534 3.89892 2.27463C3.36896 2.27463 2.83831 2.2527 2.30977 2.27959C1.61143 2.31496 1.13667 2.04468 0.906713 1.37393V0.897046L0.906006 0.895631Z" fill="#3F48CC"/>
  <path d="M9.594 25.9999C9.38174 25.9228 9.16028 25.8634 8.95792 25.765C7.96948 25.2874 7.47632 24.1759 7.77561 23.1259C8.08127 22.0526 9.07396 21.391 10.2188 21.4978C11.2284 21.5919 12.115 22.4926 12.1921 23.5016C12.2798 24.6514 11.6077 25.6299 10.5301 25.9214C10.4473 25.944 10.3659 25.973 10.2839 25.9992H9.59542L9.594 25.9999Z" fill="#3F48CC"/>
  <path d="M23.1554 25.9999C22.9431 25.9228 22.7217 25.8634 22.5193 25.765C21.5309 25.2874 21.0377 24.1759 21.337 23.1259C21.6427 22.0526 22.6354 21.391 23.7802 21.4978C24.7898 21.5919 25.6764 22.4926 25.7535 23.5016C25.8412 24.6514 25.1691 25.6299 24.0915 25.9214C24.0087 25.944 23.9273 25.973 23.8453 25.9992H23.1568L23.1554 25.9999Z" fill="#3F48CC"/>
</svg>