<svg xmlns="http://www.w3.org/2000/svg" width="31" height="30" viewBox="0 0 31 30" fill="none">
  <path d="M0.0849609 1.03342C0.368251 0.250496 0.942178 -0.0229965 1.75041 0.00149541C2.84928 0.0349677 3.9506 0.00965938 5.0511 0.00965938C5.94914 0.00965938 6.33693 0.293765 6.62267 1.15343C6.98188 2.23352 7.34273 3.31362 7.70439 4.39371C7.92727 5.06071 8.16811 5.2346 8.86694 5.2346C15.7026 5.2346 22.5383 5.2346 29.3732 5.23623C29.5757 5.23623 29.7863 5.23133 29.9798 5.28032C30.7317 5.47054 31.1105 6.22734 30.8525 7.01598C30.4157 8.34915 29.9708 9.67906 29.5275 11.0098C28.8434 13.0638 28.1568 15.1171 27.471 17.1703C27.2024 17.9761 26.804 18.2667 25.9615 18.2667C21.4688 18.2667 16.9762 18.2667 12.4844 18.2667C11.6974 18.2667 11.5047 18.4153 11.3121 19.1713C11.2443 19.4375 11.1692 19.702 11.1104 19.9697C11.0043 20.4514 11.2729 20.8188 11.7652 20.8719C11.886 20.8849 12.0093 20.8792 12.1317 20.8792C17.164 20.8792 22.1963 20.8792 27.2285 20.8825C27.4596 20.8825 27.7037 20.8931 27.9192 20.9649C28.5127 21.1609 28.845 21.7593 28.7527 22.3969C28.6678 22.9782 28.1584 23.4354 27.5543 23.4721C27.4726 23.477 27.391 23.477 27.3102 23.477C22.1865 23.477 17.0619 23.4786 11.9382 23.477C10.2426 23.4762 8.91021 22.41 8.55426 20.7812C8.4416 20.2636 8.47181 19.7485 8.60406 19.2391C9.21718 16.8829 9.17554 17.0536 8.42037 14.8003C7.14843 11.0024 5.88628 7.2013 4.61923 3.40179C4.42166 2.80908 4.16368 2.6254 3.53832 2.62458C2.92684 2.62458 2.31454 2.59927 1.70469 2.63029C0.898909 2.67111 0.351106 2.35925 0.0857773 1.58531V1.03505L0.0849609 1.03342Z" fill="white"/>
  <path d="M10.1095 30C9.86461 29.911 9.60908 29.8425 9.37559 29.729C8.23509 29.1779 7.66606 27.8954 8.01139 26.6838C8.36408 25.4454 9.50948 24.682 10.8304 24.8053C11.9954 24.9139 13.0184 25.9531 13.1073 27.1173C13.2086 28.444 12.433 29.5731 11.1896 29.9094C11.0941 29.9355 11.0002 29.969 10.9055 29.9992H10.1112L10.1095 30Z" fill="white"/>
  <path d="M25.7575 30C25.5126 29.911 25.257 29.8425 25.0235 29.729C23.883 29.1779 23.314 27.8954 23.6593 26.6838C24.012 25.4454 25.1574 24.682 26.4784 24.8053C27.6434 24.9139 28.6663 25.9531 28.7553 27.1173C28.8565 28.444 28.0809 29.5731 26.8376 29.9094C26.7421 29.9355 26.6482 29.969 26.5535 29.9992H25.7591L25.7575 30Z" fill="white"/>
</svg>