<svg xmlns="http://www.w3.org/2000/svg" width="38" height="59" viewBox="0 0 38 59" fill="none">
  <path d="M32.9349 0C33.6746 0.281656 34.4738 0.461731 35.1433 0.863437C36.9141 1.92542 37.8673 3.54302 37.9817 5.6362C37.9909 5.80858 37.997 5.98096 37.997 6.15488C37.997 21.7106 37.9954 37.2648 38 52.8205C38 55.1907 37.0422 57.0053 35.0213 58.2243C34.0482 58.8107 32.9745 59.0015 31.8489 59.0015C23.2835 58.9938 14.718 59 6.15413 58.9923C5.68132 58.9923 5.20241 58.9584 4.7357 58.8769C2.19779 58.4382 0.161671 56.108 0.0289801 53.5116C0.0152534 53.2437 0.00762751 52.9744 0.00762751 52.7051C0.00457714 37.2263 0.0106779 21.7475 1.58209e-06 6.26877C-0.0015236 3.62921 1.09966 1.69455 3.45912 0.534069C3.96243 0.286273 4.5298 0.173919 5.06819 0C14.3566 0 23.645 0 32.9349 0ZM32.0991 41.2557V5.92093H5.88722V41.2572H32.0975L32.0991 41.2557ZM19.0053 53.1406C19.0053 53.1268 19.0053 53.1129 19.0069 53.0991C19.5392 53.0991 20.073 53.1222 20.6053 53.0945C22.3104 53.0067 23.3841 51.8539 23.375 50.1471C23.3658 48.5295 22.1655 47.2659 20.5443 47.2166C19.4995 47.1843 18.4502 47.1797 17.4054 47.2228C16.048 47.2797 14.7455 48.5818 14.6418 49.9224C14.5259 51.4199 15.4837 52.7405 16.9631 53.0098C17.6296 53.1314 18.3251 53.1006 19.0069 53.1406H19.0053Z" fill="#3F48CC"/>
</svg>