<svg xmlns="http://www.w3.org/2000/svg" width="224" height="203" viewBox="0 0 224 203" fill="none">
  <path d="M194.142 -146C198.503 -144.334 203.214 -143.269 207.161 -140.893C217.599 -134.611 223.218 -125.043 223.892 -112.661C223.946 -111.642 223.982 -110.622 223.982 -109.593C223.982 -17.5797 223.973 74.4249 224 166.439C224 180.459 218.354 191.192 206.441 198.402C200.705 201.871 194.376 203 187.741 203C137.25 202.954 86.759 202.991 36.2769 202.945C33.4899 202.945 30.6668 202.745 27.9157 202.263C12.9554 199.668 0.953009 185.885 0.17083 170.526C0.089915 168.942 0.0449622 167.349 0.0449622 165.756C0.026981 74.1973 0.0629433 -17.3612 9.32601e-06 -108.92C-0.00898124 -124.533 6.48221 -135.977 20.3906 -142.841C23.3575 -144.307 26.702 -144.971 29.8757 -146C84.6282 -146 139.381 -146 194.142 -146ZM189.215 98.0314V-110.977H34.7036V98.0405H189.206L189.215 98.0314ZM112.031 168.332C112.031 168.25 112.031 168.168 112.04 168.086C115.178 168.086 118.325 168.223 121.463 168.059C131.514 167.54 137.843 160.721 137.789 150.625C137.736 141.057 130.66 133.582 121.103 133.291C114.944 133.1 108.759 133.073 102.6 133.327C94.5988 133.664 86.9208 141.366 86.3095 149.296C85.6262 158.154 91.2722 165.965 99.9931 167.558C103.922 168.278 108.022 168.095 112.04 168.332H112.031Z" fill="#3F48CC" fill-opacity="0.1"/>
</svg>