<svg xmlns="http://www.w3.org/2000/svg" width="59" height="59" viewBox="0 0 59 59" fill="none">
  <path d="M34.1055 0C35.1809 0 36.2563 0 37.3331 0C37.5381 0.040405 37.7416 0.0937974 37.9481 0.118329C41.463 0.539696 44.2619 2.05056 45.8858 5.33924C46.5008 6.58458 46.8414 7.88042 46.547 9.2845C46.2828 10.5414 45.5611 11.5068 44.6704 12.3856C44.4784 12.5746 44.2576 12.8373 44.2374 13.0797C44.1305 14.4188 44.0728 15.7608 44.0266 17.1029C44.0208 17.2659 44.1479 17.517 44.2864 17.5892C46.0259 18.5084 46.5397 19.9918 46.2972 21.8404C46.111 23.2661 45.932 24.6932 45.7487 26.1204C45.5596 27.5952 44.7873 28.6255 43.4319 29.2446C43.2457 29.3297 43.0393 29.5621 43.0032 29.7569C42.3911 33.0917 40.9289 35.9893 38.6265 38.4771C38.4692 38.6474 38.3912 38.9937 38.4345 39.229C38.5745 39.9808 38.8113 40.7153 38.9643 41.4657C39.0494 41.8827 39.2674 42.0544 39.6644 42.1511C42.4951 42.8409 45.3243 43.5364 48.1464 44.2579C53.405 45.6014 56.8925 48.8367 58.476 54.0504C58.7243 54.8686 58.8282 55.7301 58.9986 56.5714V58.0692C58.6622 58.7807 58.0891 59 57.3227 59C38.7694 58.9885 20.2162 58.9913 1.66291 58.9913C1.54743 58.9913 1.43195 58.9957 1.31791 58.9899C0.483571 58.9466 0 58.4646 0 57.6334C0 57.1558 0.0476354 56.6753 0.0981577 56.1991C0.668338 50.7574 4.52103 46.0906 9.79845 44.5754C12.4689 43.8092 15.1827 43.193 17.8777 42.5075C18.5273 42.3416 19.3645 42.356 19.7701 41.9448C20.1916 41.5162 20.1512 40.659 20.3923 40.0197C20.756 39.0558 20.7488 38.2159 19.8351 37.5579C19.7759 37.5146 19.7398 37.4381 19.6936 37.3775C17.9802 35.174 16.8297 32.7151 16.3187 29.9632C16.2696 29.6977 16.2552 29.4452 15.8756 29.3254C14.2848 28.8218 13.4332 27.689 13.2325 26.0439C13.0997 24.9588 12.9005 23.8779 12.8269 22.7899C12.7576 21.7668 12.6522 20.7032 12.8572 19.7177C13.1026 18.5344 14.0351 17.784 15.187 17.3669C15.1683 17.1923 15.1524 17.061 15.1379 16.9283C14.9214 14.7522 14.6154 12.5833 14.8464 10.3855C15.1827 7.18921 16.7316 4.89478 19.7629 3.67253C21.638 2.91493 23.5997 2.60468 25.6047 2.52964C26.25 2.50511 26.8346 2.39255 27.399 2.03324C28.6231 1.25544 29.9756 0.759037 31.3931 0.464658C32.291 0.278506 33.2018 0.152962 34.1055 0Z" fill="#3F48CC"/>
</svg>