<svg xmlns="http://www.w3.org/2000/svg" width="45" height="59" viewBox="0 0 45 59" fill="none">
  <path d="M33.623 0C34.6214 0.460216 34.9393 1.24674 34.9099 2.31955C34.8544 4.35127 34.8837 6.38607 34.8991 8.42088C34.9053 9.27974 34.5566 9.88156 33.7866 10.271C32.7589 10.7912 31.7513 11.3515 30.7206 11.864C30.3842 12.0318 30.253 12.2227 30.2607 12.6105C30.2885 13.9512 30.2715 15.2918 30.2715 16.6709H13.8658C13.8658 15.5104 13.801 14.3421 13.8874 13.1862C13.9507 12.352 13.676 11.9071 12.9122 11.587C12.0296 11.216 11.2102 10.7004 10.3523 10.2694C9.58077 9.8831 9.23204 9.28128 9.23975 8.42088C9.25673 6.38761 9.2845 4.35281 9.22895 2.31955C9.19963 1.24674 9.51596 0.458677 10.5159 0L33.623 0Z" fill="#3F48CC"/>
  <path d="M0 20.191H44.1374V20.8298C44.1374 32.8493 44.1374 44.8687 44.1374 56.8898C44.1374 58.3597 43.5017 59 42.0373 59C28.7146 59 15.3919 59 2.06923 59C0.644995 59 0 58.3505 0 56.9175C0 44.878 0 32.84 0 20.8005V20.191ZM22.027 50.7023C25.2597 50.7023 28.494 50.7023 31.7267 50.7023C33.0706 50.7023 33.7372 50.0312 33.7372 48.6782C33.7372 42.7277 33.7372 36.7773 33.7372 30.8268C33.7372 29.4769 33.0691 28.8074 31.722 28.8074C25.2937 28.8074 18.8653 28.8074 12.437 28.8074C11.0529 28.8074 10.3971 29.4677 10.3971 30.8591C10.3971 36.7896 10.3971 42.7216 10.3971 48.6521C10.3971 50.0404 11.0544 50.7007 12.4401 50.7007C15.6342 50.7007 18.8298 50.7007 22.024 50.7007L22.027 50.7023Z" fill="#3F48CC"/>
  <path d="M13.8921 47.2052V32.2952H30.2268V47.2052H13.8921ZM22.0348 39.0845C23.0146 39.0845 23.9944 39.0937 24.9743 39.0814C26.0529 39.0691 26.8105 38.3442 26.8043 37.3545C26.7982 36.3971 26.0436 35.6444 25.0129 35.6337C23.0532 35.6136 21.0935 35.6152 19.1354 35.6337C18.0815 35.6429 17.3115 36.4248 17.3331 37.4022C17.3547 38.3688 18.1031 39.0691 19.1539 39.0814C20.1137 39.0937 21.075 39.0845 22.0348 39.0845Z" fill="#3F48CC"/>
</svg>