<svg width="19" height="19" viewBox="0 0 19 19" fill="none" xmlns="http://www.w3.org/2000/svg">
<path id="Vector" d="M1.85572 19H1.48448C1.45568 18.9902 1.42733 18.9772 1.3976 18.9721C0.980363 18.8987 0.642115 18.6961 0.371237 18.3689C0.164013 18.118 0.0743404 17.8219 0 17.5162V17.1453C0.0840975 16.6866 0.3113 16.3135 0.646296 15.9891C1.2452 15.4087 1.82645 14.8101 2.41931 14.2236C2.5062 14.1377 2.53454 14.0796 2.45927 13.962C1.97559 13.2082 1.62852 12.394 1.41154 11.5255C1.38598 11.4237 1.34277 11.3703 1.23312 11.3489C1.00917 11.3057 0.790796 11.2346 0.56731 11.1909C0.289927 11.137 0.0957132 10.9943 0 10.7252V8.27617C0.0957132 8.0071 0.290392 7.86397 0.56731 7.80959C0.79126 7.76545 1.01382 7.71154 1.23173 7.64462C1.2991 7.62371 1.38459 7.55446 1.40039 7.49173C1.609 6.67847 1.92634 5.91261 2.35427 5.19044C2.38586 5.13746 2.38307 5.03569 2.35334 4.97946C2.23393 4.7564 2.09407 4.54448 1.96816 4.32514C1.79764 4.02772 1.82552 3.79815 2.06759 3.55371C2.55917 3.05739 3.05307 2.56339 3.54929 2.07172C3.79879 1.82449 4.03111 1.79893 4.33683 1.97645C4.55056 2.10053 4.75778 2.2353 4.9743 2.3538C5.02773 2.38308 5.12252 2.39516 5.16944 2.36728C5.90123 1.93044 6.67809 1.60747 7.50466 1.39974C7.55948 1.3858 7.62314 1.3133 7.6394 1.25567C7.71095 1.00659 7.76485 0.752849 7.8285 0.501437C7.91632 0.154757 8.10774 0.0027942 8.46504 0.00186476C9.15734 -0.000458827 9.84963 -0.000458827 10.5424 0.00186476C10.8885 0.00325892 11.0837 0.157081 11.1687 0.489819C11.2328 0.740767 11.2858 0.995432 11.3583 1.24406C11.3764 1.30633 11.4433 1.3858 11.5018 1.40067C12.3219 1.6084 13.0937 1.92812 13.8199 2.3617C13.8687 2.39098 13.9634 2.38726 14.015 2.35892C14.232 2.24134 14.4397 2.10611 14.6525 1.98156C14.968 1.79661 15.1984 1.82217 15.4549 2.07637C15.9465 2.56386 16.4362 3.05367 16.9236 3.54534C17.1782 3.80186 17.2033 4.0319 17.0184 4.34791C16.8966 4.55564 16.7633 4.75733 16.6513 4.97017C16.6193 5.03104 16.6146 5.13979 16.6481 5.19648C17.0718 5.91401 17.3905 6.67336 17.5885 7.4829C17.614 7.58792 17.6661 7.63254 17.772 7.65438C18.0196 7.70503 18.265 7.76916 18.5098 7.8319C18.842 7.91694 18.9963 8.11259 18.9977 8.45881C19.0005 9.15728 19.0009 9.85621 18.9977 10.5547C18.9963 10.8884 18.8392 11.0854 18.5173 11.1686C18.2664 11.2336 18.0113 11.2843 17.7636 11.3586C17.6972 11.3786 17.6136 11.4507 17.5973 11.5143C17.3882 12.3276 17.0718 13.0939 16.6425 13.8156C16.6114 13.8681 16.6165 13.9699 16.6467 14.0266C16.7633 14.2441 16.8994 14.4509 17.0235 14.6647C17.2014 14.9704 17.1754 15.2028 16.9287 15.4523C16.4371 15.9487 15.9432 16.4431 15.4465 16.9343C15.198 17.1806 14.9656 17.2043 14.6585 17.0254C14.4453 16.9009 14.238 16.7647 14.0206 16.6485C13.9644 16.6188 13.8626 16.616 13.8097 16.6471C13.0876 17.0751 12.3214 17.3925 11.5084 17.6012C11.4456 17.6175 11.3759 17.7025 11.3555 17.7699C11.2881 17.9879 11.2342 18.2104 11.1905 18.4344C11.1362 18.7114 10.9931 18.9061 10.7241 19.0019H8.27501C8.00599 18.9061 7.86335 18.7119 7.80945 18.4344C7.76624 18.2104 7.69516 17.992 7.65148 17.7685C7.63011 17.6588 7.57668 17.6151 7.47492 17.5901C6.60607 17.373 5.79204 17.0259 5.03842 16.5421C4.92087 16.4664 4.86279 16.4956 4.77683 16.5825C4.22532 17.1407 3.66219 17.6872 3.11625 18.2509C2.76081 18.618 2.37843 18.9233 1.85572 19.0019V19ZM4.13611 12.4656C2.52897 9.45377 3.62316 6.18076 5.92818 4.53333C8.30428 2.83525 11.5102 3.02579 13.621 4.97435C15.7922 6.97868 16.2573 10.1141 14.7384 12.6547C13.989 13.9086 12.9097 14.792 11.5288 15.2725C9.80224 15.8734 8.12586 15.6982 6.53638 14.8645C6.26271 15.1382 6.00205 15.3989 5.73582 15.6657C5.7781 15.6907 5.83014 15.7224 5.88265 15.753C6.57169 16.1545 7.30859 16.431 8.09009 16.5867C8.39907 16.6481 8.58027 16.8233 8.64439 17.1309C8.68853 17.3424 8.7401 17.5524 8.79772 17.7606C8.81073 17.808 8.86369 17.88 8.899 17.881C9.32321 17.8893 9.74741 17.8865 10.1763 17.8865C10.2418 17.6138 10.305 17.3628 10.3617 17.1105C10.4253 16.8279 10.5902 16.6513 10.8774 16.596C11.8364 16.412 12.721 16.0472 13.5299 15.5016C13.7795 15.3334 14.0206 15.332 14.2733 15.4923C14.4857 15.6275 14.7055 15.7521 14.9025 15.8701C15.2309 15.5416 15.545 15.2279 15.8698 14.9035C15.7574 14.7162 15.6454 14.5104 15.5153 14.3161C15.3276 14.0354 15.3318 13.7743 15.5232 13.4922C16.0566 12.7054 16.4102 11.841 16.5886 10.9069C16.6462 10.6053 16.8172 10.4255 17.1169 10.3604C17.3338 10.313 17.5513 10.2642 17.7641 10.2006C17.8143 10.1857 17.8798 10.1095 17.8812 10.0598C17.8909 9.68891 17.883 9.3176 17.8891 8.94676C17.8909 8.84173 17.8463 8.8106 17.7534 8.79154C17.536 8.74646 17.3213 8.68745 17.1043 8.63819C16.8121 8.5722 16.6462 8.39188 16.59 8.09958C16.4097 7.15945 16.0524 6.29043 15.5162 5.49809C15.3355 5.23041 15.3257 4.9776 15.5037 4.70667C15.6384 4.50219 15.756 4.28657 15.8642 4.10533C15.532 3.77212 15.2189 3.45797 14.8969 3.13499C14.7059 3.24931 14.495 3.36549 14.2943 3.49794C14.0234 3.67639 13.7702 3.6657 13.5025 3.48493C12.7099 2.94864 11.841 2.59174 10.9006 2.41143C10.6074 2.3552 10.4286 2.18836 10.3626 1.89652C10.3138 1.6795 10.252 1.46573 10.2102 1.24731C10.1893 1.13717 10.1386 1.11115 10.035 1.11254C9.67633 1.11812 9.31763 1.11858 8.95894 1.11254C8.85022 1.11068 8.80933 1.14832 8.78842 1.25289C8.74521 1.47084 8.68435 1.68507 8.6351 1.90163C8.57051 2.18558 8.39721 2.3538 8.11146 2.40818C7.15805 2.58942 6.2799 2.95468 5.4761 3.49654C5.21916 3.66942 4.97523 3.67035 4.71736 3.50398C4.5106 3.37061 4.29548 3.25024 4.11149 3.14057C3.78021 3.47006 3.4624 3.78653 3.13716 4.11044C3.23752 4.27867 3.33695 4.47245 3.46101 4.64812C3.67938 4.95669 3.66544 5.23831 3.45218 5.55153C2.93087 6.31599 2.59262 7.16224 2.41653 8.06984C2.35334 8.39607 2.17817 8.58288 1.85433 8.64887C1.60761 8.69906 1.36415 8.76645 1.12486 8.825V10.1778C1.36693 10.2377 1.59785 10.3061 1.83388 10.3507C2.16516 10.4134 2.3473 10.5974 2.41978 10.9306C2.49691 11.2857 2.58751 11.6421 2.71853 11.9795C2.89138 12.4256 3.10975 12.8541 3.31047 13.2947C3.60365 13.0005 3.8643 12.7393 4.13611 12.467V12.4656ZM7.34343 14.0085C9.30834 14.9653 11.9423 14.5935 13.5416 12.4424C15.0298 10.4399 14.7714 7.64415 13.0128 5.94003C11.1315 4.11694 8.35214 3.99286 6.34634 5.62821C4.30942 7.28911 4.10034 9.87248 4.99242 11.6477C5.22195 11.4177 5.44125 11.1844 5.67682 10.9678C5.79669 10.8577 5.82596 10.7606 5.77439 10.6012C5.5667 9.95752 5.55322 9.29948 5.70144 8.6433C6.08197 6.95498 7.50094 5.73788 9.22843 5.61427C9.88773 5.56686 10.5206 5.68304 11.1222 5.96048C11.5413 6.1538 11.6194 6.5767 11.2993 6.91269C11.2565 6.9573 11.2119 7.00052 11.1682 7.0442C10.7487 7.46431 10.3277 7.88255 9.91003 8.30452C9.74416 8.47182 9.68423 8.67397 9.76646 8.89982C9.8422 9.10894 9.99971 9.23163 10.2195 9.26277C10.4272 9.29204 10.5889 9.19957 10.7315 9.0569C11.1808 8.60566 11.6296 8.15349 12.0836 7.70689C12.4213 7.37462 12.8748 7.44944 13.0379 7.89138C13.1819 8.28175 13.3116 8.68931 13.3622 9.10012C13.5866 10.9246 12.4278 12.6775 10.6674 13.2171C9.9091 13.4494 9.14805 13.4531 8.38559 13.2282C8.30753 13.2054 8.18441 13.192 8.13702 13.2347C7.86707 13.4787 7.61338 13.7413 7.3439 14.0085H7.34343ZM12.2541 9.12103C11.9247 9.43611 11.6403 9.73864 11.3248 10.004C10.7287 10.505 9.84638 10.4998 9.25723 10.0165C8.62162 9.49513 8.43345 8.65352 8.81584 7.95226C8.92038 7.76033 9.07045 7.58932 9.21913 7.4262C9.4245 7.20128 9.64891 6.99308 9.89609 6.74678C8.91712 6.64222 8.11471 6.91176 7.48422 7.59536C6.68459 8.46252 6.51268 9.47235 6.94432 10.5682C7.08649 10.9288 7.02842 11.1927 6.75382 11.4655C4.96315 13.2421 3.18316 15.029 1.39946 16.813C1.34277 16.8697 1.28376 16.9255 1.23544 16.9892C0.986868 17.3163 1.14624 17.7704 1.54489 17.8689C1.79904 17.9316 1.98117 17.808 2.15169 17.6375C3.96002 15.8264 5.77253 14.0187 7.579 12.2058C7.81224 11.9716 8.05942 11.8959 8.36468 12.0357C8.43763 12.0692 8.5129 12.0975 8.58863 12.124C9.07231 12.2932 9.569 12.3318 10.0671 12.2202C11.0423 12.0023 11.7202 11.4177 12.0947 10.4943C12.2685 10.0658 12.3173 9.61409 12.2536 9.12103H12.2541Z" fill="black"/>
</svg>
