<svg width="166" height="51" viewBox="0 0 166 51" fill="none" xmlns="http://www.w3.org/2000/svg">
<g id="Group 489">
<path id="Vector" d="M0.946364 18.6429H46.3718C46.8941 18.6429 47.3182 19.067 47.3182 19.5893V39.0809C47.3182 45.4075 42.1833 50.5424 35.8567 50.5424H11.4615C5.1349 50.5389 0 45.404 0 39.0774V19.5893C0 19.067 0.424111 18.6429 0.946364 18.6429Z" fill="#3F48CC"/>
<path id="Vector_2" d="M17.4239 44.8712L19.6601 42.4036C21.8473 39.9887 24.8861 38.5165 28.1388 38.2922L31.4616 38.0644C32.8987 37.9662 33.4525 36.1436 32.3098 35.2639L17.4169 23.7708C16.3934 22.9822 14.9073 23.7007 14.8932 24.9941L14.6934 43.8057C14.6794 45.2462 16.453 45.9402 17.4204 44.8747L17.4239 44.8712Z" fill="white"/>
<path id="Vector_3" d="M36.2634 14.854H32.7864C32.7864 14.854 32.7723 14.8469 32.7723 14.8399V12.8245C32.7723 7.85787 28.8852 3.6483 23.9221 3.5081C18.9589 3.3679 14.5461 7.50386 14.5461 12.6177V14.8399C14.5461 14.8399 14.5391 14.854 14.532 14.854H11.055C11.055 14.854 11.041 14.8469 11.041 14.8399V12.8666C11.041 5.96865 16.4738 0.157273 23.3683 0.00305057C30.2627 -0.151172 36.2774 5.56206 36.2774 12.6177V14.8399C36.2774 14.8399 36.2704 14.854 36.2634 14.854Z" fill="#3F48CC"/>
<path id="Vector_4" d="M78.7101 44.6679C76.2145 47.1495 73.1791 48.3903 69.6039 48.3903C66.0288 48.3903 62.9969 47.1495 60.5153 44.6679C58.0338 42.1864 56.793 39.144 56.793 35.5408C56.793 31.9376 58.0338 28.8987 60.5153 26.4171C62.9969 23.9356 66.0288 22.6948 69.6039 22.6948C73.1791 22.6948 76.218 23.9356 78.7101 26.4171C81.2056 28.8987 82.4534 31.9411 82.4534 35.5408C82.4534 39.1405 81.2056 42.1828 78.7101 44.6679ZM63.9187 41.3486C65.4469 42.8663 67.3432 43.6269 69.6004 43.6269C71.8577 43.6269 73.7539 42.8663 75.2821 41.3486C76.8103 39.831 77.5779 37.8962 77.5779 35.5408C77.5779 33.1854 76.8138 31.2471 75.2821 29.7154C73.7504 28.1872 71.8577 27.4196 69.6004 27.4196C67.3432 27.4196 65.4469 28.1837 63.9187 29.7154C62.387 31.2471 61.6229 33.1854 61.6229 35.5408C61.6229 37.8962 62.387 39.831 63.9187 41.3486Z" fill="#3F48CC"/>
<path id="Vector_5" d="M95.6911 23.1855C99.0805 23.1855 101.909 24.3737 104.18 26.7501C106.452 29.1265 107.587 32.0568 107.587 35.5408C107.587 39.0248 106.452 41.955 104.18 44.3315C101.909 46.7079 99.0805 47.8961 95.6911 47.8961H85.877V23.1855H95.6911ZM95.6911 43.2379C97.8327 43.2379 99.5747 42.5264 100.917 41.1033C102.26 39.6803 102.929 37.8261 102.929 35.5443C102.929 33.2625 102.26 31.4083 100.917 29.9853C99.5747 28.5622 97.8327 27.8507 95.6911 27.8507H90.749V43.2414H95.6911V43.2379Z" fill="#3F48CC"/>
<path id="Vector_6" d="M120.861 23.1855C124.25 23.1855 127.079 24.3737 129.35 26.7501C131.622 29.1265 132.757 32.0568 132.757 35.5408C132.757 39.0248 131.622 41.955 129.35 44.3315C127.079 46.7079 124.25 47.8961 120.861 47.8961H111.047V23.1855H120.861ZM120.861 43.2379C123.003 43.2379 124.745 42.5264 126.087 41.1033C127.429 39.6803 128.099 37.8261 128.099 35.5443C128.099 33.2625 127.429 31.4083 126.087 29.9853C124.745 28.5622 123.003 27.8507 120.861 27.8507H115.919V43.2414H120.861V43.2379Z" fill="#3F48CC"/>
<path id="Vector_7" d="M136.217 23.1855H141.089V47.8961H136.217V23.1855Z" fill="#3F48CC"/>
<path id="Vector_8" d="M165.232 23.1855L156.76 38.2607V47.8961H151.923V38.2607L143.486 23.1855H148.993L154.348 33.4728L159.725 23.1855H165.232Z" fill="#3F48CC"/>
</g>
</svg>
