<svg width="166" height="51" viewBox="0 0 166 51" fill="none" xmlns="http://www.w3.org/2000/svg">
<path d="M0.946364 18.6429H46.3718C46.8941 18.6429 47.3182 19.067 47.3182 19.5893V39.0809C47.3182 45.4075 42.1833 50.5424 35.8567 50.5424H11.4615C5.1349 50.5389 0 45.404 0 39.0774V19.5893C0 19.067 0.424111 18.6429 0.946364 18.6429Z" fill="#3F48CC"/>
<path d="M17.4236 44.8712L19.6598 42.4036C21.8469 39.9887 24.8858 38.5165 28.1385 38.2922L31.4613 38.0644C32.8984 37.9662 33.4522 36.1436 32.3095 35.2639L17.4166 23.7708C16.3931 22.9822 14.9069 23.7007 14.8929 24.9941L14.6931 43.8057C14.6791 45.2462 16.4527 45.9402 17.4201 44.8747L17.4236 44.8712Z" fill="white"/>
<path d="M36.2632 14.854H32.7862C32.7862 14.854 32.7722 14.8469 32.7722 14.8399V12.8245C32.7722 7.85787 28.8851 3.6483 23.922 3.5081C18.9588 3.3679 14.5459 7.50386 14.5459 12.6177V14.8399C14.5459 14.8399 14.5389 14.854 14.5319 14.854H11.0549C11.0549 14.854 11.0409 14.8469 11.0409 14.8399V12.8666C11.0409 5.96865 16.4737 0.157273 23.3682 0.00305057C30.2626 -0.151172 36.2773 5.56206 36.2773 12.6177V14.8399C36.2773 14.8399 36.2703 14.854 36.2632 14.854Z" fill="#3F48CC"/>
<path d="M78.7094 44.6679C76.2138 47.1495 73.1785 48.3903 69.6033 48.3903C66.0282 48.3903 62.9963 47.1495 60.5147 44.6679C58.0331 42.1864 56.7924 39.144 56.7924 35.5408C56.7924 31.9376 58.0331 28.8987 60.5147 26.4171C62.9963 23.9356 66.0282 22.6948 69.6033 22.6948C73.1785 22.6948 76.2174 23.9356 78.7094 26.4171C81.205 28.8987 82.4528 31.9411 82.4528 35.5408C82.4528 39.1405 81.205 42.1828 78.7094 44.6679ZM63.9181 41.3486C65.4463 42.8663 67.3426 43.6269 69.5998 43.6269C71.8571 43.6269 73.7533 42.8663 75.2815 41.3486C76.8097 39.831 77.5773 37.8962 77.5773 35.5408C77.5773 33.1854 76.8132 31.2471 75.2815 29.7154C73.7498 28.1872 71.8571 27.4196 69.5998 27.4196C67.3426 27.4196 65.4463 28.1837 63.9181 29.7154C62.3864 31.2471 61.6223 33.1854 61.6223 35.5408C61.6223 37.8962 62.3864 39.831 63.9181 41.3486Z" fill="#3F48CC"/>
<path d="M95.6915 23.1855C99.0809 23.1855 101.909 24.3737 104.181 26.7501C106.452 29.1265 107.588 32.0568 107.588 35.5408C107.588 39.0248 106.452 41.955 104.181 44.3314C101.909 46.7079 99.0809 47.8961 95.6915 47.8961H85.8773V23.1855H95.6915ZM95.6915 43.2379C97.8331 43.2379 99.5751 42.5263 100.918 41.1033C102.26 39.6802 102.929 37.8261 102.929 35.5443C102.929 33.2625 102.26 31.4083 100.918 29.9853C99.5751 28.5622 97.8331 27.8507 95.6915 27.8507H90.7493V43.2414H95.6915V43.2379Z" fill="#3F48CC"/>
<path d="M120.861 23.1855C124.251 23.1855 127.079 24.3737 129.35 26.7501C131.622 29.1265 132.757 32.0568 132.757 35.5408C132.757 39.0248 131.622 41.955 129.35 44.3314C127.079 46.7079 124.251 47.8961 120.861 47.8961H111.047V23.1855H120.861ZM120.861 43.2379C123.003 43.2379 124.745 42.5263 126.087 41.1033C127.43 39.6802 128.099 37.8261 128.099 35.5443C128.099 33.2625 127.43 31.4083 126.087 29.9853C124.745 28.5622 123.003 27.8507 120.861 27.8507H115.919V43.2414H120.861V43.2379Z" fill="#3F48CC"/>
<path d="M136.217 23.1855H141.089V47.8961H136.217V23.1855Z" fill="#3F48CC"/>
<path d="M165.232 23.1855L156.76 38.2607V47.8961H151.923V38.2607L143.486 23.1855H148.993L154.348 33.4728L159.725 23.1855H165.232Z" fill="#3F48CC"/>
</svg>
