<?xml version="1.0" encoding="iso-8859-1"?>
<!-- Generator: Adobe Illustrator 26.5.0, SVG Export Plug-In . SVG Version: 6.00 Build 0)  -->
<svg version="1.1" id="Layer_1" xmlns="http://www.w3.org/2000/svg" xmlns:xlink="http://www.w3.org/1999/xlink" x="0px" y="0px"
	 viewBox="0 0 512 512" style="enable-background:new 0 0 512 512;" xml:space="preserve">
<g>
	<path style="fill:#3F48CC;" d="M401.824,213.46H110.176c-3.352,0-6.069,2.717-6.069,6.068v125.129
		c0,40.635,32.941,73.576,73.576,73.576h156.632c40.635,0,73.576-32.941,73.576-73.576V219.529
		C407.892,216.177,405.176,213.46,401.824,213.46z M306.088,338.155l-21.341,1.458c-20.871,1.426-40.379,10.883-54.426,26.386
		l-14.363,15.851c-6.21,6.854-17.599,2.392-17.502-6.857l1.287-120.761c0.088-8.298,9.625-12.921,16.194-7.851l95.607,73.786
		C318.866,325.819,315.315,337.525,306.088,338.155z"/>
	<path style="fill:#3F48CC;" d="M197.403,189.138c0.05,0,0.09-0.04,0.09-0.09v-14.273c0-32.821,27.166-59.417,60.193-58.483
		c31.871,0.901,56.82,27.929,56.82,59.813v12.943c0,0.05,0.04,0.09,0.09,0.09h22.323c0.05,0,0.09-0.04,0.09-0.09v-14.273
		c0-45.289-37.357-82.017-82.875-80.988c-44.274,1.001-79.143,38.309-79.143,82.594v12.667c0,0.05,0.04,0.09,0.09,0.09H197.403z"/>
</g>
<g>
</g>
<g>
</g>
<g>
</g>
<g>
</g>
<g>
</g>
</svg>
