<svg id="Layer_1" data-name="Layer 1" xmlns="http://www.w3.org/2000/svg" viewBox="0 0 311.6 275.67"><defs><style>.cls-1,.cls-4{fill:#fff;}.cls-2{fill:#1f2a38;}.cls-3{fill:none;stroke:#fff;stroke-miterlimit:10;stroke-width:10px;}.cls-4{font-size:100.71px;font-family:Gilroy-Semibold, Gilroy;font-weight:600;}</style></defs><title>oddiy</title><path class="cls-1" d="M88.3,57h135a0,0,0,0,1,0,0v61a30,30,0,0,1-30,30h-75a30,30,0,0,1-30-30V57A0,0,0,0,1,88.3,57Z"/><path class="cls-2" d="M522.21,561.83l6.38-7a36,36,0,0,1,24.18-11.73l9.49-.65a4.46,4.46,0,0,0,2.42-8L522.2,501.63a4.47,4.47,0,0,0-7.2,3.49l-.57,53.66A4.47,4.47,0,0,0,522.21,561.83Z" transform="translate(-384.2 -430)"/><path class="cls-3" d="M509,476.19v-7c0-18.87,13.88-34.16,31-34.16h0c17.12,0,31,15.29,31,34.16v7" transform="translate(-384.2 -430)"/><text class="cls-4" transform="translate(0 249.99)">ODDIY</text></svg>