<svg width="19" height="18" viewBox="0 0 19 18" fill="none" xmlns="http://www.w3.org/2000/svg">
<g id="Group 527">
<path id="Vector" d="M0 7.43165C0.351398 6.6147 1.10681 6.32088 1.84931 6.01762C2.38733 5.79775 2.95314 5.66523 3.51994 5.54065C3.61573 5.51981 3.67976 5.53569 3.73634 5.62453C3.84553 5.79477 4.01031 5.91786 4.16963 6.07867C3.53384 6.17049 2.92882 6.27819 2.34117 6.4663C2.00515 6.574 1.67758 6.70106 1.38921 6.90952C0.846731 7.30211 0.84425 7.82325 1.39021 8.21237C1.88356 8.56427 2.4588 8.71714 3.039 8.84023C5.04068 9.26508 7.06321 9.30479 9.09467 9.14695C10.1255 9.06655 11.146 8.9241 12.1277 8.58114C12.42 8.4789 12.701 8.35135 12.9417 8.15033C13.1025 8.01633 13.2315 7.85899 13.2549 7.64309C13.2643 7.55375 13.3144 7.55176 13.379 7.54382C13.6241 7.51255 13.8698 7.48327 14.113 7.44208C14.2098 7.4257 14.2292 7.45448 14.2297 7.54283C14.2321 7.82425 14.0932 8.03866 13.908 8.22875C13.5656 8.58114 13.1377 8.803 12.6925 8.9921C11.7768 9.38072 10.8144 9.59464 9.8337 9.7346C8.50603 9.9242 7.1724 9.97085 5.8353 9.87903C4.31307 9.77431 2.81417 9.54947 1.4046 8.92162C1.20806 8.83427 1.01846 8.72806 0.833331 8.61787C0.461086 8.39552 0.163787 8.10269 0 7.69173V7.43165Z" fill="black"/>
<path id="Vector_2" d="M0 8.65704C0.0124081 8.67144 0.0248163 8.68633 0.0372244 8.70072C0.128052 8.90421 0.122096 9.91225 0.0292832 10.0736L0.0129045 10.0815L0 10.0686C0 9.59808 0 9.12756 0 8.65704Z" fill="black"/>
<path id="Vector_3" d="M0.0288327 10.0735C0.0313144 9.61594 0.0342923 9.15832 0.0367739 8.70071C1.06863 9.54695 2.30597 9.89686 3.57905 10.1386C5.80606 10.5609 8.04251 10.5669 10.2789 10.2115C11.2746 10.0532 12.2489 9.80702 13.1651 9.36976C13.5393 9.19108 13.8882 8.97518 14.2178 8.68384C14.2178 9.17669 14.2257 9.6482 14.2128 10.1197C14.2089 10.2602 14.1205 10.3862 14.0327 10.4999C13.789 10.8146 13.4654 11.0215 13.0971 11.2131C13.0971 10.9947 13.0936 10.8036 13.0986 10.6131C13.1011 10.5217 13.0797 10.4845 12.9765 10.481C12.5521 10.4656 12.5521 10.4612 12.5521 10.8806V11.1034C12.5521 11.4752 12.5516 11.4737 12.1903 11.6017C11.7828 11.7462 11.3639 11.8504 10.945 11.9551C10.8348 11.9824 10.8051 11.9502 10.8095 11.841C10.817 11.6618 10.8115 11.4821 10.8115 11.3029C10.8115 11.2846 10.8105 11.2657 10.8115 11.2474C10.8234 11.0722 10.8462 11.0865 10.6194 11.0895C10.2298 11.1069 10.3092 11.021 10.2819 11.2479C10.2536 11.4796 10.2705 11.7174 10.278 11.9521C10.2814 12.0554 10.2427 12.0921 10.1459 12.107C9.64464 12.1829 9.14087 12.238 8.63611 12.2837C8.54131 12.2921 8.53585 12.2534 8.53635 12.1819C8.53833 11.9715 8.53139 11.7611 8.53933 11.5511C8.5433 11.4429 8.50558 11.4181 8.40234 11.4161C7.98989 11.4087 7.99039 11.4047 7.99039 11.8132C7.99039 11.9119 7.98096 12.0122 7.99238 12.11C8.01124 12.2713 7.96458 12.3368 7.7869 12.3318C7.32929 12.3194 6.87118 12.3229 6.41356 12.3289C6.28204 12.3308 6.24382 12.2862 6.25027 12.1581C6.2602 11.9546 6.24928 11.7496 6.25474 11.5457C6.25722 11.4509 6.22943 11.4191 6.12967 11.4151C5.71474 11.3997 5.71474 11.3958 5.71474 11.8067C5.71474 11.8127 5.71474 11.8191 5.71474 11.8251C5.71077 11.973 5.76388 12.1864 5.68843 12.2519C5.58569 12.3413 5.38567 12.2628 5.22933 12.247C4.86056 12.2087 4.49427 12.1492 4.1255 12.1105C3.99398 12.0966 3.96618 12.0405 3.97065 11.9214C3.97909 11.699 3.96916 11.4757 3.97512 11.2533C3.9776 11.165 3.95129 11.1411 3.86196 11.1382C3.43363 11.1218 3.43412 11.1188 3.43412 11.5511C3.43412 11.9834 3.43412 11.9914 3.00232 11.8802C2.62015 11.7814 2.24393 11.6643 1.8697 11.5362C1.72428 11.4866 1.68606 11.4141 1.6945 11.2707C1.70691 11.0488 1.6945 10.8255 1.69946 10.6026C1.70095 10.5183 1.67862 10.4865 1.5868 10.481C1.15152 10.4552 1.15202 10.4517 1.15202 10.89C1.15202 10.9888 1.15202 11.0875 1.15202 11.2206C0.662641 10.9252 0.166811 10.6791 0.0273438 10.0735H0.0288327Z" fill="black"/>
<path id="Vector_4" d="M5.09471 6.01164C4.76713 5.8414 4.4877 5.66272 4.25691 5.41704C4.05838 5.2061 3.94968 4.9639 3.95961 4.66412C3.97202 4.28095 3.96259 3.89729 3.96259 3.51413C4.03108 3.4918 4.05193 3.55086 4.08518 3.57816C4.66687 4.0586 5.34684 4.34746 6.05658 4.57081C7.83393 5.12967 9.66288 5.28651 11.5142 5.25177C13.022 5.22348 14.51 5.05026 15.9578 4.60952C16.7514 4.36831 17.5098 4.05264 18.1595 3.48584C18.1595 3.97522 18.1669 4.44226 18.1555 4.9093C18.1515 5.06564 18.0553 5.19965 17.958 5.32125C17.7178 5.62153 17.4026 5.82204 17.0393 6.01313C17.0393 5.8007 17.0353 5.61259 17.0408 5.42449C17.0437 5.3282 17.0274 5.28303 16.9122 5.28055C16.4918 5.27112 16.4918 5.26616 16.4918 5.68704C16.4918 5.69945 16.4918 5.71186 16.4918 5.72427C16.4884 5.90294 16.5499 6.13076 16.463 6.24789C16.3702 6.37247 16.1389 6.39828 15.9647 6.45734C15.6138 6.57596 15.2535 6.66183 14.8947 6.75117C14.7934 6.77648 14.7467 6.76407 14.7522 6.64396C14.7606 6.45238 14.7482 6.2603 14.7567 6.06872C14.7616 5.96002 14.7224 5.93769 14.6207 5.9367C14.2182 5.93173 14.2182 5.92826 14.2182 6.33673C14.2182 6.47273 14.2082 6.60971 14.2211 6.74471C14.2321 6.86234 14.176 6.89162 14.0777 6.90651C13.5824 6.98096 13.085 7.03705 12.5862 7.08023C12.484 7.08916 12.4746 7.05492 12.4756 6.97253C12.479 6.76208 12.4721 6.55164 12.4785 6.3417C12.4815 6.24442 12.4512 6.21811 12.354 6.21563C11.9331 6.20421 11.9361 6.20074 11.9316 6.62411C11.9301 6.78343 12.0006 6.98841 11.9013 7.08966C11.802 7.19091 11.5956 7.12986 11.4363 7.13085C11.0774 7.13383 10.7186 7.12242 10.3597 7.12738C10.2277 7.12937 10.1915 7.08122 10.1979 6.95516C10.2079 6.75166 10.1964 6.54668 10.2024 6.34269C10.2054 6.24442 10.1701 6.2191 10.0743 6.21563C9.65544 6.20124 9.65544 6.19826 9.65544 6.62113C9.65544 6.63354 9.65643 6.64594 9.65544 6.65835C9.64551 6.79881 9.71798 6.99486 9.62368 7.06484C9.53731 7.12936 9.35169 7.06832 9.21123 7.05144C8.83055 7.00628 8.45135 6.95118 8.07067 6.90949C7.9461 6.8956 7.90639 6.84745 7.91185 6.72287C7.92178 6.50052 7.91135 6.27767 7.91632 6.05482C7.9183 5.96995 7.89795 5.94017 7.80563 5.9362C7.37929 5.91734 7.37929 5.91386 7.37929 6.33227C7.37929 6.79385 7.37979 6.79137 6.93012 6.67423C6.53603 6.5715 6.14692 6.45486 5.76375 6.31539C5.66548 6.27966 5.63421 6.2325 5.63769 6.12977C5.64612 5.88855 5.6357 5.64734 5.64265 5.40612C5.64563 5.30636 5.61039 5.28403 5.51559 5.28155C5.09421 5.27013 5.09421 5.26715 5.09421 5.68704V6.01114L5.09471 6.01164Z" fill="black"/>
<path id="Vector_5" d="M5.09523 16.4147C4.7339 16.2251 4.41923 16.0245 4.17752 15.7258C4.03309 15.5471 3.95666 15.3461 3.96112 15.1108C3.96857 14.7108 3.96311 14.3102 3.96311 13.8993C5.29326 14.9366 6.85768 15.2637 8.45336 15.491C9.86789 15.692 11.2904 15.7124 12.7128 15.5967C14.1403 15.4806 15.5439 15.2428 16.8735 14.6785C17.3346 14.4825 17.7664 14.2368 18.1689 13.8774C18.1679 14.3827 18.1967 14.8557 18.1536 15.3267C18.1352 15.5277 18.0022 15.6885 17.8647 15.8345C17.6369 16.0752 17.3599 16.2459 17.0398 16.4201C17.0398 16.2087 17.0343 16.0216 17.0418 15.8349C17.0462 15.7272 17.0229 15.6841 16.9018 15.6831C16.4928 15.6796 16.4928 15.6736 16.4928 16.0831V16.2687C16.4928 16.6787 16.4933 16.6807 16.1127 16.8122C15.7156 16.9492 15.3096 17.0539 14.9016 17.1527C14.7865 17.1805 14.7463 17.1567 14.7527 17.0331C14.7622 16.8479 14.7498 16.6618 14.7572 16.4762C14.7612 16.3754 14.7378 16.3392 14.6277 16.3382C14.2192 16.3333 14.2192 16.3283 14.2192 16.7328C14.2192 16.8008 14.2192 16.8688 14.2192 16.9373C14.2192 17.2941 14.2197 17.2991 13.8653 17.3423C13.4419 17.3939 13.0171 17.4326 12.5932 17.4837C12.5024 17.4947 12.4736 17.4763 12.4761 17.3825C12.482 17.1661 12.4786 16.9492 12.4776 16.7328C12.4776 16.6871 12.4959 16.6251 12.417 16.6241C12.281 16.6221 12.1445 16.6221 12.0085 16.6236C11.9222 16.6246 11.9356 16.6906 11.9351 16.7442C11.9346 16.9487 11.9247 17.1532 11.9381 17.3567C11.9475 17.5021 11.8934 17.5334 11.7599 17.5314C11.3023 17.5249 10.8437 17.5225 10.3861 17.5329C10.2243 17.5364 10.189 17.4773 10.1984 17.3304C10.2109 17.1457 10.1965 16.9591 10.2034 16.7735C10.2074 16.6683 10.187 16.6211 10.0644 16.6191C9.65646 16.6132 9.65894 16.6077 9.65497 17.0177C9.65348 17.1711 9.72346 17.3919 9.62717 17.4604C9.52592 17.5324 9.32193 17.4689 9.1641 17.4505C8.79583 17.4078 8.42855 17.3532 8.06028 17.311C7.94314 17.2976 7.90741 17.2505 7.91237 17.1333C7.9223 16.911 7.91088 16.6876 7.91733 16.4653C7.91981 16.3705 7.89599 16.3407 7.79573 16.3387C7.37981 16.3298 7.38031 16.3258 7.38031 16.7457C7.38031 17.1914 7.38031 17.1929 6.95595 17.0852C6.56137 16.9849 6.17225 16.8673 5.78859 16.7278C5.6665 16.6837 5.63275 16.6256 5.6387 16.5035C5.64913 16.2811 5.63672 16.0578 5.64367 15.8354C5.64714 15.7287 5.62629 15.6851 5.5042 15.6841C5.09523 15.6816 5.09523 15.6756 5.09523 16.0856C5.09523 16.1844 5.09523 16.2831 5.09523 16.4166V16.4147Z" fill="black"/>
<path id="Vector_6" d="M12.7124 7.61227C12.5625 7.79194 12.4002 7.87731 12.2329 7.95225C11.6016 8.23516 10.93 8.36916 10.2521 8.47042C8.58739 8.71957 6.91428 8.75134 5.23868 8.61385C4.19789 8.52849 3.16255 8.39547 2.17586 8.02273C1.97931 7.94878 1.78773 7.85993 1.63039 7.716C1.49291 7.59043 1.49242 7.52144 1.63238 7.39885C1.83587 7.22067 2.08453 7.1219 2.33518 7.03554C3.14568 6.75611 3.98844 6.635 4.83666 6.54219C4.90068 6.53524 4.95677 6.55063 5.01385 6.57793C6.01593 7.0544 7.08253 7.30306 8.17197 7.46833C9.47234 7.66537 10.7807 7.70955 12.0934 7.65148C12.2845 7.64304 12.4756 7.62765 12.7128 7.61227H12.7124Z" fill="black"/>
<path id="Vector_7" d="M5.5293 12.8699C5.89459 12.8699 6.27031 12.8639 6.64504 12.8709C8.42734 12.9031 10.1888 12.7562 11.9096 12.2599C12.3364 12.1368 12.7533 11.9854 13.1543 11.7919C13.2149 11.7626 13.274 11.7318 13.3474 11.7402C14.2686 11.8475 15.1858 11.971 16.0569 12.313C16.2177 12.376 16.3735 12.4525 16.511 12.5597C16.7105 12.715 16.714 12.8059 16.51 12.9607C16.235 13.1692 15.9119 13.2784 15.5858 13.3732C14.547 13.6754 13.4794 13.7911 12.4044 13.8546C11.0737 13.933 9.74509 13.9017 8.42238 13.739C7.57664 13.6347 6.73487 13.4987 5.94671 13.1483C5.78342 13.0759 5.62658 12.9905 5.5293 12.8704V12.8699Z" fill="black"/>
<path id="Vector_8" d="M14.019 11.2776C14.2066 11.1074 14.3694 10.9644 14.4905 10.7838C14.5282 10.7272 14.5769 10.7242 14.6355 10.7361C15.6107 10.9426 16.5662 11.2047 17.4203 11.7447C17.5717 11.8405 17.7137 11.9511 17.8397 12.0797C18.2839 12.5328 18.2864 12.9919 17.8407 13.4421C17.4997 13.7861 17.0779 14.0054 16.6381 14.1915C15.7224 14.5797 14.7605 14.7941 13.7798 14.9345C12.4402 15.1261 11.0942 15.1713 9.74516 15.077C8.22988 14.9713 6.73792 14.7435 5.33481 14.1171C4.94371 13.9424 4.57394 13.7315 4.27416 13.4178C4.09995 13.2356 3.96843 13.0301 3.96495 12.7641C3.96346 12.6673 3.97587 12.6192 4.09697 12.642C4.33372 12.6862 4.57345 12.7115 4.81218 12.7443C4.86529 12.7517 4.92683 12.7423 4.93626 12.8232C4.97696 13.1701 5.22363 13.3572 5.49314 13.518C5.85645 13.7354 6.25649 13.8635 6.66397 13.9652C8.12515 14.3315 9.61611 14.4333 11.115 14.4298C12.5827 14.4268 14.0428 14.3261 15.4737 13.9657C15.8271 13.8769 16.1721 13.7632 16.4987 13.5984C16.6371 13.5285 16.7692 13.449 16.8878 13.3493C17.3166 12.989 17.3176 12.5214 16.8813 12.1705C16.4674 11.8375 15.9686 11.6896 15.4668 11.5541C15.0032 11.429 14.5297 11.3506 14.0185 11.2766L14.019 11.2776Z" fill="black"/>
<path id="Vector_9" d="M1.74446 3.00189C1.55652 3.00189 1.46255 3.09603 1.46255 3.2843C1.46255 3.47257 1.36394 3.56687 1.16674 3.56721C1.0056 3.56721 0.925026 3.4863 0.925026 3.3245C0.925026 3.00239 0.92453 2.98948 0.594474 3.00735C0.397929 3.01777 0.344326 2.95821 0.354749 2.76564C0.371624 2.45742 0.359215 2.45692 0.664456 2.45692C0.720044 2.45692 0.776129 2.45345 0.831221 2.45792C0.903188 2.46338 0.933464 2.43509 0.925523 2.36262C0.922049 2.33235 0.925026 2.30108 0.925026 2.26981C0.925523 1.86779 0.973666 1.83155 1.38661 1.8931C1.4556 1.90352 1.46056 1.93281 1.46404 1.9879C1.47297 2.14027 1.39554 2.34277 1.4963 2.43112C1.58117 2.50606 1.77871 2.45295 1.92612 2.45692C1.94448 2.45692 1.97178 2.45047 1.98021 2.4604C2.09933 2.59838 2.00553 2.76167 2.03134 2.91206C2.04722 3.00437 1.97724 3.00536 1.91172 3.00338C1.85613 3.00189 1.80054 3.00338 1.74496 3.00338L1.74446 3.00189Z" fill="black"/>
<path id="Vector_10" d="M18.1619 7.97661C18.205 7.97661 18.2487 7.98108 18.2914 7.97562C18.3902 7.96371 18.4343 7.99051 18.4309 8.10318C18.4264 8.24314 18.3683 8.42479 18.4562 8.51364C18.544 8.60298 18.7257 8.54292 18.8656 8.53994C18.9738 8.53746 18.9977 8.57469 18.9992 8.67693C19.0046 9.07846 19.0081 9.08689 18.613 9.07647C18.4517 9.072 18.4209 9.1271 18.4244 9.2755C18.4343 9.65965 18.4274 9.65519 18.0368 9.65419C17.9236 9.65419 17.8889 9.62491 17.8894 9.50976C17.8904 9.37178 17.9584 9.18715 17.8556 9.10675C17.7698 9.03974 17.5956 9.07895 17.4606 9.08292C17.3603 9.0859 17.3216 9.06108 17.3191 8.9504C17.3092 8.5454 17.3052 8.53696 17.7176 8.54739C17.872 8.55136 17.9142 8.49825 17.8938 8.35978C17.8884 8.32354 17.8929 8.28582 17.8929 8.2486C17.8929 8.06727 17.9825 7.97661 18.1619 7.97661Z" fill="black"/>
<path id="Vector_11" d="M1.17206 15.3887C1.00761 15.3887 0.925382 15.3033 0.925382 15.1326C0.925382 14.9271 0.822642 14.8244 0.617164 14.8244C0.567531 14.8244 0.517402 14.8189 0.468762 14.8254C0.330288 14.8442 0.340214 14.7395 0.364038 14.6735C0.409203 14.5464 0.229037 14.3528 0.46231 14.2908C0.566042 14.263 0.684168 14.2794 0.794848 14.2878C0.90404 14.2963 0.939279 14.2516 0.925878 14.1499C0.920915 14.1136 0.922404 14.0754 0.925878 14.0387C0.934812 13.9359 0.876246 13.7811 0.952183 13.7414C1.08421 13.6719 1.25296 13.7185 1.40632 13.7205C1.47779 13.7215 1.45844 13.7895 1.4634 13.8357C1.47878 13.9811 1.3959 14.1737 1.50062 14.259C1.58798 14.33 1.77211 14.2883 1.91307 14.2844C2.01482 14.2814 2.03318 14.3246 2.03616 14.4159C2.04857 14.8229 2.05105 14.8308 1.64009 14.8204C1.48623 14.8164 1.44305 14.869 1.4634 15.0075C1.46787 15.0378 1.46389 15.069 1.46389 15.1003C1.46389 15.2926 1.36695 15.3887 1.17305 15.3887H1.17206Z" fill="black"/>
<path id="Vector_12" d="M17.9776 1.83803C17.8392 1.65191 17.664 1.50649 17.4739 1.37645C17.0053 1.05682 16.4867 0.844391 15.9506 0.673159C14.3684 0.166907 12.7364 0.0130457 11.0857 0.000141257C10.1685 -0.00333302 9.25621 0.0572187 8.34843 0.188745C7.30664 0.339628 6.2852 0.56893 5.32233 1.00867C4.88755 1.2072 4.47113 1.43998 4.16887 1.82563C3.89242 2.17802 3.89539 2.54381 4.17086 2.89471C4.24282 2.98653 4.32621 3.0719 4.41405 3.14883C4.73865 3.43223 5.11536 3.62977 5.51044 3.79356C6.87434 4.35937 8.3117 4.57924 9.77189 4.67751C11.1894 4.77281 12.6034 4.7192 14.0085 4.49784C14.9932 4.34299 15.9576 4.11319 16.8654 3.68635C17.2813 3.4908 17.6779 3.26249 17.9687 2.89322C18.2407 2.54778 18.2407 2.19043 17.9791 1.83803H17.9776ZM16.6445 3.11558C16.0703 3.44911 15.43 3.59652 14.7863 3.71613C13.0923 4.03179 11.383 4.07845 9.66667 3.98613C8.57227 3.92707 7.48829 3.79653 6.42963 3.49775C6.12588 3.41188 5.83206 3.30219 5.55362 3.1523C5.40075 3.06991 5.25781 2.97214 5.13869 2.84359C4.85628 2.53785 4.85727 2.16611 5.14663 1.86632C5.39777 1.60625 5.72038 1.46281 6.05243 1.3427C6.84208 1.05831 7.66548 0.926781 8.49385 0.827516C9.35448 0.72428 10.2201 0.691523 11.1383 0.688048C12.5116 0.700953 13.9291 0.785824 15.3213 1.11687C15.7844 1.22706 16.2405 1.36057 16.6529 1.60675C17.3989 2.05195 17.3964 2.67782 16.6435 3.11558H16.6445Z" fill="black"/>
<path id="Vector_13" d="M10.9372 3.4923C9.63584 3.47493 8.21833 3.39204 6.82911 3.0466C6.42808 2.94683 6.03053 2.82871 5.68012 2.59742C5.41012 2.41924 5.40814 2.29814 5.67764 2.12244C6.1149 1.83804 6.61272 1.7085 7.11401 1.60427C9.13504 1.18389 11.1754 1.14765 13.2238 1.33179C14.1355 1.41369 15.0383 1.5472 15.9064 1.85541C16.1451 1.94029 16.3764 2.04054 16.5705 2.21178C16.6842 2.31203 16.6866 2.40137 16.5725 2.50262C16.3496 2.70016 16.0796 2.80538 15.8047 2.89869C15.0165 3.16671 14.1981 3.2888 13.3747 3.37566C12.6053 3.45656 11.8331 3.48981 10.9367 3.4918L10.9372 3.4923Z" fill="black"/>
</g>
</svg>
