<svg width="32" height="29" viewBox="0 0 32 29" fill="none" xmlns="http://www.w3.org/2000/svg">
<g id="Group 515">
<path id="Vector" d="M0 12.2921C0.581222 10.9408 1.83068 10.4548 3.0588 9.95326C3.9487 9.58958 4.88456 9.37039 5.82207 9.16434C5.98051 9.12986 6.08641 9.15613 6.18 9.30307C6.3606 9.58466 6.63315 9.78825 6.89668 10.0542C5.84506 10.2061 4.84434 10.3842 3.87235 10.6954C3.31658 10.8735 2.77476 11.0837 2.2978 11.4285C1.40052 12.0778 1.39641 12.9398 2.29944 13.5834C3.11545 14.1655 4.06691 14.4183 5.02659 14.6219C8.33742 15.3246 11.6827 15.3903 15.0428 15.1292C16.7479 14.9963 18.4357 14.7607 20.0595 14.1934C20.5431 14.0243 21.0077 13.8133 21.4059 13.4808C21.6719 13.2592 21.8853 12.9989 21.9239 12.6418C21.9395 12.494 22.0224 12.4908 22.1291 12.4776C22.5347 12.4259 22.941 12.3775 23.3433 12.3093C23.5034 12.2822 23.5354 12.3299 23.5362 12.476C23.5403 12.9415 23.3104 13.2961 23.0042 13.6105C22.4378 14.1934 21.7301 14.5603 20.9938 14.8731C19.4791 15.5159 17.8874 15.8697 16.2652 16.1012C14.0692 16.4148 11.8633 16.492 9.65173 16.3401C7.13392 16.1669 4.6547 15.795 2.32325 14.7565C1.99816 14.6121 1.68456 14.4364 1.37835 14.2541C0.762649 13.8864 0.270909 13.402 0 12.7223V12.2921Z" fill="#3F48CC"/>
<path id="Vector_2" d="M0 14.319C0.0205234 14.3428 0.0410467 14.3674 0.0615701 14.3912C0.211801 14.7278 0.20195 16.3951 0.0484352 16.6619L0.0213443 16.6751L0 16.6537C0 15.8755 0 15.0972 0 14.319Z" fill="#3F48CC"/>
<path id="Vector_3" d="M0.0473847 16.6619C0.0514894 15.905 0.056415 15.1481 0.0605196 14.3912C1.76724 15.7909 3.81384 16.3697 5.91953 16.7695C9.60307 17.4681 13.3022 17.4779 17.0013 16.8901C18.6481 16.6283 20.2596 16.2211 21.7751 15.4978C22.3941 15.2023 22.9712 14.8452 23.5163 14.3633C23.5163 15.1785 23.5294 15.9584 23.5081 16.7383C23.5015 16.9706 23.3554 17.1791 23.2101 17.3671C22.807 17.8876 22.2717 18.2299 21.6626 18.5468C21.6626 18.1856 21.6569 17.8695 21.6651 17.5543C21.6692 17.4032 21.6339 17.3417 21.4631 17.3359C20.7612 17.3105 20.7612 17.3031 20.7612 17.9968V18.3654C20.7612 18.9803 20.7604 18.9778 20.1628 19.1896C19.4888 19.4285 18.7959 19.6009 18.103 19.7741C17.9208 19.8192 17.8715 19.7659 17.8789 19.5853C17.8912 19.2889 17.8822 18.9917 17.8822 18.6954C17.8822 18.665 17.8806 18.6338 17.8822 18.6034C17.9019 18.3137 17.9397 18.3375 17.5645 18.3424C16.9201 18.3711 17.0514 18.2291 17.0063 18.6043C16.9595 18.9876 16.9874 19.3809 16.9997 19.7692C17.0054 19.9399 16.9414 20.0007 16.7813 20.0253C15.9522 20.1509 15.1189 20.242 14.284 20.3176C14.1272 20.3315 14.1182 20.2675 14.119 20.1493C14.1223 19.8012 14.1108 19.4531 14.124 19.1059C14.1305 18.9269 14.0681 18.8858 13.8974 18.8826C13.2152 18.8702 13.216 18.8637 13.216 19.5393C13.216 19.7027 13.2004 19.8685 13.2193 20.0302C13.2505 20.297 13.1733 20.4054 12.8794 20.3972C12.1225 20.3767 11.3648 20.3824 10.6079 20.3923C10.3903 20.3955 10.3271 20.3217 10.3378 20.1099C10.3542 19.7733 10.3362 19.4342 10.3452 19.0968C10.3493 18.94 10.3033 18.8875 10.1383 18.8809C9.45202 18.8555 9.45202 18.8489 9.45202 19.5286C9.45202 19.5385 9.45202 19.5492 9.45202 19.559C9.44545 19.8036 9.53329 20.1567 9.40851 20.265C9.23857 20.4128 8.90774 20.2831 8.64914 20.2568C8.03919 20.1936 7.43334 20.0951 6.82338 20.031C6.60583 20.0081 6.55986 19.9153 6.56725 19.7183C6.58121 19.3505 6.56479 18.9811 6.57464 18.6133C6.57874 18.4672 6.53523 18.4278 6.38747 18.4228C5.679 18.3957 5.67982 18.3908 5.67982 19.1059C5.67982 19.8209 5.67982 19.834 4.96561 19.6501C4.33349 19.4868 3.71122 19.293 3.09223 19.0812C2.8517 18.9991 2.78849 18.8793 2.80244 18.642C2.82297 18.2751 2.80244 17.9056 2.81065 17.537C2.81311 17.3975 2.77617 17.3449 2.6243 17.3359C1.90434 17.2932 1.90516 17.2875 1.90516 18.0124C1.90516 18.1757 1.90516 18.3391 1.90516 18.5591C1.09572 18.0707 0.275605 17.6635 0.0449219 16.6619H0.0473847Z" fill="#3F48CC"/>
<path id="Vector_4" d="M8.42734 9.94341C7.88552 9.66183 7.42334 9.36629 7.0416 8.95993C6.71323 8.61103 6.53344 8.21042 6.54986 7.71457C6.57039 7.08081 6.55479 6.44623 6.55479 5.81246C6.66808 5.77552 6.70256 5.87321 6.75756 5.91836C7.71969 6.71303 8.84438 7.19081 10.0183 7.56023C12.9581 8.48461 15.9832 8.74402 19.0453 8.68656C21.5393 8.63976 24.0005 8.35326 26.3951 7.62427C27.7078 7.22529 28.9622 6.70318 30.0368 5.76567C30.0368 6.57511 30.0491 7.34761 30.0302 8.12011C30.0237 8.37871 29.8644 8.60036 29.7035 8.80149C29.3062 9.29815 28.7849 9.62981 28.184 9.94587C28.184 9.59451 28.1774 9.28338 28.1864 8.97224C28.1913 8.81298 28.1643 8.73828 27.9738 8.73417C27.2785 8.71857 27.2785 8.71036 27.2785 9.40652C27.2785 9.42704 27.2785 9.44756 27.2785 9.46809C27.2727 9.76362 27.3745 10.1404 27.2309 10.3342C27.0773 10.5402 26.6948 10.5829 26.4066 10.6806C25.8262 10.8768 25.2302 11.0188 24.6367 11.1666C24.4692 11.2085 24.3921 11.1879 24.4011 10.9893C24.415 10.6724 24.3945 10.3547 24.4085 10.0378C24.4167 9.85803 24.3518 9.82109 24.1835 9.81945C23.5178 9.81124 23.5178 9.80549 23.5178 10.4811C23.5178 10.7061 23.5013 10.9326 23.5227 11.1559C23.5408 11.3505 23.448 11.3989 23.2854 11.4236C22.4661 11.5467 21.6436 11.6395 20.8185 11.7109C20.6494 11.7257 20.6338 11.669 20.6355 11.5327C20.6412 11.1847 20.6297 10.8366 20.6404 10.4893C20.6453 10.3284 20.5952 10.2849 20.4343 10.2808C19.7382 10.2619 19.7431 10.2562 19.7357 10.9564C19.7333 11.22 19.8498 11.559 19.6856 11.7265C19.5215 11.8939 19.1799 11.793 18.9164 11.7946C18.3229 11.7995 17.7294 11.7807 17.1358 11.7889C16.9174 11.7922 16.8575 11.7125 16.8682 11.504C16.8846 11.1674 16.8657 10.8284 16.8756 10.491C16.8805 10.3284 16.8222 10.2866 16.6638 10.2808C15.9709 10.257 15.9709 10.2521 15.9709 10.9515C15.9709 10.972 15.9726 10.9926 15.9709 11.0131C15.9545 11.2454 16.0743 11.5697 15.9184 11.6854C15.7755 11.7922 15.4685 11.6912 15.2362 11.6633C14.6065 11.5886 13.9793 11.4974 13.3497 11.4285C13.1436 11.4055 13.0779 11.3259 13.087 11.1198C13.1034 10.752 13.0861 10.3834 13.0944 10.0148C13.0976 9.87445 13.064 9.82519 12.9113 9.81863C12.2061 9.78743 12.2061 9.78168 12.2061 10.4737C12.2061 11.2372 12.2069 11.2331 11.4632 11.0394C10.8113 10.8694 10.1677 10.6765 9.53396 10.4458C9.37142 10.3867 9.3197 10.3087 9.32544 10.1388C9.3394 9.73982 9.32216 9.34084 9.33365 8.94187C9.33858 8.77686 9.28029 8.73992 9.12349 8.73581C8.42652 8.71693 8.42652 8.71201 8.42652 9.40652V9.94259L8.42734 9.94341Z" fill="#3F48CC"/>
<path id="Vector_5" d="M8.42888 27.1502C7.83124 26.8366 7.31076 26.5049 6.91097 26.0107C6.67208 25.7152 6.54565 25.3827 6.55304 24.9936C6.56535 24.3319 6.55632 23.6694 6.55632 22.9897C8.75643 24.7055 11.344 25.2465 13.9833 25.6224C16.323 25.9549 18.6758 25.9886 21.0286 25.7973C23.3896 25.6052 25.7112 25.212 27.9105 24.2786C28.6731 23.9543 29.3873 23.5479 30.0531 22.9536C30.0515 23.7893 30.0991 24.5716 30.0277 25.3507C29.9973 25.6832 29.7773 25.9492 29.5499 26.1905C29.1731 26.5887 28.715 26.8711 28.1855 27.1592C28.1855 26.8095 28.1765 26.5 28.1888 26.1914C28.1962 26.0132 28.1576 25.9418 27.9573 25.9401C27.2808 25.9344 27.2808 25.9245 27.2808 26.6018V26.9088C27.2808 27.5869 27.2816 27.5902 26.652 27.8078C25.9952 28.0343 25.3237 28.2076 24.6489 28.3709C24.4585 28.4169 24.392 28.3775 24.4026 28.1731C24.4182 27.8669 24.3977 27.559 24.41 27.252C24.4166 27.0853 24.378 27.0254 24.1958 27.0238C23.5201 27.0156 23.5201 27.0074 23.5201 27.6764C23.5201 27.7889 23.5201 27.9014 23.5201 28.0146C23.5201 28.6049 23.5209 28.6131 22.9348 28.6845C22.2345 28.7699 21.5318 28.8339 20.8307 28.9185C20.6805 28.9366 20.6329 28.9062 20.637 28.751C20.6469 28.3931 20.6411 28.0343 20.6395 27.6764C20.6395 27.6009 20.6698 27.4983 20.5393 27.4966C20.3144 27.4934 20.0886 27.4934 19.8637 27.4958C19.7208 27.4975 19.743 27.6066 19.7422 27.6953C19.7414 28.0335 19.7249 28.3718 19.7471 28.7083C19.7627 28.9489 19.6732 29.0006 19.4524 28.9973C18.6955 28.9866 17.9369 28.9825 17.18 28.9998C16.9124 29.0055 16.8541 28.9078 16.8697 28.6648C16.8903 28.3594 16.8664 28.0508 16.8779 27.7437C16.8845 27.5697 16.8508 27.4917 16.6481 27.4884C15.9733 27.4786 15.9774 27.4695 15.9708 28.1476C15.9683 28.4013 16.0841 28.7666 15.9248 28.8799C15.7574 28.9989 15.42 28.8939 15.1589 28.8635C14.5498 28.7929 13.9423 28.7026 13.3331 28.6328C13.1394 28.6106 13.0803 28.5327 13.0885 28.3389C13.1049 27.9711 13.086 27.6017 13.0967 27.2339C13.1008 27.0771 13.0614 27.0279 12.8956 27.0246C12.2076 27.0098 12.2085 27.0033 12.2085 27.6978C12.2085 28.435 12.2085 28.4374 11.5066 28.2593C10.8539 28.0935 10.2103 27.8989 9.57572 27.6682C9.37377 27.5951 9.31795 27.4991 9.3278 27.2972C9.34504 26.9294 9.32452 26.5599 9.33601 26.1922C9.34176 26.0157 9.30728 25.9434 9.10533 25.9418C8.42888 25.9377 8.42888 25.9278 8.42888 26.6059C8.42888 26.7693 8.42888 26.9327 8.42888 27.1535V27.1502Z" fill="#3F48CC"/>
<path id="Vector_6" d="M21.0276 12.5909C20.7797 12.8881 20.5113 13.0293 20.2346 13.1532C19.1904 13.6212 18.0797 13.8428 16.9583 14.0103C14.2048 14.4224 11.4375 14.475 8.66599 14.2476C6.94449 14.1064 5.23202 13.8863 3.6 13.2698C3.27491 13.1475 2.95803 13.0006 2.69779 12.7625C2.47039 12.5548 2.46957 12.4407 2.70108 12.2379C3.03766 11.9432 3.44895 11.7798 3.86352 11.637C5.20411 11.1748 6.59805 10.9745 8.00103 10.821C8.10693 10.8095 8.1997 10.8349 8.29411 10.8801C9.95157 11.6682 11.7158 12.0795 13.5177 12.3528C15.6686 12.6787 17.8326 12.7518 20.0039 12.6558C20.32 12.6418 20.636 12.6164 21.0285 12.5909H21.0276Z" fill="#3F48CC"/>
<path id="Vector_7" d="M9.14453 21.2871C9.74874 21.2871 10.3702 21.2772 10.99 21.2887C13.938 21.3421 16.8515 21.0991 19.6976 20.2782C20.4037 20.0746 21.0932 19.8242 21.7566 19.504C21.8567 19.4556 21.9544 19.4047 22.0759 19.4186C23.5996 19.596 25.1166 19.8004 26.5574 20.366C26.8234 20.4703 27.0811 20.5967 27.3085 20.774C27.6386 21.031 27.6443 21.1812 27.3069 21.4373C26.8521 21.7821 26.3177 21.9627 25.7783 22.1195C24.0601 22.6195 22.2943 22.8107 20.5161 22.9158C18.3152 23.0455 16.1176 22.9938 13.9298 22.7245C12.5309 22.5521 11.1386 22.3272 9.83494 21.7476C9.56485 21.6278 9.30543 21.4866 9.14453 21.2879V21.2871Z" fill="#3F48CC"/>
<path id="Vector_8" d="M23.1865 18.6535C23.4968 18.3719 23.7661 18.1355 23.9664 17.8367C24.0288 17.7431 24.1092 17.7382 24.2061 17.7579C25.8192 18.0994 27.3995 18.5328 28.8124 19.426C29.0628 19.5845 29.2975 19.7675 29.5061 19.9802C30.2408 20.7297 30.2449 21.489 29.5077 22.2336C28.9437 22.8025 28.2459 23.1654 27.5186 23.4732C26.0039 24.1152 24.413 24.4699 22.7908 24.7022C20.5751 25.0191 18.3487 25.0938 16.1174 24.9378C13.6111 24.7629 11.1434 24.3861 8.8226 23.3501C8.1757 23.0611 7.56411 22.7122 7.06826 22.1934C6.78011 21.8921 6.56257 21.5522 6.55682 21.1122C6.55436 20.9521 6.57488 20.8725 6.77519 20.9103C7.16677 20.9833 7.56329 21.0252 7.95816 21.0794C8.046 21.0917 8.14779 21.0761 8.16339 21.2099C8.23071 21.7838 8.63871 22.0932 9.08448 22.3592C9.6854 22.7188 10.3471 22.9306 11.0211 23.0989C13.4379 23.7047 15.904 23.873 18.3832 23.8673C20.8107 23.8624 23.2259 23.6957 25.5927 23.0997C26.1772 22.9528 26.7477 22.7648 27.2879 22.4922C27.5169 22.3765 27.7353 22.2451 27.9315 22.0801C28.6408 21.4841 28.6424 20.7108 27.9208 20.1304C27.2362 19.5795 26.4111 19.3349 25.5812 19.1108C24.8144 18.9039 24.0312 18.7742 23.1857 18.6519L23.1865 18.6535Z" fill="#3F48CC"/>
<path id="Vector_9" d="M2.8866 4.96525C2.57573 4.96525 2.4203 5.12095 2.4203 5.43236C2.4203 5.74377 2.25721 5.89975 1.93103 5.90029C1.6645 5.90029 1.53123 5.76648 1.53123 5.49886C1.53123 4.96607 1.53041 4.94473 0.984488 4.97428C0.659398 4.99152 0.570737 4.89301 0.587977 4.57448C0.615889 4.06468 0.595365 4.06386 1.10024 4.06386C1.19218 4.06386 1.28495 4.05812 1.37607 4.0655C1.49511 4.07453 1.54519 4.02774 1.53205 3.90788C1.52631 3.85781 1.53123 3.80609 1.53123 3.75437C1.53205 3.08941 1.61168 3.02948 2.2947 3.13128C2.40881 3.14852 2.41702 3.19696 2.42277 3.28808C2.43754 3.54011 2.30948 3.87505 2.47613 4.02117C2.61651 4.14514 2.94324 4.0573 3.18706 4.06386C3.21743 4.06386 3.26258 4.05319 3.27654 4.06961C3.47356 4.29783 3.31841 4.56792 3.3611 4.81666C3.38737 4.96935 3.27161 4.971 3.16325 4.96771C3.07131 4.96525 2.97936 4.96771 2.88742 4.96771L2.8866 4.96525Z" fill="#3F48CC"/>
<path id="Vector_10" d="M30.039 13.1935C30.1104 13.1935 30.1827 13.2009 30.2533 13.1918C30.4167 13.1721 30.4897 13.2165 30.484 13.4028C30.4766 13.6343 30.3805 13.9348 30.5258 14.0817C30.6711 14.2295 30.9716 14.1302 31.2031 14.1252C31.3821 14.1211 31.4215 14.1827 31.4239 14.3518C31.433 15.016 31.4387 15.0299 30.7853 15.0127C30.5185 15.0053 30.4676 15.0964 30.4733 15.3419C30.4897 15.9773 30.4782 15.9699 29.8322 15.9682C29.645 15.9682 29.5875 15.9198 29.5883 15.7294C29.59 15.5011 29.7024 15.1957 29.5325 15.0628C29.3905 14.9519 29.1023 15.0168 28.879 15.0233C28.7132 15.0283 28.6492 14.9872 28.6451 14.8042C28.6287 14.1343 28.6221 14.1203 29.3043 14.1376C29.5596 14.1441 29.6294 14.0563 29.5957 13.8272C29.5867 13.7673 29.5941 13.7049 29.5941 13.6434C29.5941 13.3434 29.7424 13.1935 30.039 13.1935Z" fill="#3F48CC"/>
<path id="Vector_11" d="M1.939 25.4533C1.667 25.4533 1.53099 25.3121 1.53099 25.0297C1.53099 24.6898 1.36106 24.5199 1.02119 24.5199C0.939101 24.5199 0.856186 24.5109 0.775735 24.5216C0.546694 24.5528 0.563113 24.3795 0.602517 24.2704C0.677223 24.0602 0.379223 23.74 0.765063 23.6374C0.936638 23.5914 1.13202 23.6185 1.31509 23.6325C1.49569 23.6464 1.55398 23.5726 1.53182 23.4043C1.52361 23.3443 1.52607 23.2811 1.53182 23.2204C1.54659 23.0504 1.44972 22.7943 1.57533 22.7286C1.79369 22.6137 2.07281 22.6909 2.32648 22.6942C2.4447 22.6958 2.41268 22.8083 2.42089 22.8846C2.44634 23.1251 2.30924 23.4437 2.48246 23.5849C2.62694 23.7023 2.93151 23.6333 3.16466 23.6267C3.33295 23.6218 3.36332 23.6932 3.36825 23.8443C3.38877 24.5175 3.39288 24.5306 2.71314 24.5133C2.45865 24.5068 2.38723 24.5938 2.42089 24.8228C2.42828 24.8729 2.42171 24.9246 2.42171 24.9764C2.42171 25.2943 2.26135 25.4533 1.94064 25.4533H1.939Z" fill="#3F48CC"/>
<path id="Vector_12" d="M29.7354 3.04016C29.5064 2.73231 29.2166 2.49177 28.9022 2.27669C28.1272 1.748 27.2693 1.39664 26.3827 1.11342C23.7656 0.276068 21.0664 0.021578 18.3359 0.000233642C16.8188 -0.0055129 15.31 0.0946411 13.8085 0.312189C12.0853 0.561753 10.3958 0.941025 8.80324 1.66837C8.0841 1.99675 7.39533 2.38177 6.89538 3.01963C6.43812 3.6025 6.44305 4.20753 6.89867 4.78793C7.0177 4.9398 7.15562 5.081 7.30092 5.20825C7.83782 5.677 8.46091 6.00373 9.11437 6.27464C11.3703 7.21051 13.7477 7.57418 16.1629 7.73672C18.5075 7.89434 20.8464 7.80568 23.1704 7.43955C24.7992 7.18341 26.3942 6.80332 27.8957 6.09732C28.5837 5.77387 29.2396 5.39624 29.7207 4.78546C30.1705 4.21409 30.1705 3.62302 29.7379 3.04016H29.7354ZM27.5304 5.15324C26.5806 5.70491 25.5216 5.94873 24.4568 6.14657C21.655 6.66869 18.8277 6.74586 15.9889 6.59316C14.1787 6.49547 12.3858 6.27957 10.6347 5.78536C10.1323 5.64334 9.64634 5.46191 9.18579 5.21399C8.93294 5.07772 8.69651 4.91599 8.49949 4.70337C8.03238 4.19767 8.03402 3.58279 8.51262 3.08695C8.92802 2.65678 9.46163 2.41953 10.0108 2.22086C11.3169 1.75047 12.6789 1.53292 14.049 1.36873C15.4725 1.19798 16.9042 1.1438 18.423 1.13805C20.6945 1.15939 23.0391 1.29977 25.3418 1.84734C26.1077 2.02958 26.8622 2.25042 27.5444 2.6576C28.7782 3.39398 28.7741 4.42918 27.5288 5.15324H27.5304Z" fill="#3F48CC"/>
<path id="Vector_13" d="M18.0926 5.77634C15.9401 5.74761 13.5955 5.61051 11.2977 5.03914C10.6344 4.87413 9.97682 4.67875 9.39724 4.29619C8.95065 4.00148 8.94737 3.80117 9.39313 3.51056C10.1164 3.04016 10.9398 2.8259 11.7689 2.6535C15.1118 1.95817 18.4866 1.89824 21.8746 2.20281C23.3827 2.33826 24.876 2.5591 26.3118 3.0689C26.7067 3.20928 27.0892 3.3751 27.4102 3.65833C27.5982 3.82416 27.6023 3.97192 27.4135 4.13939C27.0449 4.46613 26.5983 4.64017 26.1435 4.7945C24.8398 5.23781 23.4861 5.43976 22.1242 5.58342C20.8517 5.71723 19.5744 5.77223 18.0918 5.77552L18.0926 5.77634Z" fill="#3F48CC"/>
</g>
</svg>
