<svg width="19" height="19" viewBox="0 0 19 19" fill="none" xmlns="http://www.w3.org/2000/svg">
<g id="Group 529">
<path id="Vector" d="M15.4021 0.000929642C15.7014 0.0711176 16.01 0.115276 16.2992 0.215212C18.7669 1.0663 19.7625 3.9124 18.3597 6.10914C18.1947 6.36712 17.9879 6.60464 17.7713 6.82264C16.1802 8.42395 14.5807 10.0169 12.9859 11.614C12.1265 12.4749 11.0932 12.9006 9.87627 12.8323C8.88713 12.7765 8.03604 12.3852 7.32905 11.6907C7.01297 11.3802 7.00693 10.9075 7.30023 10.5877C7.58796 10.2744 8.06998 10.2419 8.40046 10.5394C8.78115 10.8819 9.19903 11.1413 9.71172 11.2217C10.4503 11.3374 11.1113 11.1613 11.6775 10.669C11.8778 10.4947 12.06 10.3 12.2483 10.1117C13.7227 8.6387 15.1975 7.16615 16.6692 5.6908C17.49 4.86761 17.6509 3.71113 17.0847 2.75128C16.3271 1.46651 14.5672 1.18111 13.4679 2.19349C12.7679 2.8382 12.1135 3.53217 11.4385 4.20384C11.1889 4.45252 10.9444 4.70678 10.6897 4.95034C10.3495 5.27572 9.87162 5.27711 9.55787 4.96382C9.24504 4.651 9.24272 4.16666 9.5746 3.83245C10.494 2.90653 11.4144 1.98153 12.3482 1.07048C12.9604 0.473188 13.7092 0.142235 14.557 0.0339319C14.5919 0.0292837 14.6253 0.0116205 14.6593 0C14.9066 0 15.1543 0 15.4016 0L15.4021 0.000929642Z" fill="#3F48CC"/>
<path id="Vector_2" d="M0 14.6605C0.0618212 14.3913 0.109698 14.118 0.188717 13.854C0.380688 13.2135 0.735812 12.6692 1.20714 12.1978C2.66761 10.7374 4.12482 9.27366 5.58947 7.81784C6.85843 6.55631 8.6057 6.24814 10.194 7.0309C10.5696 7.21589 10.9093 7.49339 11.2273 7.77136C11.5587 8.0614 11.5452 8.55551 11.2482 8.86926C10.9591 9.17465 10.4854 9.20719 10.1615 8.91667C9.77565 8.57038 9.35406 8.30636 8.83392 8.22688C8.10183 8.11486 7.44783 8.29056 6.884 8.77397C6.71992 8.91482 6.57117 9.07285 6.41825 9.22578C5.05353 10.5896 3.68789 11.9524 2.32596 13.319C1.50927 14.1385 1.35216 15.3038 1.92157 16.2595C2.68574 17.5419 4.44787 17.8217 5.53974 16.8033C6.32157 16.074 7.0611 15.2991 7.81736 14.5429C8.05302 14.3067 8.32215 14.1915 8.6559 14.2881C9.19277 14.4434 9.401 15.0862 9.05843 15.5278C9.03566 15.5571 9.01241 15.5864 8.98638 15.6124C8.18875 16.4063 7.41343 17.2244 6.58791 17.9881C4.43765 19.9762 0.849228 18.8913 0.136657 16.0517C0.083203 15.8374 0.0450876 15.6189 0 15.4028C0 15.1555 0 14.9078 0 14.6605Z" fill="#3F48CC"/>
</g>
</svg>
