<svg width="17" height="18" viewBox="0 0 17 18" fill="none" xmlns="http://www.w3.org/2000/svg">
<g id="Group 542">
<path id="Vector" d="M4.38116 3.03201C4.37398 2.5872 4.43383 2.17252 4.60954 1.78848C5.12756 0.654807 6.00467 0.0257469 7.23893 0.0135935C9.53798 -0.00974098 11.838 0.00289855 14.137 0.00824605C15.7227 0.0121351 16.9943 1.30283 16.9962 2.91582C17.0015 6.79859 17.001 10.6818 16.9962 14.5646C16.9943 16.1873 15.7241 17.477 14.1265 17.4805C11.8332 17.4858 9.53941 17.4897 7.24611 17.478C6.2158 17.4727 5.41291 17.006 4.83935 16.1387C4.77758 16.0449 4.72971 16.0002 4.60236 16.0182C2.93433 16.2573 1.56888 15.2384 1.26678 13.5534C0.869878 11.3362 0.466756 9.11989 0.0564513 6.90457C-0.260015 5.19823 0.782742 3.67371 2.46609 3.39029C3.10094 3.28334 3.73243 3.15403 4.38116 3.03201ZM5.52973 8.74411C5.52973 10.6488 5.52973 12.5535 5.52973 14.4586C5.52973 15.5758 6.25889 16.3166 7.35862 16.3166C9.58011 16.3166 11.8016 16.3166 14.0231 16.3166C15.1233 16.3166 15.8515 15.5763 15.8515 14.4581C15.8515 10.6488 15.8515 6.83894 15.8515 3.02958C15.8515 1.91147 15.1233 1.17206 14.0226 1.17206C11.8011 1.17206 9.57963 1.17206 7.35815 1.17206C6.25841 1.17206 5.53021 1.91244 5.52973 3.03007C5.52973 4.93475 5.52973 6.83943 5.52973 8.74459V8.74411Z" fill="#3F48CC"/>
<path id="Vector_2" d="M10.6917 5.84887C11.1729 5.21301 11.7632 4.99668 12.3961 5.21106C12.7715 5.33843 13.0496 5.58441 13.2268 5.94124C13.6596 6.81191 14.0886 7.68501 14.5156 8.55859C14.676 8.88625 14.5692 9.23432 14.2729 9.38211C13.9765 9.52989 13.65 9.40301 13.4848 9.06903C13.0774 8.24601 12.6728 7.42201 12.2678 6.59752C12.1979 6.45557 12.1395 6.30487 11.9446 6.30244C11.7503 6.3 11.6842 6.4439 11.6172 6.58974C11.5267 6.78614 11.3649 6.98205 11.3639 7.17845C11.3634 7.36805 11.5281 7.55861 11.6205 7.74869C11.7531 8.01995 11.8886 8.28976 12.0188 8.56248C12.1764 8.89257 12.0706 9.23918 11.7718 9.38454C11.4793 9.52697 11.1528 9.4035 10.9933 9.08119C10.5778 8.24212 10.166 7.40159 9.7538 6.56106C9.68773 6.42591 9.61783 6.30292 9.44308 6.30292C9.26833 6.30292 9.19986 6.42543 9.13331 6.56106C8.72397 7.39624 8.31031 8.22948 7.90192 9.06515C7.78798 9.29752 7.61801 9.43704 7.35661 9.4385C6.97072 9.44044 6.69782 9.05396 6.81751 8.68061C6.81943 8.67478 6.81991 8.66846 6.8223 8.66311C7.29963 7.70008 7.73579 6.71273 8.26722 5.7813C8.75221 4.93105 9.97164 4.91841 10.5758 5.69622C10.6118 5.74241 10.6462 5.78956 10.6912 5.84936L10.6917 5.84887Z" fill="#3F48CC"/>
<path id="Vector_3" d="M10.6793 12.2394C9.83184 12.2394 8.98442 12.2419 8.137 12.238C7.83777 12.2365 7.59982 12.0192 7.5687 11.7377C7.53471 11.4286 7.70707 11.1665 7.99768 11.0931C8.05465 11.0785 8.11546 11.0751 8.17482 11.0751C9.85195 11.0742 11.5286 11.0737 13.2057 11.0751C13.5308 11.0751 13.7774 11.2832 13.8099 11.5759C13.8444 11.8831 13.6716 12.1466 13.3805 12.2195C13.3067 12.238 13.2268 12.2385 13.1497 12.2385C12.3262 12.2399 11.5027 12.2394 10.6788 12.2389L10.6793 12.2394Z" fill="#3F48CC"/>
<path id="Vector_4" d="M9.27462 2.33683C9.62651 2.33683 9.97793 2.33537 10.3298 2.33683C10.6942 2.33877 10.9465 2.5799 10.9455 2.92068C10.9446 3.26243 10.6937 3.50015 10.326 3.50112C9.61071 3.50258 8.89495 3.50307 8.17967 3.50112C7.81294 3.50015 7.5635 3.26049 7.56446 2.91728C7.56541 2.57649 7.81725 2.33926 8.1835 2.33732C8.54737 2.33537 8.91075 2.33732 9.27462 2.33732V2.33683Z" fill="#3F48CC"/>
<path id="Vector_5" d="M9.27461 13.4047C9.62651 13.4047 9.97792 13.4032 10.3298 13.4047C10.6942 13.4066 10.9465 13.6473 10.9455 13.988C10.945 14.3298 10.6937 14.568 10.3265 14.5685C9.61119 14.5699 8.89543 14.5704 8.18015 14.5685C7.81341 14.5675 7.56398 14.3278 7.56445 13.9846C7.56493 13.6438 7.81724 13.4061 8.1835 13.4042C8.54736 13.4022 8.91075 13.4042 9.27461 13.4042V13.4047Z" fill="#3F48CC"/>
</g>
</svg>
