<svg width="19" height="19" viewBox="0 0 19 19" fill="none" xmlns="http://www.w3.org/2000/svg">
<g id="Group 20">
<path id="Vector" d="M0 0.636502C0.174483 0.154285 0.527975 -0.0141639 1.02578 0.00092105C1.70259 0.0215372 2.38092 0.00594938 3.05873 0.00594938C3.61185 0.00594938 3.8507 0.180935 4.02669 0.710419C4.24794 1.37567 4.47019 2.04092 4.69294 2.70616C4.83022 3.11698 4.97855 3.22408 5.40898 3.22408C9.6192 3.22408 13.8294 3.22408 18.0391 3.22509C18.1638 3.22509 18.2936 3.22207 18.4127 3.25224C18.8759 3.3694 19.1092 3.83553 18.9503 4.32126C18.6813 5.14239 18.4072 5.96151 18.1342 6.78112C17.7128 8.04625 17.2899 9.31088 16.8675 10.5755C16.7021 11.0718 16.4567 11.2508 15.9378 11.2508C13.1707 11.2508 10.4036 11.2508 7.63703 11.2508C7.1523 11.2508 7.03363 11.3423 6.91496 11.8079C6.87323 11.9719 6.82697 12.1348 6.79076 12.2997C6.7254 12.5964 6.89083 12.8227 7.19404 12.8554C7.26846 12.8634 7.34438 12.8599 7.41981 12.8599C10.5193 12.8599 13.6187 12.8599 16.7182 12.8619C16.8605 12.8619 17.0108 12.8684 17.1436 12.9127C17.5092 13.0334 17.7138 13.4019 17.657 13.7946C17.6047 14.1527 17.2909 14.4342 16.9188 14.4569C16.8685 14.4599 16.8183 14.4599 16.7685 14.4599C13.6127 14.4599 10.4564 14.4609 7.30064 14.4599C6.25625 14.4594 5.43563 13.8027 5.21639 12.7995C5.147 12.4807 5.16561 12.1635 5.24707 11.8497C5.62469 10.3985 5.59905 10.5036 5.13393 9.11578C4.35051 6.7766 3.57313 4.43541 2.79274 2.09522C2.67105 1.73016 2.51216 1.61703 2.12698 1.61652C1.75036 1.61652 1.37324 1.60094 0.997621 1.62004C0.501325 1.64519 0.163924 1.4531 0.000502833 0.976418V0.637508L0 0.636502Z" fill="black"/>
<path id="Vector_2" d="M6.17435 18.4775C6.0235 18.4227 5.86611 18.3805 5.7223 18.3106C5.01984 17.9712 4.66937 17.1812 4.88206 16.435C5.09929 15.6722 5.80476 15.2021 6.61835 15.278C7.33589 15.3449 7.96594 15.985 8.02075 16.702C8.0831 17.5191 7.60541 18.2145 6.83959 18.4217C6.78076 18.4378 6.72294 18.4584 6.66461 18.477H6.17535L6.17435 18.4775Z" fill="black"/>
<path id="Vector_3" d="M15.8111 18.4775C15.6602 18.4227 15.5028 18.3805 15.359 18.3106C14.6566 17.9712 14.3061 17.1812 14.5188 16.435C14.736 15.6722 15.4415 15.2021 16.2551 15.278C16.9726 15.3449 17.6027 15.985 17.6575 16.702C17.7198 17.5191 17.2421 18.2145 16.4763 18.4217C16.4175 18.4378 16.3597 18.4584 16.3013 18.477H15.8121L15.8111 18.4775Z" fill="black"/>
</g>
</svg>
