<svg width="19" height="19" viewBox="0 0 19 19" fill="none" xmlns="http://www.w3.org/2000/svg">
<g id="Group 533">
<path id="Vector" d="M3.37187 17.0865C2.49668 17.6891 1.63307 18.2826 0.771467 18.8787C0.617466 18.9849 0.461452 19.0413 0.278764 18.9633C0.0502789 18.8651 -0.0493688 18.6345 0.0341742 18.3662C0.353751 17.3428 0.66125 16.3153 1.008 15.3014C1.1308 14.9415 1.1001 14.6671 0.916409 14.3283C-1.26628 10.3045 0.606897 5.22398 4.87212 3.55364C9.1771 1.86769 13.9622 4.31078 15.1318 8.7922C16.2612 13.1211 13.3734 17.5713 8.96724 18.2872C7.00901 18.6053 5.18868 18.2318 3.51128 17.1696C3.469 17.1429 3.42522 17.1187 3.37137 17.087L3.37187 17.0865ZM7.20629 12.3942L7.23448 12.3982C7.23448 12.5301 7.23146 12.662 7.23498 12.7939C7.24253 13.0713 7.43578 13.2716 7.68943 13.2696C7.94308 13.2676 8.13181 13.0667 8.13734 12.7873C8.14137 12.5804 8.14238 12.373 8.13734 12.1656C8.1308 11.9094 8.23196 11.7186 8.45642 11.5907C8.64162 11.485 8.8228 11.3722 9.00549 11.2625C9.86407 10.7475 10.2929 9.99084 10.2893 8.98803C10.2838 7.32424 8.89728 6.12862 7.25461 6.37177C6.04172 6.55099 5.06487 7.69626 5.085 8.91554C5.08953 9.19041 5.26266 9.3812 5.51631 9.38976C5.76895 9.39832 5.96221 9.2186 5.98687 8.95078C5.99391 8.87577 5.98989 8.79975 6.00045 8.72525C6.11017 7.93085 6.73875 7.32323 7.52889 7.2452C8.29638 7.16918 9.04374 7.64139 9.28782 8.38292C9.54198 9.15567 9.34469 9.98732 8.6225 10.4354C8.38797 10.5808 8.14993 10.7203 7.9159 10.8668C7.61747 11.0536 7.39955 11.3138 7.31248 11.6546C7.25108 11.8948 7.24001 12.1475 7.2068 12.3947L7.20629 12.3942ZM7.23599 14.6288C7.23649 14.8765 7.44535 15.0824 7.69195 15.0789C7.93 15.0754 8.13282 14.874 8.13734 14.6359C8.14238 14.3907 7.93604 14.1788 7.68943 14.1768C7.44233 14.1747 7.23498 14.3811 7.23548 14.6288H7.23599Z" fill="#3F48CC"/>
<path id="Vector_2" d="M5.83058 2.24324C6.22112 1.93263 6.59153 1.59232 7.00471 1.31594C11.4249 -1.64214 17.3988 0.620217 18.741 5.77069C19.274 7.81507 18.9755 9.76682 17.9212 11.5983C17.8522 11.7181 17.8406 11.8152 17.8824 11.9461C18.2362 13.0506 18.582 14.1576 18.9302 15.2641C18.9433 15.3059 18.9574 15.3477 18.9685 15.39C19.0203 15.5888 18.9579 15.7812 18.8054 15.8944C18.6479 16.0117 18.4536 16.0208 18.2785 15.9005C17.3882 15.2908 16.5009 14.6772 15.6182 14.069C16.7964 10.8728 16.4702 7.87497 14.282 5.23606C12.0983 2.60268 9.22112 1.71968 5.8799 2.28099C5.86329 2.26841 5.84669 2.25582 5.83008 2.24324H5.83058Z" fill="#3F48CC"/>
</g>
</svg>
