<svg xmlns="http://www.w3.org/2000/svg" width="60" height="59" viewBox="0 0 60 59" fill="none">
  <path d="M14.5321 0.00154073C14.6862 0.00154073 14.8403 0.00154073 14.9928 0.00154073C15.0637 0.0277331 15.1346 0.0708735 15.207 0.0754957C17.1776 0.200295 18.8015 1.05848 20.2144 2.39429C21.1634 3.291 22.1433 4.1538 23.1109 5.03048C23.8181 5.67142 24.5284 6.30774 25.2541 6.96101C26.4605 5.73459 27.8749 5.08286 29.5512 5.08748C31.2229 5.09211 32.6265 5.76849 33.799 6.95485C35.5646 5.35557 37.2902 3.80098 39.0035 2.23406C40.0127 1.31116 41.1421 0.611669 42.4794 0.288116C42.9971 0.163317 43.5302 0.0939844 44.0556 0C44.2097 0 44.3637 0 44.5163 0C44.7227 0.0354367 44.9292 0.0862808 45.1372 0.10477C49.2417 0.4653 52.4341 4.31866 51.9302 8.40929C51.8024 9.45083 51.4002 10.4569 51.1152 11.5139C52.3817 11.5139 53.7391 11.5046 55.0964 11.5154C57.4152 11.5354 59.0361 13.164 59.0469 15.4859C59.0546 17.2161 59.0484 18.9448 59.0484 20.675C59.0484 22.3683 58.3628 23.0585 56.6803 23.0585C38.5968 23.0585 20.5148 23.0524 2.43127 23.0724C1.25107 23.0739 0.429863 22.6872 0 21.5687C0 19.2622 0 16.9557 0 14.6477C0.0369775 14.5845 0.0878215 14.526 0.107851 14.4567C0.673298 12.5554 2.0276 11.5262 3.99973 11.5139C5.16914 11.5062 6.3401 11.5139 7.50951 11.5108C7.68669 11.5108 7.86388 11.4923 8.08728 11.4784C8.01333 11.3213 7.97635 11.235 7.93321 11.1518C5.93026 7.30767 7.45096 2.67162 11.3952 0.850482C12.3659 0.405212 13.4829 0.277331 14.5321 0.00154073ZM23.6779 11.5139C23.7411 11.4569 23.8042 11.3998 23.8674 11.3428C23.6964 11.0439 23.55 10.725 23.3451 10.4508C23.188 10.2397 22.9569 10.0825 22.7581 9.90226C20.8784 8.20284 19.0311 6.46644 17.1113 4.81477C14.9728 2.97361 11.6464 4.09834 11.0023 6.82851C10.4292 9.25361 12.2288 11.4784 14.8187 11.5092C16.968 11.5339 19.1189 11.5154 21.2698 11.5154C22.0725 11.5154 22.8767 11.5154 23.6794 11.5154L23.6779 11.5139ZM35.1825 11.3428C35.2442 11.3921 35.3058 11.443 35.3674 11.4923C35.4799 11.4985 35.5939 11.5123 35.7064 11.5123C38.4905 11.5123 41.2746 11.5154 44.0587 11.5092C44.3637 11.5092 44.6719 11.4692 44.9739 11.4153C46.4884 11.1456 47.741 9.95773 48.0599 8.50328C48.3912 6.9949 47.7641 5.43261 46.4838 4.5775C44.9215 3.53289 43.1265 3.71469 41.5827 5.10135C39.6121 6.87165 37.6477 8.64965 35.7018 10.4492C35.4599 10.6726 35.352 11.0409 35.1825 11.3428Z" fill="#3F48CC"/>
  <path d="M3.87493 30.0041H25.6315V58.9667C25.4436 58.9775 25.2402 58.9976 25.0368 58.9976C19.3669 58.9991 13.6986 59.0022 8.02873 58.9976C5.4511 58.996 3.84412 57.3998 3.84412 54.8345C3.83949 45.7257 3.84258 39.6969 3.84412 30.5881C3.84412 30.4016 3.86415 30.2152 3.87493 30.0026V30.0041Z" fill="#3F48CC"/>
  <path d="M33.3999 58.9698V30.0149H55.2058C55.2058 30.2399 55.2058 30.4448 55.2058 30.6497C55.2058 39.72 55.2074 45.7103 55.2058 54.7806C55.2058 57.4029 53.6235 58.996 51.0166 58.9976C45.3467 59.0022 39.6784 58.9991 34.0085 58.9976C33.8205 58.9976 33.6326 58.9806 33.3999 58.9683V58.9698Z" fill="#3F48CC"/>
</svg>