<svg width="19" height="19" viewBox="0 0 19 19" fill="none" xmlns="http://www.w3.org/2000/svg">
<g id="Group 526">
<path id="Vector" d="M8.8333 19.0013H7.90549C7.78974 18.9869 7.67446 18.9711 7.55872 18.9581C5.93458 18.7735 4.47313 18.1855 3.19808 17.1615C1.56511 15.8497 0.531309 14.1679 0.14224 12.1022C0.0818113 11.7814 0.0464837 11.4561 0 11.133C0 10.7867 0 10.4404 0 10.0936C0.0543859 9.72174 0.0906432 9.34569 0.166412 8.978C0.95617 5.13566 4.36715 2.31921 8.28805 2.26436C8.77194 2.25739 8.98158 2.46192 8.98158 2.94256C8.98158 5.41038 8.98112 7.8782 8.98391 10.3456C8.98391 10.4478 9.00018 10.5561 9.03551 10.6514C9.57843 12.1161 10.126 13.579 10.6717 15.0423C11.0018 15.9273 11.3332 16.8119 11.6604 17.6979C11.7938 18.0591 11.6693 18.3756 11.3248 18.4751C10.7805 18.6322 10.2297 18.7693 9.67652 18.8925C9.40133 18.9539 9.11499 18.9664 8.8333 19.0008V19.0013Z" fill="black"/>
<path id="Vector_2" d="M10.0959 4.45236C10.0959 3.19683 10.0959 1.94131 10.0959 0.685784C10.0959 0.199564 10.3023 -0.00635844 10.782 0.000149278C14.735 0.0531407 18.1623 2.96627 18.8567 6.87788C18.9418 7.3562 18.9701 7.8466 18.9985 8.33282C19.0203 8.70562 18.7791 8.94176 18.4077 8.94176C15.8348 8.94362 13.2624 8.94362 10.6895 8.94176C10.3209 8.94176 10.0978 8.70794 10.0969 8.32957C10.095 7.03685 10.0959 5.74461 10.0959 4.45189V4.45236Z" fill="black"/>
<path id="Vector_3" d="M14.5484 10.0564C15.8095 10.0564 17.0711 10.0564 18.3322 10.0564C18.8007 10.0564 19.0136 10.2735 18.9992 10.7402C18.9258 13.1318 18.0128 15.1506 16.2809 16.7942C15.5111 17.525 14.6163 18.0697 13.6248 18.4514C13.2692 18.5885 12.9824 18.4472 12.8383 18.0628C12.3432 16.7389 11.8496 15.4151 11.3554 14.0907C10.9585 13.0267 10.5629 11.9627 10.1636 10.8996C10.0957 10.7188 10.0641 10.5431 10.1594 10.3637C10.2807 10.1359 10.4783 10.0546 10.7275 10.055C12.0011 10.0573 13.2748 10.056 14.5484 10.056V10.0564Z" fill="black"/>
</g>
</svg>
