<svg width="19" height="17" viewBox="0 0 19 17" fill="none" xmlns="http://www.w3.org/2000/svg">
<g id="Group 531">
<path id="Vector" d="M0.000624897 6.41084C0.158099 6.27495 0.294952 6.0864 0.476172 6.01098C5.23851 4.02666 10.0052 2.0534 14.7713 0.0788286C15.1488 -0.0772122 15.2937 -0.011545 15.4431 0.379207C16.6016 3.4051 17.7602 6.43099 18.9188 9.45688C19.0775 9.87169 19.0181 10.0193 18.6213 10.1844C17.9389 10.4679 17.2578 10.754 16.5729 11.0309C16.4517 11.0797 16.4086 11.1408 16.4086 11.2793C16.4136 13.0107 16.4123 14.7421 16.4117 16.4729C16.4117 16.8825 16.3004 16.9963 15.9024 16.9963C10.7695 16.9963 5.63595 16.995 0.503042 17.0002C0.274955 17.0002 0.107482 16.9364 0 16.7245C0 13.2864 0 9.84894 0 6.41084H0.000624897ZM15.6606 6.92252H0.754251V16.2109H15.6606V6.92317V6.92252ZM2.28587 6.089C2.29025 6.10266 2.294 6.11696 2.29837 6.13061C2.99076 6.13061 3.68377 6.13191 4.37616 6.12801C4.43052 6.12801 4.48864 6.09745 4.538 6.06755C4.63174 6.01033 4.7136 5.92451 4.81233 5.8829C5.91153 5.42193 7.01322 4.96681 8.11492 4.51169C9.54343 3.92133 10.9719 3.33033 12.4017 2.74323C12.6304 2.6496 12.7473 2.69056 12.9085 2.88431C13.3928 3.46557 14.0027 3.74644 14.7432 3.71523C15.0169 3.70353 15.1169 3.75749 15.2187 4.01496C15.475 4.66253 15.7205 5.314 15.9755 5.96222C16.0011 6.02659 16.0461 6.10591 16.1011 6.13126C16.3598 6.24829 16.4123 6.31396 16.4123 6.60589C16.4129 7.74499 16.4123 8.88408 16.4123 10.0238V10.2644C17.0072 10.0173 17.5709 9.78327 18.147 9.54401C17.0391 6.64945 15.9393 3.7744 14.8351 0.889591C10.6433 2.6262 6.46456 4.3576 2.28587 6.089ZM15.22 6.12346C15.2006 6.06039 15.1869 6.00643 15.1675 5.95442C15.0038 5.524 14.8326 5.09684 14.677 4.66383C14.6301 4.53379 14.5639 4.49283 14.4358 4.48568C13.7227 4.44472 13.106 4.16125 12.5886 3.65216C12.4954 3.56049 12.4267 3.55464 12.3149 3.6008C10.3714 4.41091 8.42674 5.21647 6.48269 6.02333C6.42832 6.04609 6.37583 6.0721 6.32209 6.0968C6.32459 6.10591 6.32709 6.11436 6.32958 6.12346H15.22Z" fill="black"/>
<path id="Vector_2" d="M8.22217 7.68243C9.66943 7.68243 11.1167 7.68243 12.564 7.68243C13.0239 7.68243 13.0464 7.70389 13.2139 8.14145C13.4694 8.80723 13.9287 9.25585 14.5755 9.49771C14.8442 9.59849 14.9167 9.68366 14.9173 9.97298C14.9211 11.0347 14.9211 12.0964 14.9173 13.1588C14.9161 13.4416 14.8411 13.5301 14.5693 13.6308C13.8862 13.8851 13.4226 14.3694 13.1782 15.0794C13.072 15.3883 13.0101 15.4435 12.6952 15.4435C9.69568 15.4442 6.69617 15.4435 3.69667 15.4416C3.42421 15.4416 3.33235 15.3681 3.24424 15.1054C2.99803 14.3714 2.52498 13.8753 1.81698 13.6217C1.57514 13.5346 1.49953 13.4423 1.49765 13.1673C1.4914 12.1055 1.49016 11.0438 1.49578 9.98209C1.49765 9.67065 1.56514 9.60109 1.84822 9.49446C2.52186 9.23959 2.98553 8.76302 3.22987 8.06018C3.33735 7.75135 3.41171 7.68568 3.73104 7.68503C5.22767 7.68178 6.72429 7.68373 8.22092 7.68373V7.68243H8.22217ZM8.22217 14.6724C9.60132 14.6724 10.9805 14.6711 12.3596 14.675C12.4771 14.675 12.5415 14.649 12.5965 14.5255C12.9014 13.8402 13.3869 13.3344 14.0487 13.0203C14.1499 12.9722 14.1806 12.9157 14.1799 12.8045C14.1756 11.9807 14.1756 11.1569 14.1799 10.3332C14.1806 10.2155 14.1518 10.1557 14.0418 10.103C13.3819 9.78703 12.8977 9.2812 12.5921 8.59527C12.5465 8.49255 12.4965 8.45614 12.3877 8.45614C9.5982 8.45939 6.80928 8.45939 4.01974 8.45614C3.92038 8.45614 3.86789 8.48344 3.82477 8.58227C3.5217 9.27795 3.03115 9.78508 2.36626 10.1069C2.26878 10.1544 2.23128 10.2077 2.23191 10.3215C2.23691 11.1452 2.23691 11.969 2.23191 12.7928C2.23128 12.9137 2.2694 12.9716 2.37438 13.0229C3.0199 13.3363 3.50357 13.8272 3.80352 14.5001C3.86789 14.6451 3.94538 14.6757 4.08348 14.675C5.46263 14.6705 6.84177 14.6724 8.22092 14.6724H8.22217Z" fill="black"/>
<path id="Vector_3" d="M10.4426 11.562C10.4426 12.848 9.43334 13.9 8.20355 13.8941C6.96875 13.8889 5.96954 12.8395 5.97266 11.5522C5.97579 10.2753 6.97687 9.2337 8.20292 9.23175C9.43897 9.2298 10.4426 10.274 10.4426 11.562ZM9.69518 11.5568C9.6933 10.7018 9.03029 10.0107 8.21167 10.0081C7.38681 10.0055 6.71567 10.7057 6.71692 11.5672C6.71817 12.4189 7.38243 13.11 8.20292 13.1146C9.02841 13.1191 9.69705 12.4208 9.69518 11.5568Z" fill="black"/>
<path id="Vector_4" d="M4.09991 12.1413C3.79434 12.1387 3.54625 11.8786 3.54688 11.5613C3.5475 11.246 3.79933 10.9814 4.10053 10.9788C4.40611 10.9762 4.67107 11.2551 4.66419 11.5724C4.65732 11.8903 4.40548 12.1439 4.09929 12.1413H4.09991ZM4.05992 11.7778C4.08804 11.7791 4.11616 11.7804 4.14428 11.7817C4.1924 11.707 4.28051 11.6302 4.27613 11.5587C4.27238 11.4931 4.17802 11.3942 4.10928 11.3793C4.00055 11.3559 3.91244 11.4436 3.93056 11.5639C3.94244 11.64 4.01492 11.7063 4.05992 11.7772V11.7778Z" fill="black"/>
<path id="Vector_5" d="M11.7584 11.5704C11.7553 11.2506 11.9965 10.9879 12.3015 10.9794C12.6058 10.971 12.8758 11.2467 12.8751 11.5639C12.8739 11.8793 12.6233 12.1387 12.3171 12.1413C12.0096 12.1439 11.7616 11.8903 11.7578 11.5704H11.7584ZM12.3596 11.3429C12.3327 11.3429 12.3058 11.3422 12.279 11.3416C12.2309 11.4112 12.1552 11.4749 12.1396 11.5516C12.1159 11.6706 12.1959 11.7642 12.3096 11.7421C12.3802 11.7284 12.4821 11.6368 12.4864 11.5737C12.4914 11.5002 12.4058 11.4203 12.3596 11.3429Z" fill="black"/>
</g>
</svg>
