<svg width="119" height="125" viewBox="0 0 119 125" fill="none" xmlns="http://www.w3.org/2000/svg">
<g id="Group 517">
<path id="Vector" d="M118.512 58.2572C118.414 54.2494 117.794 50.3443 116.784 46.5077C113.817 35.1692 108.34 25.3722 100.189 17.2537C93.1466 10.2314 84.9958 5.40141 75.7366 2.52397C71.6612 1.25653 67.4881 0.502911 63.2171 0.36589C59.1743 0.263125 55.1316 0.160359 51.1214 0.674187C43.7857 1.63333 36.9717 4.16822 30.4837 7.83353C24.2566 11.3618 18.9749 16.089 14.2801 21.6041C10.4329 26.1258 7.36826 31.2641 5.02085 36.8134C2.11919 43.6302 0.0978088 50.6868 0.130412 58.2572C0.0978088 58.2572 0.0326029 58.2572 0 58.2572V67.2663C0.195618 68.568 0.0978088 69.904 0.260823 71.2399C0.912882 76.4467 2.217 81.4823 4.10797 86.3465C7.85731 95.938 13.5302 104.056 21.0941 110.702C29.1796 117.759 38.4062 122.28 48.774 124.267C50.7954 124.644 52.8167 124.644 54.8381 124.918H55.751C56.5987 124.712 57.4464 124.712 58.294 124.918H60.1524C60.9349 124.712 61.6847 124.712 62.4672 124.918H63.1519C65.0755 124.644 67.0642 124.712 68.9878 124.404C75.8344 123.274 82.2572 120.773 88.3213 117.279C94.3203 113.819 99.5041 109.229 104.069 103.885C107.981 99.2607 111.111 94.0539 113.523 88.4018C116.034 82.6127 117.729 76.5495 118.316 70.2123C118.675 66.2729 118.577 62.2993 118.512 58.3257V58.2572ZM59.1417 19.035C69.9007 18.898 78.7687 28.1469 78.8339 39.5539C78.8991 50.7896 70.0963 60.107 59.3373 60.1755C48.5784 60.2783 39.7104 51.0294 39.6452 39.6224C39.58 28.3524 48.2849 19.1378 59.1417 19.035ZM87.4411 97.685C80.9205 103.371 73.5196 107.002 65.0754 108.133C52.3929 109.846 41.1449 106.352 31.2336 97.9248C28.4298 95.5611 27.6147 92.3754 28.0711 88.8129C29.5383 77.5772 37.6238 70.2465 48.448 70.2123C52.0669 70.2123 55.6858 70.2123 60.185 70.2123C63.9343 70.3493 68.564 69.904 73.1936 70.4521C82.844 71.5825 90.4405 80.5574 90.4405 90.7654C90.4405 93.5401 89.4624 95.938 87.4411 97.7192V97.685Z" fill="#3F48CC"/>
</g>
</svg>
