<svg width="37" height="37" viewBox="0 0 37 37" fill="none" xmlns="http://www.w3.org/2000/svg">
<path id="Vector" d="M36.35 16.9245C36.32 15.7545 36.13 14.6145 35.82 13.4945C34.91 10.1845 33.23 7.32449 30.73 4.95449C28.57 2.90449 26.07 1.49449 23.23 0.654495C21.98 0.284495 20.7 0.0644949 19.39 0.0244949C18.15 -0.0055051 16.91 -0.0355051 15.68 0.114495C13.43 0.394495 11.34 1.13449 9.35 2.20449C7.44 3.23449 5.82 4.61449 4.38 6.22449C3.2 7.54449 2.26 9.04449 1.54 10.6645C0.65 12.6545 0.03 14.7145 0.04 16.9245C0.03 16.9245 0.01 16.9245 0 16.9245V19.5545C0.06 19.9345 0.03 20.3245 0.08 20.7145C0.28 22.2345 0.68 23.7045 1.26 25.1245C2.41 27.9245 4.15 30.2945 6.47 32.2345C8.95 34.2945 11.78 35.6145 14.96 36.1945C15.58 36.3045 16.2 36.3045 16.82 36.3845H17.1C17.36 36.3245 17.62 36.3245 17.88 36.3845H18.45C18.69 36.3245 18.92 36.3245 19.16 36.3845H19.37C19.96 36.3045 20.57 36.3245 21.16 36.2345C23.26 35.9045 25.23 35.1745 27.09 34.1545C28.93 33.1445 30.52 31.8045 31.92 30.2445C33.12 28.8945 34.08 27.3745 34.82 25.7245C35.59 24.0345 36.11 22.2645 36.29 20.4145C36.4 19.2645 36.37 18.1045 36.35 16.9445V16.9245ZM18.14 5.47449C21.44 5.43449 24.16 8.13449 24.18 11.4645C24.2 14.7445 21.5 17.4645 18.2 17.4845C14.9 17.5145 12.18 14.8145 12.16 11.4845C12.14 8.19449 14.81 5.50449 18.14 5.47449ZM26.82 28.4345C24.82 30.0945 22.55 31.1545 19.96 31.4845C16.07 31.9845 12.62 30.9645 9.58 28.5045C8.72 27.8145 8.47 26.8845 8.61 25.8445C9.06 22.5645 11.54 20.4245 14.86 20.4145C15.97 20.4145 17.08 20.4145 18.46 20.4145C19.61 20.4545 21.03 20.3245 22.45 20.4845C25.41 20.8145 27.74 23.4345 27.74 26.4145C27.74 27.2245 27.44 27.9245 26.82 28.4445V28.4345Z" fill="black"/>
</svg>
