<svg width="19" height="18" viewBox="0 0 19 18" fill="none" xmlns="http://www.w3.org/2000/svg">
<path id="Vector" d="M9.46886 0.000554902C9.81216 0.000554902 10.0137 0.152598 10.1504 0.430604C10.9587 2.06923 11.7748 3.70397 12.5848 5.34149C12.6439 5.46135 12.7048 5.52849 12.8549 5.54958C14.6669 5.80317 16.4771 6.06841 18.2885 6.32922C18.7965 6.40246 19.075 6.69712 18.9824 7.11995C18.9455 7.28809 18.8244 7.459 18.6971 7.5833C17.3971 8.85569 16.0886 10.1198 14.7796 11.3838C14.6831 11.477 14.6406 11.5581 14.6663 11.7057C14.9878 13.5307 15.2976 15.358 15.613 17.1848C15.6627 17.4717 15.5829 17.7092 15.344 17.8767C15.104 18.0454 14.8533 18.0304 14.596 17.8956C12.9593 17.0383 11.3199 16.1854 9.68489 15.3259C9.55259 15.2565 9.45435 15.2559 9.3215 15.3259C7.70437 16.1765 6.08614 17.0239 4.46176 17.8601C4.2982 17.9444 4.08776 17.9977 3.90802 17.9783C3.54742 17.9394 3.32302 17.5849 3.38665 17.2097C3.61775 15.8464 3.85387 14.483 4.08832 13.1201C4.17261 12.6296 4.26583 12.1402 4.33672 11.6474C4.34788 11.5681 4.28536 11.4543 4.22173 11.3916C2.90939 10.1114 1.58979 8.83904 0.279121 7.55722C0.165247 7.44624 0.0597457 7.2953 0.0212295 7.14548C-0.0753401 6.76648 0.166363 6.42244 0.567155 6.36029C1.50215 6.21491 2.43938 6.08562 3.37549 5.94966C4.2982 5.81593 5.2198 5.67776 6.14363 5.55235C6.28932 5.53238 6.35631 5.46856 6.41659 5.34593C7.22878 3.70175 8.04823 2.06091 8.85986 0.416177C8.99439 0.144275 9.19646 0.00332941 9.46886 0V0.000554902ZM14.0478 16.1044C14.0478 16.0372 14.054 15.9956 14.0467 15.9562C13.7911 14.478 13.5371 12.9991 13.2764 11.5214C13.2211 11.209 13.2942 10.9593 13.5304 10.7351C14.2555 10.0471 14.9744 9.35233 15.685 8.64926C16.0736 8.26527 16.4403 7.85964 16.8093 7.47121C16.8059 7.4701 16.7613 7.45511 16.7155 7.44846C15.2424 7.23648 13.7693 7.01952 12.2951 6.81698C11.935 6.76759 11.7089 6.59779 11.5504 6.27206C10.9157 4.96527 10.2637 3.66624 9.61735 2.36499C9.58553 2.30063 9.54645 2.23903 9.49845 2.15413C9.44933 2.24625 9.41248 2.31117 9.37955 2.37776C8.72366 3.69732 8.06609 5.01632 7.41467 6.33865C7.2846 6.60278 7.0937 6.75538 6.79562 6.79756C5.38391 6.99621 3.97277 7.20319 2.56162 7.40795C2.42431 7.42792 2.28755 7.454 2.15078 7.47676L2.13069 7.53502C2.18595 7.57719 2.24568 7.61437 2.2948 7.66209C3.36265 8.69477 4.42771 9.73077 5.49779 10.7612C5.70767 10.9632 5.7808 11.1963 5.73223 11.4759C5.51677 12.7156 5.3013 13.9552 5.08695 15.1954C5.03615 15.489 4.9887 15.7831 4.934 16.1138C5.02722 16.0672 5.07634 16.0439 5.12491 16.0189C6.43613 15.3347 7.75071 14.6555 9.05691 13.9613C9.36448 13.7976 9.63521 13.7943 9.94166 13.958C10.9459 14.4952 11.9585 15.0168 12.9683 15.5439C13.3233 15.7293 13.6789 15.9129 14.0478 16.1049V16.1044Z" fill="#3F48CC"/>
</svg>
